<?xml version="1.0" encoding="UTF-8" standalone="no"?>
<!-- Created with Inkscape (http://www.inkscape.org/) -->

<svg
   xmlns:dc="http://purl.org/dc/elements/1.1/"
   xmlns:cc="http://creativecommons.org/ns#"
   xmlns:rdf="http://www.w3.org/1999/02/22-rdf-syntax-ns#"
   xmlns:svg="http://www.w3.org/2000/svg"
   xmlns="http://www.w3.org/2000/svg"
   xmlns:sodipodi="http://sodipodi.sourceforge.net/DTD/sodipodi-0.dtd"
   xmlns:inkscape="http://www.inkscape.org/namespaces/inkscape"
   width="297mm"
   height="210mm"
   id="svg2993"
   version="1.1"
   inkscape:version="0.91 r13725"
   sodipodi:docname="logoJpylyzer.svg"
   inkscape:export-filename="D:\johan\jpylyzerLogo\logoJpylyzer3.png"
   inkscape:export-xdpi="106.98684"
   inkscape:export-ydpi="106.98684">
  <defs
     id="defs2995" />
  <sodipodi:namedview
     inkscape:document-units="mm"
     pagecolor="#ffffff"
     bordercolor="#666666"
     borderopacity="1.0"
     inkscape:pageopacity="0"
     inkscape:pageshadow="2"
     inkscape:zoom="0.41661376"
     inkscape:cx="563.73226"
     inkscape:cy="346.48948"
     inkscape:current-layer="layer1"
     id="namedview2997"
     showgrid="false"
     inkscape:window-width="1083"
     inkscape:window-height="697"
     inkscape:window-x="471"
     inkscape:window-y="136"
     inkscape:window-maximized="0"
     units="mm"
     borderlayer="true" />
  <metadata
     id="metadata2999">
    <rdf:RDF>
      <cc:Work
         rdf:about="">
        <dc:format>image/svg+xml</dc:format>
        <dc:type
           rdf:resource="http://purl.org/dc/dcmitype/StillImage" />
        <dc:title></dc:title>
      </cc:Work>
    </rdf:RDF>
  </metadata>
  <g
     inkscape:label="Layer 1"
     inkscape:groupmode="layer"
     id="layer1">
    <g
       style="font-size:144px;font-style:normal;font-variant:normal;font-weight:normal;font-stretch:normal;line-height:125%;letter-spacing:0px;word-spacing:0px;fill:#000000;fill-opacity:1;stroke:none;font-family:Star Avenue;-inkscape-font-specification:Star Avenue"
       id="text3002-5-7"
       inkscape:export-filename="F:\johan\pythonCode\jpylyzer\logo\logo.png"
       inkscape:export-xdpi="88.799286"
       inkscape:export-ydpi="88.799286">
      <path
         d="m 318.68298,347.3186 16.38282,0 0,89.4375 c -2e-5,12.23436 -4.14846,22.80466 -12.44532,31.71094 -7.64062,7.07808 -17.17967,10.61714 -28.61718,10.61719 -18.37496,-5e-5 -31.07808,-8.34379 -38.10938,-25.03125 -2.06244,-6.14065 -3.09369,-11.53126 -3.09375,-16.17188 l 16.38281,0 c 5e-5,6.04686 2.1563,11.97655 6.46875,17.78907 4.45316,4.68746 10.57034,7.03121 18.35157,7.03125 11.71876,-4e-5 19.40625,-5.34378 23.0625,-16.03125 1.07812,-3.75002 1.61718,-7.10158 1.61718,-10.05469 z m 8.29688,-22.07812 c 3.89061,1e-4 6.5156,2.15635 7.875,6.46875 l 0.21094,1.82812 c -2e-5,3.79697 -2.03908,6.44541 -6.11719,7.94532 l -1.61719,0.14062 -0.70312,0 c -3.70314,9e-5 -6.28126,-2.03897 -7.73438,-6.11719 l -0.21094,-1.61718 0,-0.5625 c 0,-3.7499 1.96875,-6.32803 5.90625,-7.73438 z"
         style=""
         id="path2990" />
      <path
         d="m 342.02673,346.61548 16.38282,0 0,8.08594 0.35156,0 c 7.59372,-5.39055 15.70309,-8.08586 24.32812,-8.08594 12.8437,8e-5 23.69525,5.27351 32.55469,15.82031 5.76554,7.78131 8.64835,15.82036 8.64844,24.11719 l 0,2.53125 c -9e-5,10.87503 -4.5704,20.71877 -13.71094,29.53125 -8.29694,6.84375 -16.87505,10.26562 -25.73437,10.26562 l -3.23438,0 c -7.68753,0 -15.30471,-2.64843 -22.85156,-7.94531 l -0.35156,0 0,57.44531 -16.38282,0 z m 16.38282,41.0625 c -2e-5,9.18753 4.31247,16.50002 12.9375,21.9375 3.98433,1.92189 7.59371,2.88283 10.82812,2.88281 l 2.17969,0 c 6.79682,2e-5 13.03119,-3.23435 18.70312,-9.70312 3.23431,-4.78122 4.8515,-9.65622 4.85157,-14.625 l 0,-0.70313 c -7e-5,-7.92182 -3.53913,-14.57807 -10.61719,-19.96875 -4.59381,-2.99993 -9.2813,-4.49993 -14.0625,-4.5 -7.92191,7e-5 -14.62503,3.46881 -20.10938,10.40625 -3.14064,4.64068 -4.71095,9.39848 -4.71093,14.27344 z"
         style=""
         id="path2992" />
      <path
         d="m 431.46423,346.89673 16.38282,0 0,33.89062 c -2e-5,12.23441 3.60935,21.51566 10.82812,27.84375 3.79684,2.76565 8.53121,4.14846 14.20313,4.14844 11.15619,2e-5 18.58587,-5.81248 22.28906,-17.4375 1.45305,-4.59371 2.17962,-8.62496 2.17969,-12.09375 l 0,-36.35156 16.38281,0 0,91.125 c -9e-5,8.99998 -3.11727,17.92966 -9.35156,26.78906 -8.06257,9.14058 -18.25787,13.71089 -30.58594,13.71094 l 0,-16.38281 c 10.78119,-4e-5 18.09368,-5.15628 21.9375,-15.46875 1.07805,-3.89064 1.61712,-7.07814 1.61719,-9.5625 l 0,-16.03125 c -6.75007,5.39062 -15.0235,8.08593 -24.82032,8.08593 -17.62502,0 -30.00001,-8.62499 -37.125,-25.875 -2.625,-6.93746 -3.9375,-14.50777 -3.9375,-22.71093 z"
         style=""
         id="path2994" />
      <path
         d="m 520.90173,305.6936 16.38282,0 0,123.46875 -16.38282,0 z"
         style=""
         id="path2996" />
      <path
         d="m 544.24548,346.89673 16.38282,0 0,33.89062 c -2e-5,12.23441 3.60935,21.51566 10.82812,27.84375 3.79684,2.76565 8.53121,4.14846 14.20313,4.14844 11.15619,2e-5 18.58587,-5.81248 22.28906,-17.4375 1.45305,-4.59371 2.17962,-8.62496 2.17969,-12.09375 l 0,-36.35156 16.38281,0 0,91.125 c -9e-5,8.99998 -3.11727,17.92966 -9.35156,26.78906 -8.06257,9.14058 -18.25787,13.71089 -30.58594,13.71094 l 0,-16.38281 c 10.78119,-4e-5 18.09368,-5.15628 21.9375,-15.46875 1.07805,-3.89064 1.61712,-7.07814 1.61719,-9.5625 l 0,-16.03125 c -6.75007,5.39062 -15.0235,8.08593 -24.82032,8.08593 -17.62502,0 -30.00001,-8.62499 -37.125,-25.875 -2.625,-6.93746 -3.9375,-14.50777 -3.9375,-22.71093 z"
         style=""
         id="path2998" />
      <path
         d="m 633.68298,346.89673 82.26563,0 0,11.53125 -54.21094,54.35156 54.21094,0 0,16.38281 -82.26563,0 0,-11.67187 54,-54.21094 -54,0 z"
         style=""
         id="path3000" />
      <path
         d="m 764.53455,346.89673 c 12.09369,8e-5 22.52337,4.85164 31.28906,14.55469 6.46867,8.15631 9.70304,16.99223 9.70312,26.50781 -0.0938,3.09379 -0.37508,5.83597 -0.84375,8.22656 l -63.5625,0 c 2.0156,6.0469 6.04685,10.68752 12.09375,13.92188 3.56247,1.78126 7.26559,2.67189 11.10938,2.67187 6.4687,2e-5 12.30463,-2.39061 17.50781,-7.17187 l 11.46094,11.46093 0,0.21094 c -8.29694,7.92188 -17.88287,11.88281 -28.75781,11.88281 l -0.35157,0 c -12.2344,0 -22.68752,-4.85155 -31.35937,-14.55468 -6.46876,-8.10936 -9.70313,-16.94528 -9.70313,-26.50782 0,-12.18744 4.85156,-22.68743 14.55469,-31.5 7.87497,-6.46867 16.82809,-9.70304 26.85938,-9.70312 z m -23.41407,32.97656 46.40625,0 c -1.82819,-5.48432 -5.53131,-9.98431 -11.10937,-13.5 -4.17193,-2.06243 -8.25005,-3.09368 -12.23438,-3.09375 -8.71878,7e-5 -15.86721,4.19538 -21.44531,12.58594 z"
         style=""
         id="path3002" />
      <path
         d="m 812.55798,346.89673 16.38282,0 0,9.35156 0.21093,0 c 8.71872,-6.23429 19.61715,-9.35148 32.69532,-9.35156 l 0,16.38281 c -15.84379,7e-5 -26.15628,5.53131 -30.9375,16.59375 -1.31252,3.23442 -1.96877,6.23442 -1.96875,9 l 0,40.28906 -16.38282,0 z"
         style=""
         id="path3004" />
    </g>
    <path
       style="fill:#35b0d4;fill-opacity:1;stroke:none"
       d="m 360.55846,435.86041 134.94342,0 c 0.25099,2.52002 -0.48577,5.26095 -0.93337,7.50781 -0.62564,3.0882 -1.5623,3.52545 -1.5623,3.52545 l -132.44775,0.075 z"
       id="rect3762-4-14"
       inkscape:connector-curvature="0"
       sodipodi:nodetypes="cccccc"
       inkscape:export-filename="F:\johan\pythonCode\jpylyzer\logo\logo.png"
       inkscape:export-xdpi="88.799286"
       inkscape:export-ydpi="88.799286" />
    <path
       transform="matrix(0.70690809,0,0,0.7491116,136.65904,231.32977)"
       style="fill:#35b0d4;fill-opacity:1;stroke:none"
       d="m 312.03962,109.81394 c 0,22.20467 -19.0751,40.20511 -42.60542,40.20511 -23.53031,0 -42.60541,-18.00044 -42.60541,-40.20511 0,-22.204664 19.0751,-40.205103 42.60541,-40.205103 23.53032,0 42.60542,18.000439 42.60542,40.205103 z"
       id="path3764-1-2"
       inkscape:export-filename="F:\johan\pythonCode\jpylyzer\logo\logo.png"
       inkscape:export-xdpi="88.799286"
       inkscape:export-ydpi="88.799286" />
    <path
       style="fill:#35b0d4;fill-opacity:1;stroke:none"
       d="m 628.24182,435.86041 200.92072,0 0,11.10827 -201.82757,-0.075 c 0,0 0.90685,-3.99589 0.90685,-6.03134 0,-1.66731 0,-5.00192 0,-5.00192 z"
       id="rect3762-4-1-3"
       inkscape:connector-curvature="0"
       sodipodi:nodetypes="ccccsc"
       inkscape:export-filename="F:\johan\pythonCode\jpylyzer\logo\logo.png"
       inkscape:export-xdpi="88.799286"
       inkscape:export-ydpi="88.799286" />
    <path
       style="fill:#35b0d4;fill-opacity:1;stroke:none"
       d="m 515.46729,435.86041 92.52145,0 c 0.17206,2.52002 -0.33309,5.26095 -0.64,7.50781 -0.42892,3.0882 -1.07115,3.52545 -1.07115,3.52545 l -91.88265,0.075 c 0,0 1.07235,-4.43194 1.07235,-6.16035 0,-1.97434 0,-4.94791 0,-4.94791 z"
       id="rect3762-4-15-2"
       inkscape:connector-curvature="0"
       sodipodi:nodetypes="cccccsc"
       inkscape:export-filename="F:\johan\pythonCode\jpylyzer\logo\logo.png"
       inkscape:export-xdpi="88.799286"
       inkscape:export-ydpi="88.799286" />
  </g>
</svg>
