<?xml version="1.0" encoding="UTF-8" standalone="no"?>
<!-- Generator: Adobe Illustrator 13.0.0, SVG Export Plug-In . SVG Version: 6.00 Build 14948)  -->

<svg
   xmlns:dc="http://purl.org/dc/elements/1.1/"
   xmlns:cc="http://creativecommons.org/ns#"
   xmlns:rdf="http://www.w3.org/1999/02/22-rdf-syntax-ns#"
   xmlns:svg="http://www.w3.org/2000/svg"
   xmlns="http://www.w3.org/2000/svg"
   xmlns:xlink="http://www.w3.org/1999/xlink"
   xmlns:sodipodi="http://sodipodi.sourceforge.net/DTD/sodipodi-0.dtd"
   xmlns:inkscape="http://www.inkscape.org/namespaces/inkscape"
   version="1.1"
   id="Layer_1"
   x="0px"
   y="0px"
   width="100px"
   height="100px"
   viewBox="0 0 100 100"
   style="enable-background:new 0 0 100 100;"
   xml:space="preserve"
   inkscape:version="0.91 r13725"
   sodipodi:docname="TK_archive_icon.svg"><metadata
     id="metadata40"><rdf:RDF><cc:Work
         rdf:about=""><dc:format>image/svg+xml</dc:format><dc:type
           rdf:resource="http://purl.org/dc/dcmitype/StillImage" /><dc:title></dc:title></cc:Work></rdf:RDF></metadata><defs
     id="defs38"><defs
       id="defs8"><path
         id="SVGID_1_"
         d="m 49.738,85.357 c -19.595,0 -35.536,-15.942 -35.536,-35.54 0,-19.594 15.941,-35.535 35.536,-35.535 19.593,0 35.536,15.941 35.536,35.535 -0.001,19.6 -15.941,35.54 -35.536,35.54 l 0,0 z"
         inkscape:connector-curvature="0" /></defs><clipPath
       id="SVGID_2_"><use
         xlink:href="#SVGID_1_"
         style="overflow:visible"
         id="use12"
         x="0"
         y="0"
         width="100%"
         height="100%" /></clipPath></defs><sodipodi:namedview
     pagecolor="#ffffff"
     bordercolor="#666666"
     borderopacity="1"
     objecttolerance="10"
     gridtolerance="10"
     guidetolerance="10"
     inkscape:pageopacity="0"
     inkscape:pageshadow="2"
     inkscape:window-width="1394"
     inkscape:window-height="992"
     id="namedview36"
     showgrid="false"
     inkscape:zoom="6.675088"
     inkscape:cx="50.847458"
     inkscape:cy="50"
     inkscape:window-x="304"
     inkscape:window-y="36"
     inkscape:window-maximized="0"
     inkscape:current-layer="Layer_1" /><circle
     id="circle4"
     r="47.584"
     cy="49.5"
     cx="49.5" /><path
     style="fill:#ffde48;stroke:#000000;stroke-width:2.00480008;fill-opacity:1"
     d="m 76.819,17.122 c -9.947,0 -19.896,0 -29.843,0 -1.192,0 -2.385,0 -3.577,0 -1.329,0 -2.806,1.197 -3.903,1.939 -1.688,1.125 -3.477,2.116 -5.134,3.286 -1.689,1.126 -3.459,2.138 -5.134,3.286 -1.072,0.693 -1.972,1.508 -1.972,2.91 0,0.282 0,0.563 0,0.845 0,1.703 0,3.406 0,5.108 0,11.813 0,23.625 0,35.438 0,1.424 0,2.85 0,4.275 0,1.977 1.289,3.359 3.3,3.359 4.707,0 9.413,0 14.12,0 5.679,0 11.357,0 17.036,0 1.479,0 2.71,0.117 4.02,-0.756 0.844,-0.563 1.729,-1.066 2.563,-1.641 1.676,-1.146 3.46,-2.137 5.134,-3.287 0.845,-0.563 1.73,-1.066 2.566,-1.643 0.941,-0.627 2.11,-1.15 2.92,-1.943 1.104,-1.078 0.902,-2.613 0.902,-4.01 0,-2.055 0,-4.109 0,-6.164 0,-6.254 0,-12.508 0,-18.762 0,-4.869 0,-9.737 0,-14.606 0.002,-2.492 0.85,-7.634 -2.998,-7.634"
     id="path14"
     clip-path="url(#SVGID_2_)"
     inkscape:connector-curvature="0" /><path
     style="fill:#ffde48;stroke:#000000;stroke-width:2.00480008;fill-opacity:1"
     d="m 66.179,75.055 c 0,1.664 -1.343,3.014 -3,3.014 l -33.422,0 c -1.657,0 -3,-1.35 -3,-3.014 l 0,-46.259 c 0,-1.665 1.343,-3.015 3,-3.015 l 33.421,0 c 1.657,0 3,1.35 3,3.015 l 0,46.259 z"
     id="path16"
     clip-path="url(#SVGID_2_)"
     inkscape:connector-curvature="0" /><line
     style="fill:none;stroke:#000000;stroke-width:2;stroke-linecap:round"
     x1="65.5"
     y1="26.943001"
     x2="80.346001"
     y2="19.75"
     id="line18"
     clip-path="url(#SVGID_2_)" /><rect
     x="31.266001"
     y="30.854"
     style="stroke:#000000;stroke-width:2.12170005"
     width="29.666"
     height="18.667"
     id="rect20"
     clip-path="url(#SVGID_2_)" /><path
     style="fill:#ffffff;stroke:#000000;stroke-linecap:round;stroke-linejoin:round"
     d="m 56.342,34.907 0,-1.412 c 0,-0.677 -0.549,-1.225 -1.225,-1.225 l -8.779,0 c -0.676,0 -1.225,0.548 -1.225,1.225 l 0,1.327 -10.185,0 c -0.688,0 -1.247,0.585 -1.247,1.307 l 0,12.085 c 0,0.722 0.558,1.307 1.247,1.307 l 20.984,0 c 0.688,0 1.246,-0.585 1.246,-1.307 l 0,-12.086 c 0,-0.562 -0.342,-1.038 -0.816,-1.221 z"
     id="path22"
     clip-path="url(#SVGID_2_)"
     inkscape:connector-curvature="0" /><rect
     x="31.266001"
     y="54.02"
     style="fill:#ffde48;stroke:#000000;stroke-width:2.19619989;fill-opacity:1"
     width="29.666"
     height="20"
     id="rect24"
     clip-path="url(#SVGID_2_)" /><rect
     x="23.349001"
     y="38.771"
     style="fill:#ffde48;stroke:#000000;stroke-width:2.122;stroke-miterlimit:4;stroke-dasharray:none;fill-opacity:1"
     width="29.666"
     height="18.667"
     id="rect26"
     clip-path="url(#SVGID_2_)" /><path
     style="fill:#ffde48;stroke:#000000;stroke-width:1.64559996;stroke-linecap:round;fill-opacity:1"
     d="m 43.182,47.493 c 0,0.996 -1.343,1.805 -3,1.805 l -4.25,0 c -1.657,0 -3,-0.809 -3,-1.805"
     id="path28"
     clip-path="url(#SVGID_2_)"
     inkscape:connector-curvature="0" /><path
     style="fill:#ffde48;stroke:#000000;stroke-width:1.64559996;stroke-linecap:round;fill-opacity:1"
     d="m 51.422,63.922 c 0,0.996 -1.344,1.805 -3,1.805 l -4.25,0 c -1.657,0 -3,-0.809 -3,-1.805"
     id="path30"
     clip-path="url(#SVGID_2_)"
     inkscape:connector-curvature="0" /><polygon
     style="fill:#ffde48;stroke:#000000;stroke-width:1.64559996;stroke-linecap:round;stroke-linejoin:round;fill-opacity:1"
     points="53.088,46.557 61.19,39.687 61.19,49.335 53.088,56.391 "
     id="polygon32"
     clip-path="url(#SVGID_2_)" /><path
     inkscape:connector-curvature="0"
     id="path34"
     d="m 49.738,6.318 c 24.028,0 43.505,19.478 43.505,43.505 0,24.026 -19.478,43.505 -43.505,43.505 C 25.711,93.328 6.233,73.849 6.233,49.823 6.233,25.796 25.71,6.318 49.738,6.318 m 0,5.438 c -20.991,0 -38.066,17.077 -38.066,38.067 0,20.989 17.076,38.067 38.066,38.067 20.991,0 38.067,-17.078 38.067,-38.067 0,-20.99 -17.076,-38.067 -38.067,-38.067 l 0,0 z"
     style="fill:#ffffff" /></svg>