<?xml version="1.0" encoding="UTF-8" standalone="no"?>
<svg
   xmlns:dc="http://purl.org/dc/elements/1.1/"
   xmlns:cc="http://creativecommons.org/ns#"
   xmlns:rdf="http://www.w3.org/1999/02/22-rdf-syntax-ns#"
   xmlns:svg="http://www.w3.org/2000/svg"
   xmlns="http://www.w3.org/2000/svg"
   xmlns:sodipodi="http://sodipodi.sourceforge.net/DTD/sodipodi-0.dtd"
   xmlns:inkscape="http://www.inkscape.org/namespaces/inkscape"
   version="1.0"
   width="189.98mm"
   height="253.55mm"
   id="svg2996"
   inkscape:version="0.92.3 (2405546, 2018-03-11)"
   sodipodi:docname="boxStructure.svg">
  <metadata
     id="metadata3045">
    <rdf:RDF>
      <cc:Work
         rdf:about="">
        <dc:format>image/svg+xml</dc:format>
        <dc:type
           rdf:resource="http://purl.org/dc/dcmitype/StillImage" />
        <dc:title></dc:title>
      </cc:Work>
    </rdf:RDF>
  </metadata>
  <sodipodi:namedview
     pagecolor="#ffffff"
     bordercolor="#666666"
     borderopacity="1"
     objecttolerance="10"
     gridtolerance="10"
     guidetolerance="10"
     inkscape:pageopacity="1"
     inkscape:pageshadow="2"
     inkscape:window-width="1872"
     inkscape:window-height="1029"
     id="namedview3043"
     showgrid="false"
     inkscape:zoom="1.0507504"
     inkscape:cx="156.70729"
     inkscape:cy="411.13473"
     inkscape:window-x="48"
     inkscape:window-y="0"
     inkscape:window-maximized="1"
     inkscape:current-layer="g3003" />
  <defs
     id="defs2998">
    <clipPath
       clipPathUnits="userSpaceOnUse"
       id="clipEmfPath1">
      <rect
         x="0"
         y="0"
         width="673.30279"
         height="897.73706"
         id="rect3001" />
    </clipPath>
  </defs>
  <g
     id="g3003">
    <path
       style="fill:none;stroke:#000000;stroke-width:1.8702855px;stroke-linecap:butt;stroke-linejoin:miter;stroke-miterlimit:4;stroke-dasharray:none;stroke-opacity:1;"
       d="  M 82.068129 498.35628   L 152.67141 498.35628   L 152.67141 547.76923   L 82.068129 547.76923  z "
       id="path3007"
       inkscape:export-filename="/home/johan/jpylyzer/doc/images/boxStructure.png"
       inkscape:export-xdpi="98.019997"
       inkscape:export-ydpi="98.019997" />
    <text
       xml:space="preserve"
       x="91.908928"
       y="531.51337"
       style="font-style:normal;font-weight:normal;font-size:22.44342613px;line-height:0%;font-family:Arial;text-align:start;text-anchor:start;fill:#000000"
       id="text3009"
       inkscape:export-filename="/home/johan/jpylyzer/doc/images/boxStructure.png"
       inkscape:export-xdpi="98.019997"
       inkscape:export-ydpi="98.019997">LBox</text>
    <path
       style="fill:none;stroke:#000000;stroke-width:1.8702855px;stroke-linecap:butt;stroke-linejoin:miter;stroke-miterlimit:4;stroke-dasharray:none;stroke-opacity:1;"
       d="  M 152.82103 498.35628   L 223.42431 498.35628   L 223.42431 547.76923   L 152.82103 547.76923  z "
       id="path3011"
       inkscape:export-filename="/home/johan/jpylyzer/doc/images/boxStructure.png"
       inkscape:export-xdpi="98.019997"
       inkscape:export-ydpi="98.019997" />
    <text
       xml:space="preserve"
       x="161.91995"
       y="531.51337"
       style="font-style:normal;font-weight:normal;font-size:22.44342613px;line-height:0%;font-family:Arial;text-align:start;text-anchor:start;fill:#000000"
       id="text3013"
       inkscape:export-filename="/home/johan/jpylyzer/doc/images/boxStructure.png"
       inkscape:export-xdpi="98.019997"
       inkscape:export-ydpi="98.019997">TBox</text>
    <path
       style="fill:#000000;fill-rule:nonzero;fill-opacity:1;stroke:#000000;stroke-width:0.018702855px;stroke-linecap:butt;stroke-linejoin:round;stroke-dasharray:none;stroke-opacity:1;"
       d="  M 222.48917 547.76923   L 222.48917 545.89894   L 224.35945 545.89894   L 224.35945 547.76923   L 222.48917 547.76923  z    M 222.48917 544.02866   L 222.48917 542.15837   L 224.35945 542.15837   L 224.35945 544.02866   L 222.48917 544.02866  z    M 222.48917 540.28808   L 222.48917 538.4178   L 224.35945 538.4178   L 224.35945 540.28808   L 222.48917 540.28808  z    M 222.48917 536.54751   L 222.48917 534.67723   L 224.35945 534.67723   L 224.35945 536.54751   L 222.48917 536.54751  z    M 222.48917 532.80694   L 222.48917 530.93666   L 224.35945 530.93666   L 224.35945 532.80694   L 222.48917 532.80694  z    M 222.48917 529.06637   L 222.48917 527.19609   L 224.35945 527.19609   L 224.35945 529.06637   L 222.48917 529.06637  z    M 222.48917 525.3258   L 222.48917 523.45552   L 224.35945 523.45552   L 224.35945 525.3258   L 222.48917 525.3258  z    M 222.48917 521.58523   L 222.48917 519.71494   L 224.35945 519.71494   L 224.35945 521.58523   L 222.48917 521.58523  z    M 222.48917 517.84466   L 222.48917 515.97437   L 224.35945 515.97437   L 224.35945 517.84466   L 222.48917 517.84466  z    M 222.48917 514.10409   L 222.48917 512.2338   L 224.35945 512.2338   L 224.35945 514.10409   L 222.48917 514.10409  z    M 222.48917 510.36352   L 222.48917 508.49323   L 224.35945 508.49323   L 224.35945 510.36352   L 222.48917 510.36352  z    M 222.48917 506.62295   L 222.48917 504.75266   L 224.35945 504.75266   L 224.35945 506.62295   L 222.48917 506.62295  z    M 222.48917 502.88237   L 222.48917 501.01209   L 224.35945 501.01209   L 224.35945 502.88237   L 222.48917 502.88237  z    M 222.48917 499.1418   L 222.48917 497.42114   L 224.52778 497.42114   L 224.52778 499.29143   L 223.42431 499.29143   L 224.35945 498.35628   L 224.35945 499.1418   L 222.48917 499.1418  z    M 226.39806 497.42114   L 228.26835 497.42114   L 228.26835 499.29143   L 226.39806 499.29143   L 226.39806 497.42114  z    M 230.13863 497.42114   L 232.00892 497.42114   L 232.00892 499.29143   L 230.13863 499.29143   L 230.13863 497.42114  z    M 233.87921 497.42114   L 235.74949 497.42114   L 235.74949 499.29143   L 233.87921 499.29143   L 233.87921 497.42114  z    M 237.61978 497.42114   L 239.49006 497.42114   L 239.49006 499.29143   L 237.61978 499.29143   L 237.61978 497.42114  z    M 241.36035 497.42114   L 243.23063 497.42114   L 243.23063 499.29143   L 241.36035 499.29143   L 241.36035 497.42114  z    M 245.10092 497.42114   L 246.9712 497.42114   L 246.9712 499.29143   L 245.10092 499.29143   L 245.10092 497.42114  z    M 248.84149 497.42114   L 250.71178 497.42114   L 250.71178 499.29143   L 248.84149 499.29143   L 248.84149 497.42114  z    M 252.58206 497.42114   L 254.45235 497.42114   L 254.45235 499.29143   L 252.58206 499.29143   L 252.58206 497.42114  z    M 256.32263 497.42114   L 258.19292 497.42114   L 258.19292 499.29143   L 256.32263 499.29143   L 256.32263 497.42114  z    M 260.0632 497.42114   L 261.93349 497.42114   L 261.93349 499.29143   L 260.0632 499.29143   L 260.0632 497.42114  z    M 263.80377 497.42114   L 265.67406 497.42114   L 265.67406 499.29143   L 263.80377 499.29143   L 263.80377 497.42114  z    M 267.54435 497.42114   L 269.41463 497.42114   L 269.41463 499.29143   L 267.54435 499.29143   L 267.54435 497.42114  z    M 271.28492 497.42114   L 273.1552 497.42114   L 273.1552 499.29143   L 271.28492 499.29143   L 271.28492 497.42114  z    M 275.02549 497.42114   L 276.89577 497.42114   L 276.89577 499.29143   L 275.02549 499.29143   L 275.02549 497.42114  z    M 278.76606 497.42114   L 280.63634 497.42114   L 280.63634 499.29143   L 278.76606 499.29143   L 278.76606 497.42114  z    M 282.50663 497.42114   L 284.37692 497.42114   L 284.37692 499.29143   L 282.50663 499.29143   L 282.50663 497.42114  z    M 286.2472 497.42114   L 288.11749 497.42114   L 288.11749 499.29143   L 286.2472 499.29143   L 286.2472 497.42114  z    M 289.98777 497.42114   L 291.85806 497.42114   L 291.85806 499.29143   L 289.98777 499.29143   L 289.98777 497.42114  z    M 293.72834 497.42114   L 295.59863 497.42114   L 295.59863 499.29143   L 293.72834 499.29143   L 293.72834 497.42114  z    M 297.46891 497.42114   L 299.3392 497.42114   L 299.3392 499.29143   L 297.46891 499.29143   L 297.46891 497.42114  z    M 301.20949 497.42114   L 303.07977 497.42114   L 303.07977 499.29143   L 301.20949 499.29143   L 301.20949 497.42114  z    M 304.95006 497.42114   L 306.82034 497.42114   L 306.82034 499.29143   L 304.95006 499.29143   L 304.95006 497.42114  z    M 308.69063 497.42114   L 310.56091 497.42114   L 310.56091 499.29143   L 308.69063 499.29143   L 308.69063 497.42114  z    M 312.4312 497.42114   L 314.30148 497.42114   L 314.30148 499.29143   L 312.4312 499.29143   L 312.4312 497.42114  z    M 316.17177 497.42114   L 318.04205 497.42114   L 318.04205 499.29143   L 316.17177 499.29143   L 316.17177 497.42114  z    M 319.91234 497.42114   L 321.78263 497.42114   L 321.78263 499.29143   L 319.91234 499.29143   L 319.91234 497.42114  z    M 323.65291 497.42114   L 325.5232 497.42114   L 325.5232 499.29143   L 323.65291 499.29143   L 323.65291 497.42114  z    M 327.39348 497.42114   L 329.26377 497.42114   L 329.26377 499.29143   L 327.39348 499.29143   L 327.39348 497.42114  z    M 331.13405 497.42114   L 333.00434 497.42114   L 333.00434 499.29143   L 331.13405 499.29143   L 331.13405 497.42114  z    M 334.87462 497.42114   L 336.74491 497.42114   L 336.74491 499.29143   L 334.87462 499.29143   L 334.87462 497.42114  z    M 338.6152 497.42114   L 340.48548 497.42114   L 340.48548 499.29143   L 338.6152 499.29143   L 338.6152 497.42114  z    M 342.35577 497.42114   L 344.22605 497.42114   L 344.22605 499.29143   L 342.35577 499.29143   L 342.35577 497.42114  z    M 346.09634 497.42114   L 347.96662 497.42114   L 347.96662 499.29143   L 346.09634 499.29143   L 346.09634 497.42114  z    M 349.83691 497.42114   L 351.70719 497.42114   L 351.70719 499.29143   L 349.83691 499.29143   L 349.83691 497.42114  z    M 353.57748 497.42114   L 355.44777 497.42114   L 355.44777 499.29143   L 353.57748 499.29143   L 353.57748 497.42114  z    M 357.31805 497.42114   L 359.18834 497.42114   L 359.18834 499.29143   L 357.31805 499.29143   L 357.31805 497.42114  z    M 361.05862 497.42114   L 362.92891 497.42114   L 362.92891 499.29143   L 361.05862 499.29143   L 361.05862 497.42114  z    M 365.73434 498.35628   L 365.73434 500.22657   L 363.86405 500.22657   L 363.86405 498.35628   L 365.73434 498.35628  z    M 365.73434 502.09685   L 365.73434 503.96714   L 363.86405 503.96714   L 363.86405 502.09685   L 365.73434 502.09685  z    M 365.73434 505.83743   L 365.73434 507.70771   L 363.86405 507.70771   L 363.86405 505.83743   L 365.73434 505.83743  z    M 365.73434 509.578   L 365.73434 511.44828   L 363.86405 511.44828   L 363.86405 509.578   L 365.73434 509.578  z    M 365.73434 513.31857   L 365.73434 515.18885   L 363.86405 515.18885   L 363.86405 513.31857   L 365.73434 513.31857  z    M 365.73434 517.05914   L 365.73434 518.92942   L 363.86405 518.92942   L 363.86405 517.05914   L 365.73434 517.05914  z    M 365.73434 520.79971   L 365.73434 522.67   L 363.86405 522.67   L 363.86405 520.79971   L 365.73434 520.79971  z    M 365.73434 524.54028   L 365.73434 526.41057   L 363.86405 526.41057   L 363.86405 524.54028   L 365.73434 524.54028  z    M 365.73434 528.28085   L 365.73434 530.15114   L 363.86405 530.15114   L 363.86405 528.28085   L 365.73434 528.28085  z    M 365.73434 532.02142   L 365.73434 533.89171   L 363.86405 533.89171   L 363.86405 532.02142   L 365.73434 532.02142  z    M 365.73434 535.76199   L 365.73434 537.63228   L 363.86405 537.63228   L 363.86405 535.76199   L 365.73434 535.76199  z    M 365.73434 539.50256   L 365.73434 541.37285   L 363.86405 541.37285   L 363.86405 539.50256   L 365.73434 539.50256  z    M 365.73434 543.24314   L 365.73434 545.11342   L 363.86405 545.11342   L 363.86405 543.24314   L 365.73434 543.24314  z    M 365.73434 546.98371   L 365.73434 548.70437   L 363.69572 548.70437   L 363.69572 546.83408   L 364.79919 546.83408   L 363.86405 547.76923   L 363.86405 546.98371   L 365.73434 546.98371  z    M 361.82544 548.70437   L 359.95515 548.70437   L 359.95515 546.83408   L 361.82544 546.83408   L 361.82544 548.70437  z    M 358.08487 548.70437   L 356.21458 548.70437   L 356.21458 546.83408   L 358.08487 546.83408   L 358.08487 548.70437  z    M 354.3443 548.70437   L 352.47401 548.70437   L 352.47401 546.83408   L 354.3443 546.83408   L 354.3443 548.70437  z    M 350.60373 548.70437   L 348.73344 548.70437   L 348.73344 546.83408   L 350.60373 546.83408   L 350.60373 548.70437  z    M 346.86316 548.70437   L 344.99287 548.70437   L 344.99287 546.83408   L 346.86316 546.83408   L 346.86316 548.70437  z    M 343.12258 548.70437   L 341.2523 548.70437   L 341.2523 546.83408   L 343.12258 546.83408   L 343.12258 548.70437  z    M 339.38201 548.70437   L 337.51173 548.70437   L 337.51173 546.83408   L 339.38201 546.83408   L 339.38201 548.70437  z    M 335.64144 548.70437   L 333.77116 548.70437   L 333.77116 546.83408   L 335.64144 546.83408   L 335.64144 548.70437  z    M 331.90087 548.70437   L 330.03059 548.70437   L 330.03059 546.83408   L 331.90087 546.83408   L 331.90087 548.70437  z    M 328.1603 548.70437   L 326.29001 548.70437   L 326.29001 546.83408   L 328.1603 546.83408   L 328.1603 548.70437  z    M 324.41973 548.70437   L 322.54944 548.70437   L 322.54944 546.83408   L 324.41973 546.83408   L 324.41973 548.70437  z    M 320.67916 548.70437   L 318.80887 548.70437   L 318.80887 546.83408   L 320.67916 546.83408   L 320.67916 548.70437  z    M 316.93859 548.70437   L 315.0683 548.70437   L 315.0683 546.83408   L 316.93859 546.83408   L 316.93859 548.70437  z    M 313.19802 548.70437   L 311.32773 548.70437   L 311.32773 546.83408   L 313.19802 546.83408   L 313.19802 548.70437  z    M 309.45744 548.70437   L 307.58716 548.70437   L 307.58716 546.83408   L 309.45744 546.83408   L 309.45744 548.70437  z    M 305.71687 548.70437   L 303.84659 548.70437   L 303.84659 546.83408   L 305.71687 546.83408   L 305.71687 548.70437  z    M 301.9763 548.70437   L 300.10602 548.70437   L 300.10602 546.83408   L 301.9763 546.83408   L 301.9763 548.70437  z    M 298.23573 548.70437   L 296.36545 548.70437   L 296.36545 546.83408   L 298.23573 546.83408   L 298.23573 548.70437  z    M 294.49516 548.70437   L 292.62487 548.70437   L 292.62487 546.83408   L 294.49516 546.83408   L 294.49516 548.70437  z    M 290.75459 548.70437   L 288.8843 548.70437   L 288.8843 546.83408   L 290.75459 546.83408   L 290.75459 548.70437  z    M 287.01402 548.70437   L 285.14373 548.70437   L 285.14373 546.83408   L 287.01402 546.83408   L 287.01402 548.70437  z    M 283.27345 548.70437   L 281.40316 548.70437   L 281.40316 546.83408   L 283.27345 546.83408   L 283.27345 548.70437  z    M 279.53288 548.70437   L 277.66259 548.70437   L 277.66259 546.83408   L 279.53288 546.83408   L 279.53288 548.70437  z    M 275.7923 548.70437   L 273.92202 548.70437   L 273.92202 546.83408   L 275.7923 546.83408   L 275.7923 548.70437  z    M 272.05173 548.70437   L 270.18145 548.70437   L 270.18145 546.83408   L 272.05173 546.83408   L 272.05173 548.70437  z    M 268.31116 548.70437   L 266.44088 548.70437   L 266.44088 546.83408   L 268.31116 546.83408   L 268.31116 548.70437  z    M 264.57059 548.70437   L 262.70031 548.70437   L 262.70031 546.83408   L 264.57059 546.83408   L 264.57059 548.70437  z    M 260.83002 548.70437   L 258.95973 548.70437   L 258.95973 546.83408   L 260.83002 546.83408   L 260.83002 548.70437  z    M 257.08945 548.70437   L 255.21916 548.70437   L 255.21916 546.83408   L 257.08945 546.83408   L 257.08945 548.70437  z    M 253.34888 548.70437   L 251.47859 548.70437   L 251.47859 546.83408   L 253.34888 546.83408   L 253.34888 548.70437  z    M 249.60831 548.70437   L 247.73802 548.70437   L 247.73802 546.83408   L 249.60831 546.83408   L 249.60831 548.70437  z    M 245.86774 548.70437   L 243.99745 548.70437   L 243.99745 546.83408   L 245.86774 546.83408   L 245.86774 548.70437  z    M 242.12717 548.70437   L 240.25688 548.70437   L 240.25688 546.83408   L 242.12717 546.83408   L 242.12717 548.70437  z    M 238.38659 548.70437   L 236.51631 548.70437   L 236.51631 546.83408   L 238.38659 546.83408   L 238.38659 548.70437  z    M 234.64602 548.70437   L 232.77574 548.70437   L 232.77574 546.83408   L 234.64602 546.83408   L 234.64602 548.70437  z    M 230.90545 548.70437   L 229.03517 548.70437   L 229.03517 546.83408   L 230.90545 546.83408   L 230.90545 548.70437  z    M 227.16488 548.70437   L 225.2946 548.70437   L 225.2946 546.83408   L 227.16488 546.83408   L 227.16488 548.70437  z   "
       id="path3015"
       inkscape:export-filename="/home/johan/jpylyzer/doc/images/boxStructure.png"
       inkscape:export-xdpi="98.019997"
       inkscape:export-ydpi="98.019997" />
    <text
       xml:space="preserve"
       x="261.25085"
       y="531.51337"
       style="font-style:normal;font-weight:normal;font-size:22.44342613px;line-height:0%;font-family:Arial;text-align:start;text-anchor:start;fill:#000000"
       id="text3017"
       inkscape:export-filename="/home/johan/jpylyzer/doc/images/boxStructure.png"
       inkscape:export-xdpi="98.019997"
       inkscape:export-ydpi="98.019997">XLBox</text>
    <path
       style="fill:#c0c0c0;fill-rule:evenodd;fill-opacity:1;stroke:none;"
       d="  M 364.79919 498.35628   L 364.79919 547.76923   L 569.8947 547.76923   L 569.8947 498.35628   L 364.79919 498.35628  z "
       id="path3019"
       inkscape:export-filename="/home/johan/jpylyzer/doc/images/boxStructure.png"
       inkscape:export-xdpi="98.019997"
       inkscape:export-ydpi="98.019997" />
    <path
       style="fill:none;stroke:#000000;stroke-width:1.8702855px;stroke-linecap:butt;stroke-linejoin:miter;stroke-miterlimit:4;stroke-dasharray:none;stroke-opacity:1;"
       d="  M 364.79919 498.35628   L 569.8947 498.35628   L 569.8947 547.76923   L 364.79919 547.76923  z "
       id="path3021"
       inkscape:export-filename="/home/johan/jpylyzer/doc/images/boxStructure.png"
       inkscape:export-xdpi="98.019997"
       inkscape:export-ydpi="98.019997" />
    <text
       xml:space="preserve"
       x="440.03461"
       y="531.51337"
       style="font-style:normal;font-weight:normal;font-size:22.44342613px;line-height:0%;font-family:Arial;text-align:start;text-anchor:start;fill:#000000"
       id="text3023"
       inkscape:export-filename="/home/johan/jpylyzer/doc/images/boxStructure.png"
       inkscape:export-xdpi="98.019997"
       inkscape:export-ydpi="98.019997">DBox</text>
    <path
       style="fill:none;stroke:#000000;stroke-width:1.8702855px;stroke-linecap:butt;stroke-linejoin:miter;stroke-miterlimit:4;stroke-dasharray:none;stroke-opacity:1;"
       d="  M 159.8346 575.97313   L 513.31857 575.97313   L 513.31857 670.42255   L 159.8346 670.42255  z "
       id="path3025"
       inkscape:export-filename="/home/johan/jpylyzer/doc/images/boxStructure.png"
       inkscape:export-xdpi="98.019997"
       inkscape:export-ydpi="98.019997" />
    <text
       xml:space="preserve"
       x="168.88678"
       y="597.44403"
       style="font-style:normal;font-weight:bold;font-size:17.50587273px;line-height:0%;font-family:Arial;text-align:start;text-anchor:start;fill:#000000"
       id="text3027"
       inkscape:export-filename="/home/johan/jpylyzer/doc/images/boxStructure.png"
       inkscape:export-xdpi="98.019997"
       inkscape:export-ydpi="98.019997">LBox</text>
    <text
       xml:space="preserve"
       x="212.42703"
       y="597.44403"
       style="font-style:normal;font-weight:normal;font-size:17.50587273px;line-height:0%;font-family:Arial;text-align:start;text-anchor:start;fill:#000000"
       id="text3029"
       inkscape:export-filename="/home/johan/jpylyzer/doc/images/boxStructure.png"
       inkscape:export-xdpi="98.019997"
       inkscape:export-ydpi="98.019997">: Box length</text>
    <text
       xml:space="preserve"
       x="168.88678"
       y="618.39124"
       style="font-style:normal;font-weight:bold;font-size:17.50587273px;line-height:0%;font-family:Arial;text-align:start;text-anchor:start;fill:#000000"
       id="text3031"
       inkscape:export-filename="/home/johan/jpylyzer/doc/images/boxStructure.png"
       inkscape:export-xdpi="98.019997"
       inkscape:export-ydpi="98.019997">TBox</text>
    <text
       xml:space="preserve"
       x="212.42703"
       y="618.39124"
       style="font-style:normal;font-weight:normal;font-size:17.50587273px;line-height:0%;font-family:Arial;text-align:start;text-anchor:start;fill:#000000"
       id="text3033"
       inkscape:export-filename="/home/johan/jpylyzer/doc/images/boxStructure.png"
       inkscape:export-xdpi="98.019997"
       inkscape:export-ydpi="98.019997">: Box type</text>
    <text
       xml:space="preserve"
       x="168.88678"
       y="639.33844"
       style="font-style:normal;font-weight:bold;font-size:17.50587273px;line-height:0%;font-family:Arial;text-align:start;text-anchor:start;fill:#000000"
       id="text3035"
       inkscape:export-filename="/home/johan/jpylyzer/doc/images/boxStructure.png"
       inkscape:export-xdpi="98.019997"
       inkscape:export-ydpi="98.019997">XLBox</text>
    <text
       xml:space="preserve"
       x="224.09761"
       y="639.33844"
       style="font-style:normal;font-weight:normal;font-size:17.50587273px;line-height:0%;font-family:Arial;text-align:start;text-anchor:start;fill:#000000"
       id="text3037"
       inkscape:export-filename="/home/johan/jpylyzer/doc/images/boxStructure.png"
       inkscape:export-xdpi="98.019997"
       inkscape:export-ydpi="98.019997">: Box extended length</text>
    <text
       xml:space="preserve"
       x="168.88678"
       y="660.28558"
       style="font-style:normal;font-weight:bold;font-size:17.50587273px;line-height:0%;font-family:Arial;text-align:start;text-anchor:start;fill:#000000"
       id="text3039"
       inkscape:export-filename="/home/johan/jpylyzer/doc/images/boxStructure.png"
       inkscape:export-xdpi="98.019997"
       inkscape:export-ydpi="98.019997">DBox</text>
    <text
       xml:space="preserve"
       x="214.37213"
       y="660.28558"
       style="font-style:normal;font-weight:normal;font-size:17.50587273px;line-height:0%;font-family:Arial;text-align:start;text-anchor:start;fill:#000000"
       id="text3041"
       inkscape:export-filename="/home/johan/jpylyzer/doc/images/boxStructure.png"
       inkscape:export-xdpi="98.019997"
       inkscape:export-ydpi="98.019997">: Box content (variable length)</text>
  </g>
</svg>
