<?xml version="1.0" encoding="UTF-8" standalone="no"?>
<svg
   xmlns:dc="http://purl.org/dc/elements/1.1/"
   xmlns:cc="http://creativecommons.org/ns#"
   xmlns:rdf="http://www.w3.org/1999/02/22-rdf-syntax-ns#"
   xmlns:svg="http://www.w3.org/2000/svg"
   xmlns="http://www.w3.org/2000/svg"
   xmlns:sodipodi="http://sodipodi.sourceforge.net/DTD/sodipodi-0.dtd"
   xmlns:inkscape="http://www.inkscape.org/namespaces/inkscape"
   version="1.0"
   width="189.98mm"
   height="253.55mm"
   id="svg3047"
   inkscape:version="0.92.3 (2405546, 2018-03-11)"
   sodipodi:docname="codestreamOutput.svg">
  <metadata
     id="metadata3141">
    <rdf:RDF>
      <cc:Work
         rdf:about="">
        <dc:format>image/svg+xml</dc:format>
        <dc:type
           rdf:resource="http://purl.org/dc/dcmitype/StillImage" />
        <dc:title></dc:title>
      </cc:Work>
    </rdf:RDF>
  </metadata>
  <sodipodi:namedview
     pagecolor="#ffffff"
     bordercolor="#666666"
     borderopacity="1"
     objecttolerance="10"
     gridtolerance="10"
     guidetolerance="10"
     inkscape:pageopacity="1"
     inkscape:pageshadow="2"
     inkscape:window-width="1872"
     inkscape:window-height="1029"
     id="namedview3139"
     showgrid="false"
     inkscape:zoom="0.74299277"
     inkscape:cx="82.202106"
     inkscape:cy="449.20276"
     inkscape:window-x="48"
     inkscape:window-y="0"
     inkscape:window-maximized="1"
     inkscape:current-layer="g3051" />
  <defs
     id="defs3049" />
  <g
     id="g3051">
    <path
       style="fill:none;stroke:#000000;stroke-width:1.8702855px;stroke-linecap:butt;stroke-linejoin:miter;stroke-miterlimit:4;stroke-dasharray:none;stroke-opacity:1;"
       d="  M 371.96239 144.87232   L 460.33338 144.87232   L 460.33338 180.25812   L 371.96239 180.25812  z "
       id="path3055"
       inkscape:export-filename="/home/johan/jpylyzer/doc/images/codestreamOutput.png"
       inkscape:export-xdpi="92.07"
       inkscape:export-ydpi="92.07" />
    <text
       xml:space="preserve"
       x="402.45117"
       y="171.01581"
       style="font-style:normal;font-weight:normal;font-size:22.44342613px;line-height:0%;font-family:Arial;text-align:start;text-anchor:start;fill:#000000"
       id="text3057"
       inkscape:export-filename="/home/johan/jpylyzer/doc/images/codestreamOutput.png"
       inkscape:export-xdpi="92.07"
       inkscape:export-ydpi="92.07">siz</text>
    <path
       style="fill:#000000;fill-rule:nonzero;fill-opacity:1;stroke:#000000;stroke-width:0.018702855px;stroke-linecap:butt;stroke-linejoin:round;stroke-dasharray:none;stroke-opacity:1;"
       d="  M 371.02724 312.73044   L 371.02724 310.86016   L 372.89753 310.86016   L 372.89753 312.73044   L 371.02724 312.73044  z    M 371.02724 308.98987   L 371.02724 307.11959   L 372.89753 307.11959   L 372.89753 308.98987   L 371.02724 308.98987  z    M 371.02724 305.2493   L 371.02724 303.37902   L 372.89753 303.37902   L 372.89753 305.2493   L 371.02724 305.2493  z    M 371.02724 301.50873   L 371.02724 299.63845   L 372.89753 299.63845   L 372.89753 301.50873   L 371.02724 301.50873  z    M 371.02724 297.76816   L 371.02724 295.89787   L 372.89753 295.89787   L 372.89753 297.76816   L 371.02724 297.76816  z    M 371.02724 294.02759   L 371.02724 292.1573   L 372.89753 292.1573   L 372.89753 294.02759   L 371.02724 294.02759  z    M 371.02724 290.28702   L 371.02724 288.41673   L 372.89753 288.41673   L 372.89753 290.28702   L 371.02724 290.28702  z    M 371.02724 286.54645   L 371.02724 284.67616   L 372.89753 284.67616   L 372.89753 286.54645   L 371.02724 286.54645  z    M 371.02724 282.80588   L 371.02724 280.93559   L 372.89753 280.93559   L 372.89753 282.80588   L 371.02724 282.80588  z    M 371.02724 279.0653   L 371.02724 276.4282   L 372.11201 276.4282   L 372.11201 278.29849   L 371.96239 278.29849   L 372.89753 277.36334   L 372.89753 279.0653   L 371.02724 279.0653  z    M 373.9823 276.4282   L 375.85258 276.4282   L 375.85258 278.29849   L 373.9823 278.29849   L 373.9823 276.4282  z    M 377.72287 276.4282   L 379.59315 276.4282   L 379.59315 278.29849   L 377.72287 278.29849   L 377.72287 276.4282  z    M 381.46344 276.4282   L 383.33372 276.4282   L 383.33372 278.29849   L 381.46344 278.29849   L 381.46344 276.4282  z    M 385.20401 276.4282   L 387.07429 276.4282   L 387.07429 278.29849   L 385.20401 278.29849   L 385.20401 276.4282  z    M 388.94458 276.4282   L 390.81487 276.4282   L 390.81487 278.29849   L 388.94458 278.29849   L 388.94458 276.4282  z    M 392.68515 276.4282   L 394.55544 276.4282   L 394.55544 278.29849   L 392.68515 278.29849   L 392.68515 276.4282  z    M 396.42572 276.4282   L 398.29601 276.4282   L 398.29601 278.29849   L 396.42572 278.29849   L 396.42572 276.4282  z    M 400.16629 276.4282   L 402.03658 276.4282   L 402.03658 278.29849   L 400.16629 278.29849   L 400.16629 276.4282  z    M 403.90686 276.4282   L 405.77715 276.4282   L 405.77715 278.29849   L 403.90686 278.29849   L 403.90686 276.4282  z    M 407.64743 276.4282   L 409.51772 276.4282   L 409.51772 278.29849   L 407.64743 278.29849   L 407.64743 276.4282  z    M 411.38801 276.4282   L 413.25829 276.4282   L 413.25829 278.29849   L 411.38801 278.29849   L 411.38801 276.4282  z    M 415.12858 276.4282   L 416.99886 276.4282   L 416.99886 278.29849   L 415.12858 278.29849   L 415.12858 276.4282  z    M 418.86915 276.4282   L 420.73943 276.4282   L 420.73943 278.29849   L 418.86915 278.29849   L 418.86915 276.4282  z    M 422.60972 276.4282   L 424.48 276.4282   L 424.48 278.29849   L 422.60972 278.29849   L 422.60972 276.4282  z    M 426.35029 276.4282   L 428.22058 276.4282   L 428.22058 278.29849   L 426.35029 278.29849   L 426.35029 276.4282  z    M 430.09086 276.4282   L 431.96115 276.4282   L 431.96115 278.29849   L 430.09086 278.29849   L 430.09086 276.4282  z    M 433.83143 276.4282   L 435.70172 276.4282   L 435.70172 278.29849   L 433.83143 278.29849   L 433.83143 276.4282  z    M 437.572 276.4282   L 439.44229 276.4282   L 439.44229 278.29849   L 437.572 278.29849   L 437.572 276.4282  z    M 441.31257 276.4282   L 443.18286 276.4282   L 443.18286 278.29849   L 441.31257 278.29849   L 441.31257 276.4282  z    M 445.05315 276.4282   L 446.92343 276.4282   L 446.92343 278.29849   L 445.05315 278.29849   L 445.05315 276.4282  z    M 448.79372 276.4282   L 450.664 276.4282   L 450.664 278.29849   L 448.79372 278.29849   L 448.79372 276.4282  z    M 452.53429 276.4282   L 454.40457 276.4282   L 454.40457 278.29849   L 452.53429 278.29849   L 452.53429 276.4282  z    M 456.27486 276.4282   L 458.14514 276.4282   L 458.14514 278.29849   L 456.27486 278.29849   L 456.27486 276.4282  z    M 460.01543 276.4282   L 461.26852 276.4282   L 461.26852 278.91568   L 459.39824 278.91568   L 459.39824 277.36334   L 460.33338 278.29849   L 460.01543 278.29849   L 460.01543 276.4282  z    M 461.26852 280.78597   L 461.26852 282.65625   L 459.39824 282.65625   L 459.39824 280.78597   L 461.26852 280.78597  z    M 461.26852 284.52654   L 461.26852 286.39682   L 459.39824 286.39682   L 459.39824 284.52654   L 461.26852 284.52654  z    M 461.26852 288.26711   L 461.26852 290.13739   L 459.39824 290.13739   L 459.39824 288.26711   L 461.26852 288.26711  z    M 461.26852 292.00768   L 461.26852 293.87797   L 459.39824 293.87797   L 459.39824 292.00768   L 461.26852 292.00768  z    M 461.26852 295.74825   L 461.26852 297.61854   L 459.39824 297.61854   L 459.39824 295.74825   L 461.26852 295.74825  z    M 461.26852 299.48882   L 461.26852 301.35911   L 459.39824 301.35911   L 459.39824 299.48882   L 461.26852 299.48882  z    M 461.26852 303.22939   L 461.26852 305.09968   L 459.39824 305.09968   L 459.39824 303.22939   L 461.26852 303.22939  z    M 461.26852 306.96996   L 461.26852 308.84025   L 459.39824 308.84025   L 459.39824 306.96996   L 461.26852 306.96996  z    M 461.26852 310.71054   L 461.26852 312.58082   L 459.39824 312.58082   L 459.39824 310.71054   L 461.26852 310.71054  z    M 458.61272 313.66559   L 456.74243 313.66559   L 456.74243 311.7953   L 458.61272 311.7953   L 458.61272 313.66559  z    M 454.87214 313.66559   L 453.00186 313.66559   L 453.00186 311.7953   L 454.87214 311.7953   L 454.87214 313.66559  z    M 451.13157 313.66559   L 449.26129 313.66559   L 449.26129 311.7953   L 451.13157 311.7953   L 451.13157 313.66559  z    M 447.391 313.66559   L 445.52072 313.66559   L 445.52072 311.7953   L 447.391 311.7953   L 447.391 313.66559  z    M 443.65043 313.66559   L 441.78015 313.66559   L 441.78015 311.7953   L 443.65043 311.7953   L 443.65043 313.66559  z    M 439.90986 313.66559   L 438.03957 313.66559   L 438.03957 311.7953   L 439.90986 311.7953   L 439.90986 313.66559  z    M 436.16929 313.66559   L 434.299 313.66559   L 434.299 311.7953   L 436.16929 311.7953   L 436.16929 313.66559  z    M 432.42872 313.66559   L 430.55843 313.66559   L 430.55843 311.7953   L 432.42872 311.7953   L 432.42872 313.66559  z    M 428.68815 313.66559   L 426.81786 313.66559   L 426.81786 311.7953   L 428.68815 311.7953   L 428.68815 313.66559  z    M 424.94758 313.66559   L 423.07729 313.66559   L 423.07729 311.7953   L 424.94758 311.7953   L 424.94758 313.66559  z    M 421.207 313.66559   L 419.33672 313.66559   L 419.33672 311.7953   L 421.207 311.7953   L 421.207 313.66559  z    M 417.46643 313.66559   L 415.59615 313.66559   L 415.59615 311.7953   L 417.46643 311.7953   L 417.46643 313.66559  z    M 413.72586 313.66559   L 411.85558 313.66559   L 411.85558 311.7953   L 413.72586 311.7953   L 413.72586 313.66559  z    M 409.98529 313.66559   L 408.11501 313.66559   L 408.11501 311.7953   L 409.98529 311.7953   L 409.98529 313.66559  z    M 406.24472 313.66559   L 404.37444 313.66559   L 404.37444 311.7953   L 406.24472 311.7953   L 406.24472 313.66559  z    M 402.50415 313.66559   L 400.63386 313.66559   L 400.63386 311.7953   L 402.50415 311.7953   L 402.50415 313.66559  z    M 398.76358 313.66559   L 396.89329 313.66559   L 396.89329 311.7953   L 398.76358 311.7953   L 398.76358 313.66559  z    M 395.02301 313.66559   L 393.15272 313.66559   L 393.15272 311.7953   L 395.02301 311.7953   L 395.02301 313.66559  z    M 391.28244 313.66559   L 389.41215 313.66559   L 389.41215 311.7953   L 391.28244 311.7953   L 391.28244 313.66559  z    M 387.54187 313.66559   L 385.67158 313.66559   L 385.67158 311.7953   L 387.54187 311.7953   L 387.54187 313.66559  z    M 383.80129 313.66559   L 381.93101 313.66559   L 381.93101 311.7953   L 383.80129 311.7953   L 383.80129 313.66559  z    M 380.06072 313.66559   L 378.19044 313.66559   L 378.19044 311.7953   L 380.06072 311.7953   L 380.06072 313.66559  z    M 376.32015 313.66559   L 374.44987 313.66559   L 374.44987 311.7953   L 376.32015 311.7953   L 376.32015 313.66559  z    M 372.57958 313.66559   L 371.96239 313.66559   L 371.96239 311.7953   L 372.57958 311.7953   L 372.57958 313.66559  z   "
       id="path3059"
       inkscape:export-filename="/home/johan/jpylyzer/doc/images/codestreamOutput.png"
       inkscape:export-xdpi="92.07"
       inkscape:export-ydpi="92.07" />
    <text
       xml:space="preserve"
       x="394.97003"
       y="303.49438"
       style="font-style:normal;font-weight:normal;font-size:22.44342613px;line-height:0%;font-family:Arial;text-align:start;text-anchor:start;fill:#000000"
       id="text3061"
       inkscape:export-filename="/home/johan/jpylyzer/doc/images/codestreamOutput.png"
       inkscape:export-xdpi="92.07"
       inkscape:export-ydpi="92.07">com</text>
    <path
       style="fill:none;stroke:#000000;stroke-width:1.8702855px;stroke-linecap:butt;stroke-linejoin:miter;stroke-miterlimit:4;stroke-dasharray:none;stroke-opacity:1;"
       d="  M 371.96239 233.24331   L 460.33338 233.24331   L 460.33338 268.62911   L 371.96239 268.62911  z "
       id="path3063"
       inkscape:export-filename="/home/johan/jpylyzer/doc/images/codestreamOutput.png"
       inkscape:export-xdpi="92.07"
       inkscape:export-ydpi="92.07" />
    <text
       xml:space="preserve"
       x="398.11212"
       y="259.38684"
       style="font-style:normal;font-weight:normal;font-size:22.44342613px;line-height:0%;font-family:Arial;text-align:start;text-anchor:start;fill:#000000"
       id="text3065"
       inkscape:export-filename="/home/johan/jpylyzer/doc/images/codestreamOutput.png"
       inkscape:export-xdpi="92.07"
       inkscape:export-ydpi="92.07">qcd</text>
    <path
       style="fill:none;stroke:#000000;stroke-width:1.8702855px;stroke-linecap:butt;stroke-linejoin:miter;stroke-miterlimit:4;stroke-dasharray:none;stroke-opacity:1;"
       d="  M 371.96239 188.99235   L 460.33338 188.99235   L 460.33338 224.35945   L 371.96239 224.35945  z "
       id="path3067"
       inkscape:export-filename="/home/johan/jpylyzer/doc/images/codestreamOutput.png"
       inkscape:export-xdpi="92.07"
       inkscape:export-ydpi="92.07" />
    <text
       xml:space="preserve"
       x="398.11212"
       y="215.12344"
       style="font-style:normal;font-weight:normal;font-size:22.44342613px;line-height:0%;font-family:Arial;text-align:start;text-anchor:start;fill:#000000"
       id="text3069"
       inkscape:export-filename="/home/johan/jpylyzer/doc/images/codestreamOutput.png"
       inkscape:export-xdpi="92.07"
       inkscape:export-ydpi="92.07">cod</text>
    <path
       style="fill:none;stroke:#000000;stroke-width:1.8702855px;stroke-linecap:butt;stroke-linejoin:miter;stroke-miterlimit:4;stroke-dasharray:none;stroke-opacity:1;"
       d="  M 371.96239 321.6143   L 460.33338 321.6143   L 460.33338 357.0001   L 371.96239 357.0001  z "
       id="path3071"
       inkscape:export-filename="/home/johan/jpylyzer/doc/images/codestreamOutput.png"
       inkscape:export-xdpi="92.07"
       inkscape:export-ydpi="92.07" />
    <text
       xml:space="preserve"
       x="375.81833"
       y="347.75778"
       style="font-style:normal;font-weight:normal;font-size:22.44342613px;line-height:0%;font-family:Arial;text-align:start;text-anchor:start;fill:#000000"
       id="text3073"
       inkscape:export-filename="/home/johan/jpylyzer/doc/images/codestreamOutput.png"
       inkscape:export-xdpi="92.07"
       inkscape:export-ydpi="92.07">tileParts</text>
    <path
       style="fill:none;stroke:#000000;stroke-width:1.8702855px;stroke-linecap:butt;stroke-linejoin:miter;stroke-miterlimit:4;stroke-dasharray:none;stroke-opacity:1;"
       d="  M 442.71529 364.01367   L 531.08628 364.01367   L 531.08628 399.39948   L 442.71529 399.39948  z "
       id="path3075"
       inkscape:export-filename="/home/johan/jpylyzer/doc/images/codestreamOutput.png"
       inkscape:export-xdpi="92.07"
       inkscape:export-ydpi="92.07" />
    <text
       xml:space="preserve"
       x="452.11349"
       y="390.15094"
       style="font-style:normal;font-weight:normal;font-size:22.44342613px;line-height:0%;font-family:Arial;text-align:start;text-anchor:start;fill:#000000"
       id="text3077"
       inkscape:export-filename="/home/johan/jpylyzer/doc/images/codestreamOutput.png"
       inkscape:export-xdpi="92.07"
       inkscape:export-ydpi="92.07">tilePart</text>
    <path
       style="fill:none;stroke:#000000;stroke-width:1.8702855px;stroke-linecap:butt;stroke-linejoin:miter;stroke-miterlimit:4;stroke-dasharray:none;stroke-opacity:1;"
       d="  M 520.35084 406.41305   L 608.70313 406.41305   L 608.70313 441.79885   L 520.35084 441.79885  z "
       id="path3079"
       inkscape:export-filename="/home/johan/jpylyzer/doc/images/codestreamOutput.png"
       inkscape:export-xdpi="92.07"
       inkscape:export-ydpi="92.07" />
    <text
       xml:space="preserve"
       x="549.63019"
       y="432.54407"
       style="font-style:normal;font-weight:normal;font-size:22.44342613px;line-height:0%;font-family:Arial;text-align:start;text-anchor:start;fill:#000000"
       id="text3081"
       inkscape:export-filename="/home/johan/jpylyzer/doc/images/codestreamOutput.png"
       inkscape:export-xdpi="92.07"
       inkscape:export-ydpi="92.07">sot</text>
    <path
       style="fill:#000000;fill-rule:nonzero;fill-opacity:1;stroke:#000000;stroke-width:0.037405711px;stroke-linecap:butt;stroke-linejoin:round;stroke-dasharray:none;stroke-opacity:1;"
       d="  M 519.4157 576.16016   L 519.4157 574.28988   L 521.28598 574.28988   L 521.28598 576.16016   L 519.4157 576.16016  z    M 519.4157 572.41959   L 519.4157 570.5493   L 521.28598 570.5493   L 521.28598 572.41959   L 519.4157 572.41959  z    M 519.4157 568.67902   L 519.4157 566.80873   L 521.28598 566.80873   L 521.28598 568.67902   L 519.4157 568.67902  z    M 519.4157 564.93845   L 519.4157 563.06816   L 521.28598 563.06816   L 521.28598 564.93845   L 519.4157 564.93845  z    M 519.4157 561.19788   L 519.4157 559.32759   L 521.28598 559.32759   L 521.28598 561.19788   L 519.4157 561.19788  z    M 519.4157 557.45731   L 519.4157 555.58702   L 521.28598 555.58702   L 521.28598 557.45731   L 519.4157 557.45731  z    M 519.4157 553.71674   L 519.4157 551.84645   L 521.28598 551.84645   L 521.28598 553.71674   L 519.4157 553.71674  z    M 519.4157 549.97616   L 519.4157 548.10588   L 521.28598 548.10588   L 521.28598 549.97616   L 519.4157 549.97616  z    M 519.4157 546.23559   L 519.4157 544.36531   L 521.28598 544.36531   L 521.28598 546.23559   L 519.4157 546.23559  z    M 519.4157 542.49502   L 519.4157 539.83922   L 520.50046 539.83922   L 520.50046 541.7095   L 520.35084 541.7095   L 521.28598 540.77436   L 521.28598 542.49502   L 519.4157 542.49502  z    M 522.37075 539.83922   L 524.24104 539.83922   L 524.24104 541.7095   L 522.37075 541.7095   L 522.37075 539.83922  z    M 526.11132 539.83922   L 527.98161 539.83922   L 527.98161 541.7095   L 526.11132 541.7095   L 526.11132 539.83922  z    M 529.85189 539.83922   L 531.72218 539.83922   L 531.72218 541.7095   L 529.85189 541.7095   L 529.85189 539.83922  z    M 533.59246 539.83922   L 535.46275 539.83922   L 535.46275 541.7095   L 533.59246 541.7095   L 533.59246 539.83922  z    M 537.33303 539.83922   L 539.20332 539.83922   L 539.20332 541.7095   L 537.33303 541.7095   L 537.33303 539.83922  z    M 541.0736 539.83922   L 542.94389 539.83922   L 542.94389 541.7095   L 541.0736 541.7095   L 541.0736 539.83922  z    M 544.81418 539.83922   L 546.68446 539.83922   L 546.68446 541.7095   L 544.81418 541.7095   L 544.81418 539.83922  z    M 548.55475 539.83922   L 550.42503 539.83922   L 550.42503 541.7095   L 548.55475 541.7095   L 548.55475 539.83922  z    M 552.29532 539.83922   L 554.1656 539.83922   L 554.1656 541.7095   L 552.29532 541.7095   L 552.29532 539.83922  z    M 556.03589 539.83922   L 557.90617 539.83922   L 557.90617 541.7095   L 556.03589 541.7095   L 556.03589 539.83922  z    M 559.77646 539.83922   L 561.64675 539.83922   L 561.64675 541.7095   L 559.77646 541.7095   L 559.77646 539.83922  z    M 563.51703 539.83922   L 565.38732 539.83922   L 565.38732 541.7095   L 563.51703 541.7095   L 563.51703 539.83922  z    M 567.2576 539.83922   L 569.12789 539.83922   L 569.12789 541.7095   L 567.2576 541.7095   L 567.2576 539.83922  z    M 570.99817 539.83922   L 572.86846 539.83922   L 572.86846 541.7095   L 570.99817 541.7095   L 570.99817 539.83922  z    M 574.73874 539.83922   L 576.60903 539.83922   L 576.60903 541.7095   L 574.73874 541.7095   L 574.73874 539.83922  z    M 578.47932 539.83922   L 580.3496 539.83922   L 580.3496 541.7095   L 578.47932 541.7095   L 578.47932 539.83922  z    M 582.21989 539.83922   L 584.09017 539.83922   L 584.09017 541.7095   L 582.21989 541.7095   L 582.21989 539.83922  z    M 585.96046 539.83922   L 587.83074 539.83922   L 587.83074 541.7095   L 585.96046 541.7095   L 585.96046 539.83922  z    M 589.70103 539.83922   L 591.57131 539.83922   L 591.57131 541.7095   L 589.70103 541.7095   L 589.70103 539.83922  z    M 593.4416 539.83922   L 595.31189 539.83922   L 595.31189 541.7095   L 593.4416 541.7095   L 593.4416 539.83922  z    M 597.18217 539.83922   L 599.05246 539.83922   L 599.05246 541.7095   L 597.18217 541.7095   L 597.18217 539.83922  z    M 600.92274 539.83922   L 602.79303 539.83922   L 602.79303 541.7095   L 600.92274 541.7095   L 600.92274 539.83922  z    M 604.66331 539.83922   L 606.5336 539.83922   L 606.5336 541.7095   L 604.66331 541.7095   L 604.66331 539.83922  z    M 608.40388 539.83922   L 609.63827 539.83922   L 609.63827 542.30799   L 607.76799 542.30799   L 607.76799 540.77436   L 608.70313 541.7095   L 608.40388 541.7095   L 608.40388 539.83922  z    M 609.63827 544.17828   L 609.63827 546.04856   L 607.76799 546.04856   L 607.76799 544.17828   L 609.63827 544.17828  z    M 609.63827 547.91885   L 609.63827 549.78914   L 607.76799 549.78914   L 607.76799 547.91885   L 609.63827 547.91885  z    M 609.63827 551.65942   L 609.63827 553.52971   L 607.76799 553.52971   L 607.76799 551.65942   L 609.63827 551.65942  z    M 609.63827 555.39999   L 609.63827 557.27028   L 607.76799 557.27028   L 607.76799 555.39999   L 609.63827 555.39999  z    M 609.63827 559.14056   L 609.63827 561.01085   L 607.76799 561.01085   L 607.76799 559.14056   L 609.63827 559.14056  z    M 609.63827 562.88113   L 609.63827 564.75142   L 607.76799 564.75142   L 607.76799 562.88113   L 609.63827 562.88113  z    M 609.63827 566.62171   L 609.63827 568.49199   L 607.76799 568.49199   L 607.76799 566.62171   L 609.63827 566.62171  z    M 609.63827 570.36228   L 609.63827 572.23256   L 607.76799 572.23256   L 607.76799 570.36228   L 609.63827 570.36228  z    M 609.63827 574.10285   L 609.63827 575.97313   L 607.76799 575.97313   L 607.76799 574.10285   L 609.63827 574.10285  z    M 607.01987 577.0953   L 605.14959 577.0953   L 605.14959 575.22502   L 607.01987 575.22502   L 607.01987 577.0953  z    M 603.2793 577.0953   L 601.40902 577.0953   L 601.40902 575.22502   L 603.2793 575.22502   L 603.2793 577.0953  z    M 599.53873 577.0953   L 597.66845 577.0953   L 597.66845 575.22502   L 599.53873 575.22502   L 599.53873 577.0953  z    M 595.79816 577.0953   L 593.92787 577.0953   L 593.92787 575.22502   L 595.79816 575.22502   L 595.79816 577.0953  z    M 592.05759 577.0953   L 590.1873 577.0953   L 590.1873 575.22502   L 592.05759 575.22502   L 592.05759 577.0953  z    M 588.31702 577.0953   L 586.44673 577.0953   L 586.44673 575.22502   L 588.31702 575.22502   L 588.31702 577.0953  z    M 584.57645 577.0953   L 582.70616 577.0953   L 582.70616 575.22502   L 584.57645 575.22502   L 584.57645 577.0953  z    M 580.83588 577.0953   L 578.96559 577.0953   L 578.96559 575.22502   L 580.83588 575.22502   L 580.83588 577.0953  z    M 577.0953 577.0953   L 575.22502 577.0953   L 575.22502 575.22502   L 577.0953 575.22502   L 577.0953 577.0953  z    M 573.35473 577.0953   L 571.48445 577.0953   L 571.48445 575.22502   L 573.35473 575.22502   L 573.35473 577.0953  z    M 569.61416 577.0953   L 567.74388 577.0953   L 567.74388 575.22502   L 569.61416 575.22502   L 569.61416 577.0953  z    M 565.87359 577.0953   L 564.00331 577.0953   L 564.00331 575.22502   L 565.87359 575.22502   L 565.87359 577.0953  z    M 562.13302 577.0953   L 560.26273 577.0953   L 560.26273 575.22502   L 562.13302 575.22502   L 562.13302 577.0953  z    M 558.39245 577.0953   L 556.52216 577.0953   L 556.52216 575.22502   L 558.39245 575.22502   L 558.39245 577.0953  z    M 554.65188 577.0953   L 552.78159 577.0953   L 552.78159 575.22502   L 554.65188 575.22502   L 554.65188 577.0953  z    M 550.91131 577.0953   L 549.04102 577.0953   L 549.04102 575.22502   L 550.91131 575.22502   L 550.91131 577.0953  z    M 547.17074 577.0953   L 545.30045 577.0953   L 545.30045 575.22502   L 547.17074 575.22502   L 547.17074 577.0953  z    M 543.43016 577.0953   L 541.55988 577.0953   L 541.55988 575.22502   L 543.43016 575.22502   L 543.43016 577.0953  z    M 539.68959 577.0953   L 537.81931 577.0953   L 537.81931 575.22502   L 539.68959 575.22502   L 539.68959 577.0953  z    M 535.94902 577.0953   L 534.07874 577.0953   L 534.07874 575.22502   L 535.94902 575.22502   L 535.94902 577.0953  z    M 532.20845 577.0953   L 530.33817 577.0953   L 530.33817 575.22502   L 532.20845 575.22502   L 532.20845 577.0953  z    M 528.46788 577.0953   L 526.59759 577.0953   L 526.59759 575.22502   L 528.46788 575.22502   L 528.46788 577.0953  z    M 524.72731 577.0953   L 522.85702 577.0953   L 522.85702 575.22502   L 524.72731 575.22502   L 524.72731 577.0953  z    M 520.98674 577.0953   L 520.35084 577.0953   L 520.35084 575.22502   L 520.98674 575.22502   L 520.98674 577.0953  z   "
       id="path3083"
       inkscape:export-filename="/home/johan/jpylyzer/doc/images/codestreamOutput.png"
       inkscape:export-xdpi="92.07"
       inkscape:export-ydpi="92.07" />
    <text
       xml:space="preserve"
       x="543.34607"
       y="566.89294"
       style="font-style:normal;font-weight:normal;font-size:22.44342613px;line-height:0%;font-family:Arial;text-align:start;text-anchor:start;fill:#000000"
       id="text3085"
       inkscape:export-filename="/home/johan/jpylyzer/doc/images/codestreamOutput.png"
       inkscape:export-xdpi="92.07"
       inkscape:export-ydpi="92.07">com</text>
    <path
       style="fill:#000000;fill-rule:nonzero;fill-opacity:1;stroke:#000000;stroke-width:0.037405711px;stroke-linecap:butt;stroke-linejoin:round;stroke-dasharray:none;stroke-opacity:1;"
       d="  M 519.4157 531.27331   L 519.4157 529.40302   L 521.28598 529.40302   L 521.28598 531.27331   L 519.4157 531.27331  z    M 519.4157 527.53274   L 519.4157 525.66245   L 521.28598 525.66245   L 521.28598 527.53274   L 519.4157 527.53274  z    M 519.4157 523.79217   L 519.4157 521.92188   L 521.28598 521.92188   L 521.28598 523.79217   L 519.4157 523.79217  z    M 519.4157 520.0516   L 519.4157 518.18131   L 521.28598 518.18131   L 521.28598 520.0516   L 519.4157 520.0516  z    M 519.4157 516.31102   L 519.4157 514.44074   L 521.28598 514.44074   L 521.28598 516.31102   L 519.4157 516.31102  z    M 519.4157 512.57045   L 519.4157 510.70017   L 521.28598 510.70017   L 521.28598 512.57045   L 519.4157 512.57045  z    M 519.4157 508.82988   L 519.4157 506.9596   L 521.28598 506.9596   L 521.28598 508.82988   L 519.4157 508.82988  z    M 519.4157 505.08931   L 519.4157 503.21903   L 521.28598 503.21903   L 521.28598 505.08931   L 519.4157 505.08931  z    M 519.4157 501.34874   L 519.4157 499.47845   L 521.28598 499.47845   L 521.28598 501.34874   L 519.4157 501.34874  z    M 519.4157 497.60817   L 519.4157 494.95236   L 520.50046 494.95236   L 520.50046 496.82265   L 520.35084 496.82265   L 521.28598 495.88751   L 521.28598 497.60817   L 519.4157 497.60817  z    M 522.37075 494.95236   L 524.24104 494.95236   L 524.24104 496.82265   L 522.37075 496.82265   L 522.37075 494.95236  z    M 526.11132 494.95236   L 527.98161 494.95236   L 527.98161 496.82265   L 526.11132 496.82265   L 526.11132 494.95236  z    M 529.85189 494.95236   L 531.72218 494.95236   L 531.72218 496.82265   L 529.85189 496.82265   L 529.85189 494.95236  z    M 533.59246 494.95236   L 535.46275 494.95236   L 535.46275 496.82265   L 533.59246 496.82265   L 533.59246 494.95236  z    M 537.33303 494.95236   L 539.20332 494.95236   L 539.20332 496.82265   L 537.33303 496.82265   L 537.33303 494.95236  z    M 541.0736 494.95236   L 542.94389 494.95236   L 542.94389 496.82265   L 541.0736 496.82265   L 541.0736 494.95236  z    M 544.81418 494.95236   L 546.68446 494.95236   L 546.68446 496.82265   L 544.81418 496.82265   L 544.81418 494.95236  z    M 548.55475 494.95236   L 550.42503 494.95236   L 550.42503 496.82265   L 548.55475 496.82265   L 548.55475 494.95236  z    M 552.29532 494.95236   L 554.1656 494.95236   L 554.1656 496.82265   L 552.29532 496.82265   L 552.29532 494.95236  z    M 556.03589 494.95236   L 557.90617 494.95236   L 557.90617 496.82265   L 556.03589 496.82265   L 556.03589 494.95236  z    M 559.77646 494.95236   L 561.64675 494.95236   L 561.64675 496.82265   L 559.77646 496.82265   L 559.77646 494.95236  z    M 563.51703 494.95236   L 565.38732 494.95236   L 565.38732 496.82265   L 563.51703 496.82265   L 563.51703 494.95236  z    M 567.2576 494.95236   L 569.12789 494.95236   L 569.12789 496.82265   L 567.2576 496.82265   L 567.2576 494.95236  z    M 570.99817 494.95236   L 572.86846 494.95236   L 572.86846 496.82265   L 570.99817 496.82265   L 570.99817 494.95236  z    M 574.73874 494.95236   L 576.60903 494.95236   L 576.60903 496.82265   L 574.73874 496.82265   L 574.73874 494.95236  z    M 578.47932 494.95236   L 580.3496 494.95236   L 580.3496 496.82265   L 578.47932 496.82265   L 578.47932 494.95236  z    M 582.21989 494.95236   L 584.09017 494.95236   L 584.09017 496.82265   L 582.21989 496.82265   L 582.21989 494.95236  z    M 585.96046 494.95236   L 587.83074 494.95236   L 587.83074 496.82265   L 585.96046 496.82265   L 585.96046 494.95236  z    M 589.70103 494.95236   L 591.57131 494.95236   L 591.57131 496.82265   L 589.70103 496.82265   L 589.70103 494.95236  z    M 593.4416 494.95236   L 595.31189 494.95236   L 595.31189 496.82265   L 593.4416 496.82265   L 593.4416 494.95236  z    M 597.18217 494.95236   L 599.05246 494.95236   L 599.05246 496.82265   L 597.18217 496.82265   L 597.18217 494.95236  z    M 600.92274 494.95236   L 602.79303 494.95236   L 602.79303 496.82265   L 600.92274 496.82265   L 600.92274 494.95236  z    M 604.66331 494.95236   L 606.5336 494.95236   L 606.5336 496.82265   L 604.66331 496.82265   L 604.66331 494.95236  z    M 608.40388 494.95236   L 609.63827 494.95236   L 609.63827 497.42114   L 607.76799 497.42114   L 607.76799 495.88751   L 608.70313 496.82265   L 608.40388 496.82265   L 608.40388 494.95236  z    M 609.63827 499.29143   L 609.63827 501.16171   L 607.76799 501.16171   L 607.76799 499.29143   L 609.63827 499.29143  z    M 609.63827 503.032   L 609.63827 504.90228   L 607.76799 504.90228   L 607.76799 503.032   L 609.63827 503.032  z    M 609.63827 506.77257   L 609.63827 508.64285   L 607.76799 508.64285   L 607.76799 506.77257   L 609.63827 506.77257  z    M 609.63827 510.51314   L 609.63827 512.38342   L 607.76799 512.38342   L 607.76799 510.51314   L 609.63827 510.51314  z    M 609.63827 514.25371   L 609.63827 516.124   L 607.76799 516.124   L 607.76799 514.25371   L 609.63827 514.25371  z    M 609.63827 517.99428   L 609.63827 519.86457   L 607.76799 519.86457   L 607.76799 517.99428   L 609.63827 517.99428  z    M 609.63827 521.73485   L 609.63827 523.60514   L 607.76799 523.60514   L 607.76799 521.73485   L 609.63827 521.73485  z    M 609.63827 525.47542   L 609.63827 527.34571   L 607.76799 527.34571   L 607.76799 525.47542   L 609.63827 525.47542  z    M 609.63827 529.21599   L 609.63827 531.08628   L 607.76799 531.08628   L 607.76799 529.21599   L 609.63827 529.21599  z    M 607.01987 532.20845   L 605.14959 532.20845   L 605.14959 530.33817   L 607.01987 530.33817   L 607.01987 532.20845  z    M 603.2793 532.20845   L 601.40902 532.20845   L 601.40902 530.33817   L 603.2793 530.33817   L 603.2793 532.20845  z    M 599.53873 532.20845   L 597.66845 532.20845   L 597.66845 530.33817   L 599.53873 530.33817   L 599.53873 532.20845  z    M 595.79816 532.20845   L 593.92787 532.20845   L 593.92787 530.33817   L 595.79816 530.33817   L 595.79816 532.20845  z    M 592.05759 532.20845   L 590.1873 532.20845   L 590.1873 530.33817   L 592.05759 530.33817   L 592.05759 532.20845  z    M 588.31702 532.20845   L 586.44673 532.20845   L 586.44673 530.33817   L 588.31702 530.33817   L 588.31702 532.20845  z    M 584.57645 532.20845   L 582.70616 532.20845   L 582.70616 530.33817   L 584.57645 530.33817   L 584.57645 532.20845  z    M 580.83588 532.20845   L 578.96559 532.20845   L 578.96559 530.33817   L 580.83588 530.33817   L 580.83588 532.20845  z    M 577.0953 532.20845   L 575.22502 532.20845   L 575.22502 530.33817   L 577.0953 530.33817   L 577.0953 532.20845  z    M 573.35473 532.20845   L 571.48445 532.20845   L 571.48445 530.33817   L 573.35473 530.33817   L 573.35473 532.20845  z    M 569.61416 532.20845   L 567.74388 532.20845   L 567.74388 530.33817   L 569.61416 530.33817   L 569.61416 532.20845  z    M 565.87359 532.20845   L 564.00331 532.20845   L 564.00331 530.33817   L 565.87359 530.33817   L 565.87359 532.20845  z    M 562.13302 532.20845   L 560.26273 532.20845   L 560.26273 530.33817   L 562.13302 530.33817   L 562.13302 532.20845  z    M 558.39245 532.20845   L 556.52216 532.20845   L 556.52216 530.33817   L 558.39245 530.33817   L 558.39245 532.20845  z    M 554.65188 532.20845   L 552.78159 532.20845   L 552.78159 530.33817   L 554.65188 530.33817   L 554.65188 532.20845  z    M 550.91131 532.20845   L 549.04102 532.20845   L 549.04102 530.33817   L 550.91131 530.33817   L 550.91131 532.20845  z    M 547.17074 532.20845   L 545.30045 532.20845   L 545.30045 530.33817   L 547.17074 530.33817   L 547.17074 532.20845  z    M 543.43016 532.20845   L 541.55988 532.20845   L 541.55988 530.33817   L 543.43016 530.33817   L 543.43016 532.20845  z    M 539.68959 532.20845   L 537.81931 532.20845   L 537.81931 530.33817   L 539.68959 530.33817   L 539.68959 532.20845  z    M 535.94902 532.20845   L 534.07874 532.20845   L 534.07874 530.33817   L 535.94902 530.33817   L 535.94902 532.20845  z    M 532.20845 532.20845   L 530.33817 532.20845   L 530.33817 530.33817   L 532.20845 530.33817   L 532.20845 532.20845  z    M 528.46788 532.20845   L 526.59759 532.20845   L 526.59759 530.33817   L 528.46788 530.33817   L 528.46788 532.20845  z    M 524.72731 532.20845   L 522.85702 532.20845   L 522.85702 530.33817   L 524.72731 530.33817   L 524.72731 532.20845  z    M 520.98674 532.20845   L 520.35084 532.20845   L 520.35084 530.33817   L 520.98674 530.33817   L 520.98674 532.20845  z   "
       id="path3087"
       inkscape:export-filename="/home/johan/jpylyzer/doc/images/codestreamOutput.png"
       inkscape:export-xdpi="92.07"
       inkscape:export-ydpi="92.07" />
    <text
       xml:space="preserve"
       x="546.4881"
       y="522.0061"
       style="font-style:normal;font-weight:normal;font-size:22.44342613px;line-height:0%;font-family:Arial;text-align:start;text-anchor:start;fill:#000000"
       id="text3089"
       inkscape:export-filename="/home/johan/jpylyzer/doc/images/codestreamOutput.png"
       inkscape:export-xdpi="92.07"
       inkscape:export-ydpi="92.07">qcd</text>
    <path
       style="fill:#000000;fill-rule:nonzero;fill-opacity:1;stroke:#000000;stroke-width:0.037405711px;stroke-linecap:butt;stroke-linejoin:round;stroke-dasharray:none;stroke-opacity:1;"
       d="  M 519.4157 486.53608   L 519.4157 484.66579   L 521.28598 484.66579   L 521.28598 486.53608   L 519.4157 486.53608  z    M 519.4157 482.79551   L 519.4157 480.92522   L 521.28598 480.92522   L 521.28598 482.79551   L 519.4157 482.79551  z    M 519.4157 479.05494   L 519.4157 477.18465   L 521.28598 477.18465   L 521.28598 479.05494   L 519.4157 479.05494  z    M 519.4157 475.31437   L 519.4157 473.44408   L 521.28598 473.44408   L 521.28598 475.31437   L 519.4157 475.31437  z    M 519.4157 471.57379   L 519.4157 469.70351   L 521.28598 469.70351   L 521.28598 471.57379   L 519.4157 471.57379  z    M 519.4157 467.83322   L 519.4157 465.96294   L 521.28598 465.96294   L 521.28598 467.83322   L 519.4157 467.83322  z    M 519.4157 464.09265   L 519.4157 462.22237   L 521.28598 462.22237   L 521.28598 464.09265   L 519.4157 464.09265  z    M 519.4157 460.35208   L 519.4157 458.4818   L 521.28598 458.4818   L 521.28598 460.35208   L 519.4157 460.35208  z    M 519.4157 456.61151   L 519.4157 454.74122   L 521.28598 454.74122   L 521.28598 456.61151   L 519.4157 456.61151  z    M 519.4157 452.87094   L 519.4157 450.21513   L 520.50046 450.21513   L 520.50046 452.08542   L 520.35084 452.08542   L 521.28598 451.15028   L 521.28598 452.87094   L 519.4157 452.87094  z    M 522.37075 450.21513   L 524.24104 450.21513   L 524.24104 452.08542   L 522.37075 452.08542   L 522.37075 450.21513  z    M 526.11132 450.21513   L 527.98161 450.21513   L 527.98161 452.08542   L 526.11132 452.08542   L 526.11132 450.21513  z    M 529.85189 450.21513   L 531.72218 450.21513   L 531.72218 452.08542   L 529.85189 452.08542   L 529.85189 450.21513  z    M 533.59246 450.21513   L 535.46275 450.21513   L 535.46275 452.08542   L 533.59246 452.08542   L 533.59246 450.21513  z    M 537.33303 450.21513   L 539.20332 450.21513   L 539.20332 452.08542   L 537.33303 452.08542   L 537.33303 450.21513  z    M 541.0736 450.21513   L 542.94389 450.21513   L 542.94389 452.08542   L 541.0736 452.08542   L 541.0736 450.21513  z    M 544.81418 450.21513   L 546.68446 450.21513   L 546.68446 452.08542   L 544.81418 452.08542   L 544.81418 450.21513  z    M 548.55475 450.21513   L 550.42503 450.21513   L 550.42503 452.08542   L 548.55475 452.08542   L 548.55475 450.21513  z    M 552.29532 450.21513   L 554.1656 450.21513   L 554.1656 452.08542   L 552.29532 452.08542   L 552.29532 450.21513  z    M 556.03589 450.21513   L 557.90617 450.21513   L 557.90617 452.08542   L 556.03589 452.08542   L 556.03589 450.21513  z    M 559.77646 450.21513   L 561.64675 450.21513   L 561.64675 452.08542   L 559.77646 452.08542   L 559.77646 450.21513  z    M 563.51703 450.21513   L 565.38732 450.21513   L 565.38732 452.08542   L 563.51703 452.08542   L 563.51703 450.21513  z    M 567.2576 450.21513   L 569.12789 450.21513   L 569.12789 452.08542   L 567.2576 452.08542   L 567.2576 450.21513  z    M 570.99817 450.21513   L 572.86846 450.21513   L 572.86846 452.08542   L 570.99817 452.08542   L 570.99817 450.21513  z    M 574.73874 450.21513   L 576.60903 450.21513   L 576.60903 452.08542   L 574.73874 452.08542   L 574.73874 450.21513  z    M 578.47932 450.21513   L 580.3496 450.21513   L 580.3496 452.08542   L 578.47932 452.08542   L 578.47932 450.21513  z    M 582.21989 450.21513   L 584.09017 450.21513   L 584.09017 452.08542   L 582.21989 452.08542   L 582.21989 450.21513  z    M 585.96046 450.21513   L 587.83074 450.21513   L 587.83074 452.08542   L 585.96046 452.08542   L 585.96046 450.21513  z    M 589.70103 450.21513   L 591.57131 450.21513   L 591.57131 452.08542   L 589.70103 452.08542   L 589.70103 450.21513  z    M 593.4416 450.21513   L 595.31189 450.21513   L 595.31189 452.08542   L 593.4416 452.08542   L 593.4416 450.21513  z    M 597.18217 450.21513   L 599.05246 450.21513   L 599.05246 452.08542   L 597.18217 452.08542   L 597.18217 450.21513  z    M 600.92274 450.21513   L 602.79303 450.21513   L 602.79303 452.08542   L 600.92274 452.08542   L 600.92274 450.21513  z    M 604.66331 450.21513   L 606.5336 450.21513   L 606.5336 452.08542   L 604.66331 452.08542   L 604.66331 450.21513  z    M 608.40388 450.21513   L 609.63827 450.21513   L 609.63827 452.72132   L 607.76799 452.72132   L 607.76799 451.15028   L 608.70313 452.08542   L 608.40388 452.08542   L 608.40388 450.21513  z    M 609.63827 454.5916   L 609.63827 456.46189   L 607.76799 456.46189   L 607.76799 454.5916   L 609.63827 454.5916  z    M 609.63827 458.33217   L 609.63827 460.20246   L 607.76799 460.20246   L 607.76799 458.33217   L 609.63827 458.33217  z    M 609.63827 462.07274   L 609.63827 463.94303   L 607.76799 463.94303   L 607.76799 462.07274   L 609.63827 462.07274  z    M 609.63827 465.81331   L 609.63827 467.6836   L 607.76799 467.6836   L 607.76799 465.81331   L 609.63827 465.81331  z    M 609.63827 469.55389   L 609.63827 471.42417   L 607.76799 471.42417   L 607.76799 469.55389   L 609.63827 469.55389  z    M 609.63827 473.29446   L 609.63827 475.16474   L 607.76799 475.16474   L 607.76799 473.29446   L 609.63827 473.29446  z    M 609.63827 477.03503   L 609.63827 478.90531   L 607.76799 478.90531   L 607.76799 477.03503   L 609.63827 477.03503  z    M 609.63827 480.7756   L 609.63827 482.64588   L 607.76799 482.64588   L 607.76799 480.7756   L 609.63827 480.7756  z    M 609.63827 484.51617   L 609.63827 486.38646   L 607.76799 486.38646   L 607.76799 484.51617   L 609.63827 484.51617  z    M 607.01987 487.47122   L 605.14959 487.47122   L 605.14959 485.60094   L 607.01987 485.60094   L 607.01987 487.47122  z    M 603.2793 487.47122   L 601.40902 487.47122   L 601.40902 485.60094   L 603.2793 485.60094   L 603.2793 487.47122  z    M 599.53873 487.47122   L 597.66845 487.47122   L 597.66845 485.60094   L 599.53873 485.60094   L 599.53873 487.47122  z    M 595.79816 487.47122   L 593.92787 487.47122   L 593.92787 485.60094   L 595.79816 485.60094   L 595.79816 487.47122  z    M 592.05759 487.47122   L 590.1873 487.47122   L 590.1873 485.60094   L 592.05759 485.60094   L 592.05759 487.47122  z    M 588.31702 487.47122   L 586.44673 487.47122   L 586.44673 485.60094   L 588.31702 485.60094   L 588.31702 487.47122  z    M 584.57645 487.47122   L 582.70616 487.47122   L 582.70616 485.60094   L 584.57645 485.60094   L 584.57645 487.47122  z    M 580.83588 487.47122   L 578.96559 487.47122   L 578.96559 485.60094   L 580.83588 485.60094   L 580.83588 487.47122  z    M 577.0953 487.47122   L 575.22502 487.47122   L 575.22502 485.60094   L 577.0953 485.60094   L 577.0953 487.47122  z    M 573.35473 487.47122   L 571.48445 487.47122   L 571.48445 485.60094   L 573.35473 485.60094   L 573.35473 487.47122  z    M 569.61416 487.47122   L 567.74388 487.47122   L 567.74388 485.60094   L 569.61416 485.60094   L 569.61416 487.47122  z    M 565.87359 487.47122   L 564.00331 487.47122   L 564.00331 485.60094   L 565.87359 485.60094   L 565.87359 487.47122  z    M 562.13302 487.47122   L 560.26273 487.47122   L 560.26273 485.60094   L 562.13302 485.60094   L 562.13302 487.47122  z    M 558.39245 487.47122   L 556.52216 487.47122   L 556.52216 485.60094   L 558.39245 485.60094   L 558.39245 487.47122  z    M 554.65188 487.47122   L 552.78159 487.47122   L 552.78159 485.60094   L 554.65188 485.60094   L 554.65188 487.47122  z    M 550.91131 487.47122   L 549.04102 487.47122   L 549.04102 485.60094   L 550.91131 485.60094   L 550.91131 487.47122  z    M 547.17074 487.47122   L 545.30045 487.47122   L 545.30045 485.60094   L 547.17074 485.60094   L 547.17074 487.47122  z    M 543.43016 487.47122   L 541.55988 487.47122   L 541.55988 485.60094   L 543.43016 485.60094   L 543.43016 487.47122  z    M 539.68959 487.47122   L 537.81931 487.47122   L 537.81931 485.60094   L 539.68959 485.60094   L 539.68959 487.47122  z    M 535.94902 487.47122   L 534.07874 487.47122   L 534.07874 485.60094   L 535.94902 485.60094   L 535.94902 487.47122  z    M 532.20845 487.47122   L 530.33817 487.47122   L 530.33817 485.60094   L 532.20845 485.60094   L 532.20845 487.47122  z    M 528.46788 487.47122   L 526.59759 487.47122   L 526.59759 485.60094   L 528.46788 485.60094   L 528.46788 487.47122  z    M 524.72731 487.47122   L 522.85702 487.47122   L 522.85702 485.60094   L 524.72731 485.60094   L 524.72731 487.47122  z    M 520.98674 487.47122   L 520.35084 487.47122   L 520.35084 485.60094   L 520.98674 485.60094   L 520.98674 487.47122  z   "
       id="path3091"
       inkscape:export-filename="/home/johan/jpylyzer/doc/images/codestreamOutput.png"
       inkscape:export-xdpi="92.07"
       inkscape:export-ydpi="92.07" />
    <text
       xml:space="preserve"
       x="546.4881"
       y="477.27512"
       style="font-style:normal;font-weight:normal;font-size:22.44342613px;line-height:0%;font-family:Arial;text-align:start;text-anchor:start;fill:#000000"
       id="text3093"
       inkscape:export-filename="/home/johan/jpylyzer/doc/images/codestreamOutput.png"
       inkscape:export-xdpi="92.07"
       inkscape:export-ydpi="92.07">cod</text>
    <path
       style="fill:#000000;fill-rule:nonzero;fill-opacity:1;stroke:#000000;stroke-width:0.037405711px;stroke-linecap:butt;stroke-linejoin:round;stroke-dasharray:none;stroke-opacity:1;"
       d="  M 441.79885 625.72273   L 441.79885 623.85244   L 443.66913 623.85244   L 443.66913 625.72273   L 441.79885 625.72273  z    M 441.79885 621.98216   L 441.79885 620.11187   L 443.66913 620.11187   L 443.66913 621.98216   L 441.79885 621.98216  z    M 441.79885 618.24159   L 441.79885 616.3713   L 443.66913 616.3713   L 443.66913 618.24159   L 441.79885 618.24159  z    M 441.79885 614.50101   L 441.79885 612.63073   L 443.66913 612.63073   L 443.66913 614.50101   L 441.79885 614.50101  z    M 441.79885 610.76044   L 441.79885 608.89016   L 443.66913 608.89016   L 443.66913 610.76044   L 441.79885 610.76044  z    M 441.79885 607.01987   L 441.79885 605.14959   L 443.66913 605.14959   L 443.66913 607.01987   L 441.79885 607.01987  z    M 441.79885 603.2793   L 441.79885 601.40902   L 443.66913 601.40902   L 443.66913 603.2793   L 441.79885 603.2793  z    M 441.79885 599.53873   L 441.79885 597.66845   L 443.66913 597.66845   L 443.66913 599.53873   L 441.79885 599.53873  z    M 441.79885 595.79816   L 441.79885 593.92787   L 443.66913 593.92787   L 443.66913 595.79816   L 441.79885 595.79816  z    M 441.79885 592.05759   L 441.79885 589.40178   L 442.88361 589.40178   L 442.88361 591.27207   L 442.73399 591.27207   L 443.66913 590.33693   L 443.66913 592.05759   L 441.79885 592.05759  z    M 444.7539 589.40178   L 446.62419 589.40178   L 446.62419 591.27207   L 444.7539 591.27207   L 444.7539 589.40178  z    M 448.49447 589.40178   L 450.36476 589.40178   L 450.36476 591.27207   L 448.49447 591.27207   L 448.49447 589.40178  z    M 452.23504 589.40178   L 454.10533 589.40178   L 454.10533 591.27207   L 452.23504 591.27207   L 452.23504 589.40178  z    M 455.97561 589.40178   L 457.8459 589.40178   L 457.8459 591.27207   L 455.97561 591.27207   L 455.97561 589.40178  z    M 459.71618 589.40178   L 461.58647 589.40178   L 461.58647 591.27207   L 459.71618 591.27207   L 459.71618 589.40178  z    M 463.45676 589.40178   L 465.32704 589.40178   L 465.32704 591.27207   L 463.45676 591.27207   L 463.45676 589.40178  z    M 467.19733 589.40178   L 469.06761 589.40178   L 469.06761 591.27207   L 467.19733 591.27207   L 467.19733 589.40178  z    M 470.9379 589.40178   L 472.80818 589.40178   L 472.80818 591.27207   L 470.9379 591.27207   L 470.9379 589.40178  z    M 474.67847 589.40178   L 476.54875 589.40178   L 476.54875 591.27207   L 474.67847 591.27207   L 474.67847 589.40178  z    M 478.41904 589.40178   L 480.28932 589.40178   L 480.28932 591.27207   L 478.41904 591.27207   L 478.41904 589.40178  z    M 482.15961 589.40178   L 484.0299 589.40178   L 484.0299 591.27207   L 482.15961 591.27207   L 482.15961 589.40178  z    M 485.90018 589.40178   L 487.77047 589.40178   L 487.77047 591.27207   L 485.90018 591.27207   L 485.90018 589.40178  z    M 489.64075 589.40178   L 491.51104 589.40178   L 491.51104 591.27207   L 489.64075 591.27207   L 489.64075 589.40178  z    M 493.38132 589.40178   L 495.25161 589.40178   L 495.25161 591.27207   L 493.38132 591.27207   L 493.38132 589.40178  z    M 497.12189 589.40178   L 498.99218 589.40178   L 498.99218 591.27207   L 497.12189 591.27207   L 497.12189 589.40178  z    M 500.86247 589.40178   L 502.73275 589.40178   L 502.73275 591.27207   L 500.86247 591.27207   L 500.86247 589.40178  z    M 504.60304 589.40178   L 506.47332 589.40178   L 506.47332 591.27207   L 504.60304 591.27207   L 504.60304 589.40178  z    M 508.34361 589.40178   L 510.21389 589.40178   L 510.21389 591.27207   L 508.34361 591.27207   L 508.34361 589.40178  z    M 512.08418 589.40178   L 513.95446 589.40178   L 513.95446 591.27207   L 512.08418 591.27207   L 512.08418 589.40178  z    M 515.82475 589.40178   L 517.69504 589.40178   L 517.69504 591.27207   L 515.82475 591.27207   L 515.82475 589.40178  z    M 519.56532 589.40178   L 521.43561 589.40178   L 521.43561 591.27207   L 519.56532 591.27207   L 519.56532 589.40178  z    M 523.30589 589.40178   L 525.17618 589.40178   L 525.17618 591.27207   L 523.30589 591.27207   L 523.30589 589.40178  z    M 527.04646 589.40178   L 528.91675 589.40178   L 528.91675 591.27207   L 527.04646 591.27207   L 527.04646 589.40178  z    M 530.78703 589.40178   L 532.02142 589.40178   L 532.02142 591.87056   L 530.15114 591.87056   L 530.15114 590.33693   L 531.08628 591.27207   L 530.78703 591.27207   L 530.78703 589.40178  z    M 532.02142 593.74085   L 532.02142 595.61113   L 530.15114 595.61113   L 530.15114 593.74085   L 532.02142 593.74085  z    M 532.02142 597.48142   L 532.02142 599.3517   L 530.15114 599.3517   L 530.15114 597.48142   L 532.02142 597.48142  z    M 532.02142 601.22199   L 532.02142 603.09227   L 530.15114 603.09227   L 530.15114 601.22199   L 532.02142 601.22199  z    M 532.02142 604.96256   L 532.02142 606.83284   L 530.15114 606.83284   L 530.15114 604.96256   L 532.02142 604.96256  z    M 532.02142 608.70313   L 532.02142 610.57342   L 530.15114 610.57342   L 530.15114 608.70313   L 532.02142 608.70313  z    M 532.02142 612.4437   L 532.02142 614.31399   L 530.15114 614.31399   L 530.15114 612.4437   L 532.02142 612.4437  z    M 532.02142 616.18427   L 532.02142 618.05456   L 530.15114 618.05456   L 530.15114 616.18427   L 532.02142 616.18427  z    M 532.02142 619.92484   L 532.02142 621.79513   L 530.15114 621.79513   L 530.15114 619.92484   L 532.02142 619.92484  z    M 532.02142 623.66541   L 532.02142 625.5357   L 530.15114 625.5357   L 530.15114 623.66541   L 532.02142 623.66541  z    M 529.40302 626.65787   L 527.53274 626.65787   L 527.53274 624.78759   L 529.40302 624.78759   L 529.40302 626.65787  z    M 525.66245 626.65787   L 523.79217 626.65787   L 523.79217 624.78759   L 525.66245 624.78759   L 525.66245 626.65787  z    M 521.92188 626.65787   L 520.0516 626.65787   L 520.0516 624.78759   L 521.92188 624.78759   L 521.92188 626.65787  z    M 518.18131 626.65787   L 516.31102 626.65787   L 516.31102 624.78759   L 518.18131 624.78759   L 518.18131 626.65787  z    M 514.44074 626.65787   L 512.57045 626.65787   L 512.57045 624.78759   L 514.44074 624.78759   L 514.44074 626.65787  z    M 510.70017 626.65787   L 508.82988 626.65787   L 508.82988 624.78759   L 510.70017 624.78759   L 510.70017 626.65787  z    M 506.9596 626.65787   L 505.08931 626.65787   L 505.08931 624.78759   L 506.9596 624.78759   L 506.9596 626.65787  z    M 503.21903 626.65787   L 501.34874 626.65787   L 501.34874 624.78759   L 503.21903 624.78759   L 503.21903 626.65787  z    M 499.47845 626.65787   L 497.60817 626.65787   L 497.60817 624.78759   L 499.47845 624.78759   L 499.47845 626.65787  z    M 495.73788 626.65787   L 493.8676 626.65787   L 493.8676 624.78759   L 495.73788 624.78759   L 495.73788 626.65787  z    M 491.99731 626.65787   L 490.12703 626.65787   L 490.12703 624.78759   L 491.99731 624.78759   L 491.99731 626.65787  z    M 488.25674 626.65787   L 486.38646 626.65787   L 486.38646 624.78759   L 488.25674 624.78759   L 488.25674 626.65787  z    M 484.51617 626.65787   L 482.64588 626.65787   L 482.64588 624.78759   L 484.51617 624.78759   L 484.51617 626.65787  z    M 480.7756 626.65787   L 478.90531 626.65787   L 478.90531 624.78759   L 480.7756 624.78759   L 480.7756 626.65787  z    M 477.03503 626.65787   L 475.16474 626.65787   L 475.16474 624.78759   L 477.03503 624.78759   L 477.03503 626.65787  z    M 473.29446 626.65787   L 471.42417 626.65787   L 471.42417 624.78759   L 473.29446 624.78759   L 473.29446 626.65787  z    M 469.55389 626.65787   L 467.6836 626.65787   L 467.6836 624.78759   L 469.55389 624.78759   L 469.55389 626.65787  z    M 465.81331 626.65787   L 463.94303 626.65787   L 463.94303 624.78759   L 465.81331 624.78759   L 465.81331 626.65787  z    M 462.07274 626.65787   L 460.20246 626.65787   L 460.20246 624.78759   L 462.07274 624.78759   L 462.07274 626.65787  z    M 458.33217 626.65787   L 456.46189 626.65787   L 456.46189 624.78759   L 458.33217 624.78759   L 458.33217 626.65787  z    M 454.5916 626.65787   L 452.72132 626.65787   L 452.72132 624.78759   L 454.5916 624.78759   L 454.5916 626.65787  z    M 450.85103 626.65787   L 448.98075 626.65787   L 448.98075 624.78759   L 450.85103 624.78759   L 450.85103 626.65787  z    M 447.11046 626.65787   L 445.24017 626.65787   L 445.24017 624.78759   L 447.11046 624.78759   L 447.11046 626.65787  z    M 443.36989 626.65787   L 442.73399 626.65787   L 442.73399 624.78759   L 443.36989 624.78759   L 443.36989 626.65787  z   "
       id="path3095"
       inkscape:export-filename="/home/johan/jpylyzer/doc/images/codestreamOutput.png"
       inkscape:export-xdpi="92.07"
       inkscape:export-ydpi="92.07" />
    <text
       xml:space="preserve"
       x="452.11349"
       y="616.45551"
       style="font-style:normal;font-weight:normal;font-size:22.44342613px;line-height:0%;font-family:Arial;text-align:start;text-anchor:start;fill:#000000"
       id="text3097"
       inkscape:export-filename="/home/johan/jpylyzer/doc/images/codestreamOutput.png"
       inkscape:export-xdpi="92.07"
       inkscape:export-ydpi="92.07">tilePart</text>
    <path
       style="fill:#000000;fill-rule:nonzero;fill-opacity:1;stroke:#000000;stroke-width:0.037405711px;stroke-linecap:butt;stroke-linejoin:round;stroke-dasharray:none;stroke-opacity:1;"
       d="  M 493.08208 632.7176   L 493.08208 632.7176   C 493.08208 633.24128 492.67062 633.65274 492.14694 633.65274   C 491.62326 633.65274 491.21179 633.24128 491.21179 632.7176   L 491.21179 632.7176   C 491.21179 632.19392 491.62326 631.78245 492.14694 631.78245   C 492.67062 631.78245 493.08208 632.19392 493.08208 632.7176   z  M 493.08208 636.45817   L 493.08208 636.45817   C 493.08208 636.98185 492.67062 637.39331 492.14694 637.39331   C 491.62326 637.39331 491.21179 636.98185 491.21179 636.45817   L 491.21179 636.45817   C 491.21179 635.93449 491.62326 635.52302 492.14694 635.52302   C 492.67062 635.52302 493.08208 635.93449 493.08208 636.45817   z  M 493.08208 640.19874   L 493.08208 640.19874   C 493.08208 640.72242 492.67062 641.13388 492.14694 641.13388   C 491.62326 641.13388 491.21179 640.72242 491.21179 640.19874   L 491.21179 640.19874   C 491.21179 639.67506 491.62326 639.2636 492.14694 639.2636   C 492.67062 639.2636 493.08208 639.67506 493.08208 640.19874   z  M 493.08208 643.93931   L 493.08208 643.93931   C 493.08208 644.46299 492.67062 644.87445 492.14694 644.87445   C 491.62326 644.87445 491.21179 644.46299 491.21179 643.93931   L 491.21179 643.93931   C 491.21179 643.41563 491.62326 643.00417 492.14694 643.00417   C 492.67062 643.00417 493.08208 643.41563 493.08208 643.93931   z  M 493.08208 647.67988   L 493.08208 647.67988   C 493.08208 648.20356 492.67062 648.61502 492.14694 648.61502   C 491.62326 648.61502 491.21179 648.20356 491.21179 647.67988   L 491.21179 647.67988   C 491.21179 647.19361 491.62326 646.74474 492.14694 646.74474   C 492.67062 646.74474 493.08208 647.19361 493.08208 647.67988   z  M 493.08208 651.42045   L 493.08208 651.42045   C 493.08208 651.94413 492.67062 652.35559 492.14694 652.35559   C 491.62326 652.35559 491.21179 651.94413 491.21179 651.42045   L 491.21179 651.42045   C 491.21179 650.93418 491.62326 650.48531 492.14694 650.48531   C 492.67062 650.48531 493.08208 650.93418 493.08208 651.42045   z  M 493.08208 655.16102   L 493.08208 655.16102   C 493.08208 655.6847 492.67062 656.09617 492.14694 656.09617   C 491.62326 656.09617 491.21179 655.6847 491.21179 655.16102   L 491.21179 655.16102   C 491.21179 654.67475 491.62326 654.22588 492.14694 654.22588   C 492.67062 654.22588 493.08208 654.67475 493.08208 655.16102   z  M 493.08208 658.90159   L 493.08208 658.939   C 493.08208 659.42527 492.67062 659.87414 492.14694 659.87414   C 491.62326 659.87414 491.21179 659.42527 491.21179 658.939   L 491.21179 658.90159   C 491.21179 658.41532 491.62326 657.96645 492.14694 657.96645   C 492.67062 657.96645 493.08208 658.41532 493.08208 658.90159   z  M 493.08208 662.67957   L 493.08208 662.67957   C 493.08208 663.16584 492.67062 663.61471 492.14694 663.61471   C 491.62326 663.61471 491.21179 663.16584 491.21179 662.67957   L 491.21179 662.67957   C 491.21179 662.15589 491.62326 661.74443 492.14694 661.74443   C 492.67062 661.74443 493.08208 662.15589 493.08208 662.67957   z  M 493.08208 666.42014   L 493.08208 666.42014   C 493.08208 666.90642 492.67062 667.35528 492.14694 667.35528   C 491.62326 667.35528 491.21179 666.90642 491.21179 666.42014   L 491.21179 666.42014   C 491.21179 665.89646 491.62326 665.485 492.14694 665.485   C 492.67062 665.485 493.08208 665.89646 493.08208 666.42014   z  M 493.08208 670.16071   L 493.08208 670.16071   C 493.08208 670.64699 492.67062 671.09586 492.14694 671.09586   C 491.62326 671.09586 491.21179 670.64699 491.21179 670.16071   L 491.21179 670.16071   C 491.21179 669.63703 491.62326 669.22557 492.14694 669.22557   C 492.67062 669.22557 493.08208 669.63703 493.08208 670.16071   z  M 493.08208 673.90128   L 493.08208 673.90128   C 493.08208 674.42496 492.67062 674.83643 492.14694 674.83643   C 491.62326 674.83643 491.21179 674.42496 491.21179 673.90128   L 491.21179 673.90128   C 491.21179 673.3776 491.62326 672.96614 492.14694 672.96614   C 492.67062 672.96614 493.08208 673.3776 493.08208 673.90128   z"
       id="path3099"
       inkscape:export-filename="/home/johan/jpylyzer/doc/images/codestreamOutput.png"
       inkscape:export-xdpi="92.07"
       inkscape:export-ydpi="92.07" />
    <path
       style="fill:#000000;fill-rule:nonzero;fill-opacity:1;stroke:#000000;stroke-width:0.037405711px;stroke-linecap:butt;stroke-linejoin:round;stroke-dasharray:none;stroke-opacity:1;"
       d="  M 441.79885 717.51634   L 441.79885 715.64606   L 443.66913 715.64606   L 443.66913 717.51634   L 441.79885 717.51634  z    M 441.79885 713.77577   L 441.79885 711.90549   L 443.66913 711.90549   L 443.66913 713.77577   L 441.79885 713.77577  z    M 441.79885 710.0352   L 441.79885 708.16491   L 443.66913 708.16491   L 443.66913 710.0352   L 441.79885 710.0352  z    M 441.79885 706.29463   L 441.79885 704.42434   L 443.66913 704.42434   L 443.66913 706.29463   L 441.79885 706.29463  z    M 441.79885 702.55406   L 441.79885 700.68377   L 443.66913 700.68377   L 443.66913 702.55406   L 441.79885 702.55406  z    M 441.79885 698.81349   L 441.79885 696.9432   L 443.66913 696.9432   L 443.66913 698.81349   L 441.79885 698.81349  z    M 441.79885 695.07292   L 441.79885 693.20263   L 443.66913 693.20263   L 443.66913 695.07292   L 441.79885 695.07292  z    M 441.79885 691.33234   L 441.79885 689.46206   L 443.66913 689.46206   L 443.66913 691.33234   L 441.79885 691.33234  z    M 441.79885 687.59177   L 441.79885 685.72149   L 443.66913 685.72149   L 443.66913 687.59177   L 441.79885 687.59177  z    M 441.79885 683.8512   L 441.79885 681.1954   L 442.88361 681.1954   L 442.88361 683.06568   L 442.73399 683.06568   L 443.66913 682.13054   L 443.66913 683.8512   L 441.79885 683.8512  z    M 444.7539 681.1954   L 446.62419 681.1954   L 446.62419 683.06568   L 444.7539 683.06568   L 444.7539 681.1954  z    M 448.49447 681.1954   L 450.36476 681.1954   L 450.36476 683.06568   L 448.49447 683.06568   L 448.49447 681.1954  z    M 452.23504 681.1954   L 454.10533 681.1954   L 454.10533 683.06568   L 452.23504 683.06568   L 452.23504 681.1954  z    M 455.97561 681.1954   L 457.8459 681.1954   L 457.8459 683.06568   L 455.97561 683.06568   L 455.97561 681.1954  z    M 459.71618 681.1954   L 461.58647 681.1954   L 461.58647 683.06568   L 459.71618 683.06568   L 459.71618 681.1954  z    M 463.45676 681.1954   L 465.32704 681.1954   L 465.32704 683.06568   L 463.45676 683.06568   L 463.45676 681.1954  z    M 467.19733 681.1954   L 469.06761 681.1954   L 469.06761 683.06568   L 467.19733 683.06568   L 467.19733 681.1954  z    M 470.9379 681.1954   L 472.80818 681.1954   L 472.80818 683.06568   L 470.9379 683.06568   L 470.9379 681.1954  z    M 474.67847 681.1954   L 476.54875 681.1954   L 476.54875 683.06568   L 474.67847 683.06568   L 474.67847 681.1954  z    M 478.41904 681.1954   L 480.28932 681.1954   L 480.28932 683.06568   L 478.41904 683.06568   L 478.41904 681.1954  z    M 482.15961 681.1954   L 484.0299 681.1954   L 484.0299 683.06568   L 482.15961 683.06568   L 482.15961 681.1954  z    M 485.90018 681.1954   L 487.77047 681.1954   L 487.77047 683.06568   L 485.90018 683.06568   L 485.90018 681.1954  z    M 489.64075 681.1954   L 491.51104 681.1954   L 491.51104 683.06568   L 489.64075 683.06568   L 489.64075 681.1954  z    M 493.38132 681.1954   L 495.25161 681.1954   L 495.25161 683.06568   L 493.38132 683.06568   L 493.38132 681.1954  z    M 497.12189 681.1954   L 498.99218 681.1954   L 498.99218 683.06568   L 497.12189 683.06568   L 497.12189 681.1954  z    M 500.86247 681.1954   L 502.73275 681.1954   L 502.73275 683.06568   L 500.86247 683.06568   L 500.86247 681.1954  z    M 504.60304 681.1954   L 506.47332 681.1954   L 506.47332 683.06568   L 504.60304 683.06568   L 504.60304 681.1954  z    M 508.34361 681.1954   L 510.21389 681.1954   L 510.21389 683.06568   L 508.34361 683.06568   L 508.34361 681.1954  z    M 512.08418 681.1954   L 513.95446 681.1954   L 513.95446 683.06568   L 512.08418 683.06568   L 512.08418 681.1954  z    M 515.82475 681.1954   L 517.69504 681.1954   L 517.69504 683.06568   L 515.82475 683.06568   L 515.82475 681.1954  z    M 519.56532 681.1954   L 521.43561 681.1954   L 521.43561 683.06568   L 519.56532 683.06568   L 519.56532 681.1954  z    M 523.30589 681.1954   L 525.17618 681.1954   L 525.17618 683.06568   L 523.30589 683.06568   L 523.30589 681.1954  z    M 527.04646 681.1954   L 528.91675 681.1954   L 528.91675 683.06568   L 527.04646 683.06568   L 527.04646 681.1954  z    M 530.78703 681.1954   L 532.02142 681.1954   L 532.02142 683.70158   L 530.15114 683.70158   L 530.15114 682.13054   L 531.08628 683.06568   L 530.78703 683.06568   L 530.78703 681.1954  z    M 532.02142 685.57187   L 532.02142 687.44215   L 530.15114 687.44215   L 530.15114 685.57187   L 532.02142 685.57187  z    M 532.02142 689.31244   L 532.02142 691.18272   L 530.15114 691.18272   L 530.15114 689.31244   L 532.02142 689.31244  z    M 532.02142 693.05301   L 532.02142 694.92329   L 530.15114 694.92329   L 530.15114 693.05301   L 532.02142 693.05301  z    M 532.02142 696.79358   L 532.02142 698.66386   L 530.15114 698.66386   L 530.15114 696.79358   L 532.02142 696.79358  z    M 532.02142 700.53415   L 532.02142 702.40443   L 530.15114 702.40443   L 530.15114 700.53415   L 532.02142 700.53415  z    M 532.02142 704.27472   L 532.02142 706.14501   L 530.15114 706.14501   L 530.15114 704.27472   L 532.02142 704.27472  z    M 532.02142 708.01529   L 532.02142 709.88558   L 530.15114 709.88558   L 530.15114 708.01529   L 532.02142 708.01529  z    M 532.02142 711.75586   L 532.02142 713.62615   L 530.15114 713.62615   L 530.15114 711.75586   L 532.02142 711.75586  z    M 532.02142 715.49643   L 532.02142 717.36672   L 530.15114 717.36672   L 530.15114 715.49643   L 532.02142 715.49643  z    M 529.40302 718.45148   L 527.53274 718.45148   L 527.53274 716.5812   L 529.40302 716.5812   L 529.40302 718.45148  z    M 525.66245 718.45148   L 523.79217 718.45148   L 523.79217 716.5812   L 525.66245 716.5812   L 525.66245 718.45148  z    M 521.92188 718.45148   L 520.0516 718.45148   L 520.0516 716.5812   L 521.92188 716.5812   L 521.92188 718.45148  z    M 518.18131 718.45148   L 516.31102 718.45148   L 516.31102 716.5812   L 518.18131 716.5812   L 518.18131 718.45148  z    M 514.44074 718.45148   L 512.57045 718.45148   L 512.57045 716.5812   L 514.44074 716.5812   L 514.44074 718.45148  z    M 510.70017 718.45148   L 508.82988 718.45148   L 508.82988 716.5812   L 510.70017 716.5812   L 510.70017 718.45148  z    M 506.9596 718.45148   L 505.08931 718.45148   L 505.08931 716.5812   L 506.9596 716.5812   L 506.9596 718.45148  z    M 503.21903 718.45148   L 501.34874 718.45148   L 501.34874 716.5812   L 503.21903 716.5812   L 503.21903 718.45148  z    M 499.47845 718.45148   L 497.60817 718.45148   L 497.60817 716.5812   L 499.47845 716.5812   L 499.47845 718.45148  z    M 495.73788 718.45148   L 493.8676 718.45148   L 493.8676 716.5812   L 495.73788 716.5812   L 495.73788 718.45148  z    M 491.99731 718.45148   L 490.12703 718.45148   L 490.12703 716.5812   L 491.99731 716.5812   L 491.99731 718.45148  z    M 488.25674 718.45148   L 486.38646 718.45148   L 486.38646 716.5812   L 488.25674 716.5812   L 488.25674 718.45148  z    M 484.51617 718.45148   L 482.64588 718.45148   L 482.64588 716.5812   L 484.51617 716.5812   L 484.51617 718.45148  z    M 480.7756 718.45148   L 478.90531 718.45148   L 478.90531 716.5812   L 480.7756 716.5812   L 480.7756 718.45148  z    M 477.03503 718.45148   L 475.16474 718.45148   L 475.16474 716.5812   L 477.03503 716.5812   L 477.03503 718.45148  z    M 473.29446 718.45148   L 471.42417 718.45148   L 471.42417 716.5812   L 473.29446 716.5812   L 473.29446 718.45148  z    M 469.55389 718.45148   L 467.6836 718.45148   L 467.6836 716.5812   L 469.55389 716.5812   L 469.55389 718.45148  z    M 465.81331 718.45148   L 463.94303 718.45148   L 463.94303 716.5812   L 465.81331 716.5812   L 465.81331 718.45148  z    M 462.07274 718.45148   L 460.20246 718.45148   L 460.20246 716.5812   L 462.07274 716.5812   L 462.07274 718.45148  z    M 458.33217 718.45148   L 456.46189 718.45148   L 456.46189 716.5812   L 458.33217 716.5812   L 458.33217 718.45148  z    M 454.5916 718.45148   L 452.72132 718.45148   L 452.72132 716.5812   L 454.5916 716.5812   L 454.5916 718.45148  z    M 450.85103 718.45148   L 448.98075 718.45148   L 448.98075 716.5812   L 450.85103 716.5812   L 450.85103 718.45148  z    M 447.11046 718.45148   L 445.24017 718.45148   L 445.24017 716.5812   L 447.11046 716.5812   L 447.11046 718.45148  z    M 443.36989 718.45148   L 442.73399 718.45148   L 442.73399 716.5812   L 443.36989 716.5812   L 443.36989 718.45148  z   "
       id="path3101"
       inkscape:export-filename="/home/johan/jpylyzer/doc/images/codestreamOutput.png"
       inkscape:export-xdpi="92.07"
       inkscape:export-ydpi="92.07" />
    <text
       xml:space="preserve"
       x="452.11349"
       y="708.25537"
       style="font-style:normal;font-weight:normal;font-size:22.44342613px;line-height:0%;font-family:Arial;text-align:start;text-anchor:start;fill:#000000"
       id="text3103"
       inkscape:export-filename="/home/johan/jpylyzer/doc/images/codestreamOutput.png"
       inkscape:export-xdpi="92.07"
       inkscape:export-ydpi="92.07">tilePart</text>
    <path
       style="fill:none;stroke:#000000;stroke-width:1.8702855px;stroke-linecap:butt;stroke-linejoin:miter;stroke-miterlimit:4;stroke-dasharray:none;stroke-opacity:1;"
       d="  M 89.231323 95.309751   L 386.13915 95.309751   L 386.13915 130.69555   L 89.231323 130.69555  z "
       id="path3105"
       inkscape:export-filename="/home/johan/jpylyzer/doc/images/codestreamOutput.png"
       inkscape:export-xdpi="92.07"
       inkscape:export-ydpi="92.07" />
    <text
       xml:space="preserve"
       x="103.41741"
       y="121.45325"
       style="font-style:normal;font-weight:normal;font-size:22.44342613px;line-height:0%;font-family:Arial;text-align:start;text-anchor:start;fill:#000000"
       id="text3107"
       inkscape:export-filename="/home/johan/jpylyzer/doc/images/codestreamOutput.png"
       inkscape:export-xdpi="92.07"
       inkscape:export-ydpi="92.07">contiguousCodestreamBox</text>
    <path
       style="fill:none;stroke:#000000;stroke-width:1.8702855px;stroke-linecap:butt;stroke-linejoin:round;stroke-dasharray:none;stroke-opacity:1;"
       d="  M 421.37533 356.85048   L 421.37533 703.33958  "
       id="path3109"
       inkscape:export-filename="/home/johan/jpylyzer/doc/images/codestreamOutput.png"
       inkscape:export-xdpi="92.07"
       inkscape:export-ydpi="92.07" />
    <path
       style="fill:none;stroke:#000000;stroke-width:1.8702855px;stroke-linecap:butt;stroke-linejoin:round;stroke-dasharray:none;stroke-opacity:1;"
       d="  M 421.37533 385.20401   L 442.56567 385.20401  "
       id="path3111"
       inkscape:export-filename="/home/johan/jpylyzer/doc/images/codestreamOutput.png"
       inkscape:export-xdpi="92.07"
       inkscape:export-ydpi="92.07" />
    <path
       style="fill:none;stroke:#000000;stroke-width:1.8702855px;stroke-linecap:butt;stroke-linejoin:round;stroke-dasharray:none;stroke-opacity:1;"
       d="  M 421.37533 611.35894   L 442.58437 611.35894  "
       id="path3113"
       inkscape:export-filename="/home/johan/jpylyzer/doc/images/codestreamOutput.png"
       inkscape:export-xdpi="92.07"
       inkscape:export-ydpi="92.07" />
    <path
       style="fill:none;stroke:#000000;stroke-width:1.8702855px;stroke-linecap:butt;stroke-linejoin:round;stroke-dasharray:none;stroke-opacity:1;"
       d="  M 421.37533 703.33958   L 442.58437 703.33958  "
       id="path3115"
       inkscape:export-filename="/home/johan/jpylyzer/doc/images/codestreamOutput.png"
       inkscape:export-xdpi="92.07"
       inkscape:export-ydpi="92.07" />
    <path
       style="fill:none;stroke:#000000;stroke-width:1.8702855px;stroke-linecap:butt;stroke-linejoin:round;stroke-dasharray:none;stroke-opacity:1;"
       d="  M 336.57658 130.69555   L 336.57658 342.82334  "
       id="path3117"
       inkscape:export-filename="/home/johan/jpylyzer/doc/images/codestreamOutput.png"
       inkscape:export-xdpi="92.07"
       inkscape:export-ydpi="92.07" />
    <path
       style="fill:none;stroke:#000000;stroke-width:1.8702855px;stroke-linecap:butt;stroke-linejoin:round;stroke-dasharray:none;stroke-opacity:1;"
       d="  M 336.57658 166.08136   L 371.96239 166.08136  "
       id="path3119"
       inkscape:export-filename="/home/johan/jpylyzer/doc/images/codestreamOutput.png"
       inkscape:export-xdpi="92.07"
       inkscape:export-ydpi="92.07" />
    <path
       style="fill:none;stroke:#000000;stroke-width:1.8702855px;stroke-linecap:butt;stroke-linejoin:round;stroke-dasharray:none;stroke-opacity:1;"
       d="  M 336.57658 208.46203   L 371.96239 208.46203  "
       id="path3121"
       inkscape:export-filename="/home/johan/jpylyzer/doc/images/codestreamOutput.png"
       inkscape:export-xdpi="92.07"
       inkscape:export-ydpi="92.07" />
    <path
       style="fill:none;stroke:#000000;stroke-width:1.8702855px;stroke-linecap:butt;stroke-linejoin:round;stroke-dasharray:none;stroke-opacity:1;"
       d="  M 336.57658 250.8614   L 371.96239 250.8614  "
       id="path3123"
       inkscape:export-filename="/home/johan/jpylyzer/doc/images/codestreamOutput.png"
       inkscape:export-xdpi="92.07"
       inkscape:export-ydpi="92.07" />
    <path
       style="fill:none;stroke:#000000;stroke-width:1.8702855px;stroke-linecap:butt;stroke-linejoin:round;stroke-dasharray:none;stroke-opacity:1;"
       d="  M 336.57658 293.26077   L 371.96239 293.26077  "
       id="path3125"
       inkscape:export-filename="/home/johan/jpylyzer/doc/images/codestreamOutput.png"
       inkscape:export-xdpi="92.07"
       inkscape:export-ydpi="92.07" />
    <path
       style="fill:none;stroke:#000000;stroke-width:1.8702855px;stroke-linecap:butt;stroke-linejoin:round;stroke-dasharray:none;stroke-opacity:1;"
       d="  M 336.57658 342.82334   L 371.96239 342.82334  "
       id="path3127"
       inkscape:export-filename="/home/johan/jpylyzer/doc/images/codestreamOutput.png"
       inkscape:export-xdpi="92.07"
       inkscape:export-ydpi="92.07" />
    <path
       style="fill:none;stroke:#000000;stroke-width:1.8702855px;stroke-linecap:butt;stroke-linejoin:round;stroke-dasharray:none;stroke-opacity:1;"
       d="  M 492.12823 399.23115   L 492.12823 561.94599  "
       id="path3129"
       inkscape:export-filename="/home/johan/jpylyzer/doc/images/codestreamOutput.png"
       inkscape:export-xdpi="92.07"
       inkscape:export-ydpi="92.07" />
    <path
       style="fill:none;stroke:#000000;stroke-width:1.8702855px;stroke-linecap:butt;stroke-linejoin:round;stroke-dasharray:none;stroke-opacity:1;"
       d="  M 492.12823 427.60338   L 520.33214 427.60338  "
       id="path3131"
       inkscape:export-filename="/home/johan/jpylyzer/doc/images/codestreamOutput.png"
       inkscape:export-xdpi="92.07"
       inkscape:export-ydpi="92.07" />
    <path
       style="fill:none;stroke:#000000;stroke-width:1.8702855px;stroke-linecap:butt;stroke-linejoin:round;stroke-dasharray:none;stroke-opacity:1;"
       d="  M 492.12823 470.00275   L 520.33214 470.00275  "
       id="path3133"
       inkscape:export-filename="/home/johan/jpylyzer/doc/images/codestreamOutput.png"
       inkscape:export-xdpi="92.07"
       inkscape:export-ydpi="92.07" />
    <path
       style="fill:none;stroke:#000000;stroke-width:1.8702855px;stroke-linecap:butt;stroke-linejoin:round;stroke-dasharray:none;stroke-opacity:1;"
       d="  M 492.12823 512.38342   L 520.33214 512.38342  "
       id="path3135"
       inkscape:export-filename="/home/johan/jpylyzer/doc/images/codestreamOutput.png"
       inkscape:export-xdpi="92.07"
       inkscape:export-ydpi="92.07" />
    <path
       style="fill:none;stroke:#000000;stroke-width:1.8702855px;stroke-linecap:butt;stroke-linejoin:round;stroke-dasharray:none;stroke-opacity:1;"
       d="  M 492.12823 561.94599   L 520.33214 561.94599  "
       id="path3137"
       inkscape:export-filename="/home/johan/jpylyzer/doc/images/codestreamOutput.png"
       inkscape:export-xdpi="92.07"
       inkscape:export-ydpi="92.07" />
  </g>
</svg>
