<?xml version="1.0" encoding="UTF-8" standalone="no"?>
<svg
   xmlns:dc="http://purl.org/dc/elements/1.1/"
   xmlns:cc="http://creativecommons.org/ns#"
   xmlns:rdf="http://www.w3.org/1999/02/22-rdf-syntax-ns#"
   xmlns:svg="http://www.w3.org/2000/svg"
   xmlns="http://www.w3.org/2000/svg"
   xmlns:sodipodi="http://sodipodi.sourceforge.net/DTD/sodipodi-0.dtd"
   xmlns:inkscape="http://www.inkscape.org/namespaces/inkscape"
   version="1.0"
   width="189.98mm"
   height="253.55mm"
   id="svg3294"
   inkscape:version="0.48.4 r9939"
   sodipodi:docname="structureCodestream.emf">
  <metadata
     id="metadata3408">
    <rdf:RDF>
      <cc:Work
         rdf:about="">
        <dc:format>image/svg+xml</dc:format>
        <dc:type
           rdf:resource="http://purl.org/dc/dcmitype/StillImage" />
        <dc:title></dc:title>
      </cc:Work>
    </rdf:RDF>
  </metadata>
  <sodipodi:namedview
     pagecolor="#ffffff"
     bordercolor="#666666"
     borderopacity="1"
     objecttolerance="10"
     gridtolerance="10"
     guidetolerance="10"
     inkscape:pageopacity="0"
     inkscape:pageshadow="2"
     inkscape:window-width="1680"
     inkscape:window-height="987"
     id="namedview3406"
     showgrid="false"
     inkscape:zoom="1.0507504"
     inkscape:cx="336.57874"
     inkscape:cy="411.13473"
     inkscape:window-x="-4"
     inkscape:window-y="-4"
     inkscape:window-maximized="1"
     inkscape:current-layer="g3298" />
  <defs
     id="defs3296" />
  <g
     id="g3298">
    <path
       style="fill:none;stroke:#000000;stroke-width:1.8702855px;stroke-linecap:butt;stroke-linejoin:miter;stroke-miterlimit:4;stroke-dasharray:none;stroke-opacity:1;"
       d="  M 151.41832 74.119416   L 314.13316 74.119416   L 314.13316 123.53236   L 151.41832 123.53236  z "
       id="path3302" />
    <text
       xml:space="preserve"
       x="208.56177"
       y="107.27025"
       style="font-size:22.443426px;fill:#000000;font-style:normal;font-weight:normal;text-align:start;text-anchor:start;font-family:Arial;"
       id="text3304">SOC</text>
    <path
       style="fill:none;stroke:#000000;stroke-width:1.8702855px;stroke-linecap:butt;stroke-linejoin:miter;stroke-miterlimit:4;stroke-dasharray:none;stroke-opacity:1;"
       d="  M 151.41832 123.53236   L 314.13316 123.53236   L 314.13316 172.9266   L 151.41832 172.9266  z "
       id="path3306" />
    <text
       xml:space="preserve"
       x="170.55757"
       y="156.67701"
       style="font-size:22.443426px;fill:#000000;font-style:normal;font-weight:normal;text-align:start;text-anchor:start;font-family:Arial;"
       id="text3308">main header</text>
    <path
       style="fill:none;stroke:#000000;stroke-width:1.8702855px;stroke-linecap:butt;stroke-linejoin:miter;stroke-miterlimit:4;stroke-dasharray:none;stroke-opacity:1;"
       d="  M 151.41832 173.09493   L 314.13316 173.09493   L 314.13316 222.48917   L 151.41832 222.48917  z "
       id="path3310" />
    <text
       xml:space="preserve"
       x="209.60913"
       y="206.23958"
       style="font-size:22.443426px;fill:#000000;font-style:normal;font-weight:normal;text-align:start;text-anchor:start;font-family:Arial;"
       id="text3312">SOT</text>
    <path
       style="fill:#000000;fill-rule:nonzero;fill-opacity:1;stroke:#000000;stroke-width:0.018702855px;stroke-linecap:butt;stroke-linejoin:round;stroke-dasharray:none;stroke-opacity:1;"
       d="  M 150.48317 272.05173   L 150.48317 270.18145   L 152.35346 270.18145   L 152.35346 272.05173   L 150.48317 272.05173  z    M 150.48317 268.31116   L 150.48317 266.44088   L 152.35346 266.44088   L 152.35346 268.31116   L 150.48317 268.31116  z    M 150.48317 264.57059   L 150.48317 262.70031   L 152.35346 262.70031   L 152.35346 264.57059   L 150.48317 264.57059  z    M 150.48317 260.83002   L 150.48317 258.95973   L 152.35346 258.95973   L 152.35346 260.83002   L 150.48317 260.83002  z    M 150.48317 257.08945   L 150.48317 255.21916   L 152.35346 255.21916   L 152.35346 257.08945   L 150.48317 257.08945  z    M 150.48317 253.34888   L 150.48317 251.47859   L 152.35346 251.47859   L 152.35346 253.34888   L 150.48317 253.34888  z    M 150.48317 249.60831   L 150.48317 247.73802   L 152.35346 247.73802   L 152.35346 249.60831   L 150.48317 249.60831  z    M 150.48317 245.86774   L 150.48317 243.99745   L 152.35346 243.99745   L 152.35346 245.86774   L 150.48317 245.86774  z    M 150.48317 242.12717   L 150.48317 240.25688   L 152.35346 240.25688   L 152.35346 242.12717   L 150.48317 242.12717  z    M 150.48317 238.38659   L 150.48317 236.51631   L 152.35346 236.51631   L 152.35346 238.38659   L 150.48317 238.38659  z    M 150.48317 234.64602   L 150.48317 232.77574   L 152.35346 232.77574   L 152.35346 234.64602   L 150.48317 234.64602  z    M 150.48317 230.90545   L 150.48317 229.03517   L 152.35346 229.03517   L 152.35346 230.90545   L 150.48317 230.90545  z    M 150.48317 227.16488   L 150.48317 225.2946   L 152.35346 225.2946   L 152.35346 227.16488   L 150.48317 227.16488  z    M 150.48317 223.42431   L 150.48317 221.72235   L 152.52179 221.72235   L 152.52179 223.59264   L 151.41832 223.59264   L 152.35346 222.65749   L 152.35346 223.42431   L 150.48317 223.42431  z    M 154.39207 221.72235   L 156.26236 221.72235   L 156.26236 223.59264   L 154.39207 223.59264   L 154.39207 221.72235  z    M 158.13264 221.72235   L 160.00293 221.72235   L 160.00293 223.59264   L 158.13264 223.59264   L 158.13264 221.72235  z    M 161.87321 221.72235   L 163.7435 221.72235   L 163.7435 223.59264   L 161.87321 223.59264   L 161.87321 221.72235  z    M 165.61378 221.72235   L 167.48407 221.72235   L 167.48407 223.59264   L 165.61378 223.59264   L 165.61378 221.72235  z    M 169.35436 221.72235   L 171.22464 221.72235   L 171.22464 223.59264   L 169.35436 223.59264   L 169.35436 221.72235  z    M 173.09493 221.72235   L 174.96521 221.72235   L 174.96521 223.59264   L 173.09493 223.59264   L 173.09493 221.72235  z    M 176.8355 221.72235   L 178.70578 221.72235   L 178.70578 223.59264   L 176.8355 223.59264   L 176.8355 221.72235  z    M 180.57607 221.72235   L 182.44635 221.72235   L 182.44635 223.59264   L 180.57607 223.59264   L 180.57607 221.72235  z    M 184.31664 221.72235   L 186.18692 221.72235   L 186.18692 223.59264   L 184.31664 223.59264   L 184.31664 221.72235  z    M 188.05721 221.72235   L 189.9275 221.72235   L 189.9275 223.59264   L 188.05721 223.59264   L 188.05721 221.72235  z    M 191.79778 221.72235   L 193.66807 221.72235   L 193.66807 223.59264   L 191.79778 223.59264   L 191.79778 221.72235  z    M 195.53835 221.72235   L 197.40864 221.72235   L 197.40864 223.59264   L 195.53835 223.59264   L 195.53835 221.72235  z    M 199.27892 221.72235   L 201.14921 221.72235   L 201.14921 223.59264   L 199.27892 223.59264   L 199.27892 221.72235  z    M 203.01949 221.72235   L 204.88978 221.72235   L 204.88978 223.59264   L 203.01949 223.59264   L 203.01949 221.72235  z    M 206.76007 221.72235   L 208.63035 221.72235   L 208.63035 223.59264   L 206.76007 223.59264   L 206.76007 221.72235  z    M 210.50064 221.72235   L 212.37092 221.72235   L 212.37092 223.59264   L 210.50064 223.59264   L 210.50064 221.72235  z    M 214.24121 221.72235   L 216.11149 221.72235   L 216.11149 223.59264   L 214.24121 223.59264   L 214.24121 221.72235  z    M 217.98178 221.72235   L 219.85206 221.72235   L 219.85206 223.59264   L 217.98178 223.59264   L 217.98178 221.72235  z    M 221.72235 221.72235   L 223.59264 221.72235   L 223.59264 223.59264   L 221.72235 223.59264   L 221.72235 221.72235  z    M 225.46292 221.72235   L 227.33321 221.72235   L 227.33321 223.59264   L 225.46292 223.59264   L 225.46292 221.72235  z    M 229.20349 221.72235   L 231.07378 221.72235   L 231.07378 223.59264   L 229.20349 223.59264   L 229.20349 221.72235  z    M 232.94406 221.72235   L 234.81435 221.72235   L 234.81435 223.59264   L 232.94406 223.59264   L 232.94406 221.72235  z    M 236.68463 221.72235   L 238.55492 221.72235   L 238.55492 223.59264   L 236.68463 223.59264   L 236.68463 221.72235  z    M 240.42521 221.72235   L 242.29549 221.72235   L 242.29549 223.59264   L 240.42521 223.59264   L 240.42521 221.72235  z    M 244.16578 221.72235   L 246.03606 221.72235   L 246.03606 223.59264   L 244.16578 223.59264   L 244.16578 221.72235  z    M 247.90635 221.72235   L 249.77663 221.72235   L 249.77663 223.59264   L 247.90635 223.59264   L 247.90635 221.72235  z    M 251.64692 221.72235   L 253.5172 221.72235   L 253.5172 223.59264   L 251.64692 223.59264   L 251.64692 221.72235  z    M 255.38749 221.72235   L 257.25778 221.72235   L 257.25778 223.59264   L 255.38749 223.59264   L 255.38749 221.72235  z    M 259.12806 221.72235   L 260.99835 221.72235   L 260.99835 223.59264   L 259.12806 223.59264   L 259.12806 221.72235  z    M 262.86863 221.72235   L 264.73892 221.72235   L 264.73892 223.59264   L 262.86863 223.59264   L 262.86863 221.72235  z    M 266.6092 221.72235   L 268.47949 221.72235   L 268.47949 223.59264   L 266.6092 223.59264   L 266.6092 221.72235  z    M 270.34977 221.72235   L 272.22006 221.72235   L 272.22006 223.59264   L 270.34977 223.59264   L 270.34977 221.72235  z    M 274.09034 221.72235   L 275.96063 221.72235   L 275.96063 223.59264   L 274.09034 223.59264   L 274.09034 221.72235  z    M 277.83092 221.72235   L 279.7012 221.72235   L 279.7012 223.59264   L 277.83092 223.59264   L 277.83092 221.72235  z    M 281.57149 221.72235   L 283.44177 221.72235   L 283.44177 223.59264   L 281.57149 223.59264   L 281.57149 221.72235  z    M 285.31206 221.72235   L 287.18234 221.72235   L 287.18234 223.59264   L 285.31206 223.59264   L 285.31206 221.72235  z    M 289.05263 221.72235   L 290.92291 221.72235   L 290.92291 223.59264   L 289.05263 223.59264   L 289.05263 221.72235  z    M 292.7932 221.72235   L 294.66349 221.72235   L 294.66349 223.59264   L 292.7932 223.59264   L 292.7932 221.72235  z    M 296.53377 221.72235   L 298.40406 221.72235   L 298.40406 223.59264   L 296.53377 223.59264   L 296.53377 221.72235  z    M 300.27434 221.72235   L 302.14463 221.72235   L 302.14463 223.59264   L 300.27434 223.59264   L 300.27434 221.72235  z    M 304.01491 221.72235   L 305.8852 221.72235   L 305.8852 223.59264   L 304.01491 223.59264   L 304.01491 221.72235  z    M 307.75548 221.72235   L 309.62577 221.72235   L 309.62577 223.59264   L 307.75548 223.59264   L 307.75548 221.72235  z    M 311.49606 221.72235   L 313.36634 221.72235   L 313.36634 223.59264   L 311.49606 223.59264   L 311.49606 221.72235  z    M 315.0683 223.74226   L 315.0683 225.61254   L 313.19802 225.61254   L 313.19802 223.74226   L 315.0683 223.74226  z    M 315.0683 227.48283   L 315.0683 229.35311   L 313.19802 229.35311   L 313.19802 227.48283   L 315.0683 227.48283  z    M 315.0683 231.2234   L 315.0683 233.09369   L 313.19802 233.09369   L 313.19802 231.2234   L 315.0683 231.2234  z    M 315.0683 234.96397   L 315.0683 236.83426   L 313.19802 236.83426   L 313.19802 234.96397   L 315.0683 234.96397  z    M 315.0683 238.70454   L 315.0683 240.57483   L 313.19802 240.57483   L 313.19802 238.70454   L 315.0683 238.70454  z    M 315.0683 242.44511   L 315.0683 244.3154   L 313.19802 244.3154   L 313.19802 242.44511   L 315.0683 242.44511  z    M 315.0683 246.18568   L 315.0683 248.05597   L 313.19802 248.05597   L 313.19802 246.18568   L 315.0683 246.18568  z    M 315.0683 249.92626   L 315.0683 251.79654   L 313.19802 251.79654   L 313.19802 249.92626   L 315.0683 249.92626  z    M 315.0683 253.66683   L 315.0683 255.53711   L 313.19802 255.53711   L 313.19802 253.66683   L 315.0683 253.66683  z    M 315.0683 257.4074   L 315.0683 259.27768   L 313.19802 259.27768   L 313.19802 257.4074   L 315.0683 257.4074  z    M 315.0683 261.14797   L 315.0683 263.01825   L 313.19802 263.01825   L 313.19802 261.14797   L 315.0683 261.14797  z    M 315.0683 264.88854   L 315.0683 266.75883   L 313.19802 266.75883   L 313.19802 264.88854   L 315.0683 264.88854  z    M 315.0683 268.62911   L 315.0683 270.4994   L 313.19802 270.4994   L 313.19802 268.62911   L 315.0683 268.62911  z    M 313.83391 272.98688   L 311.96363 272.98688   L 311.96363 271.11659   L 313.83391 271.11659   L 313.83391 272.98688  z    M 310.09334 272.98688   L 308.22306 272.98688   L 308.22306 271.11659   L 310.09334 271.11659   L 310.09334 272.98688  z    M 306.35277 272.98688   L 304.48248 272.98688   L 304.48248 271.11659   L 306.35277 271.11659   L 306.35277 272.98688  z    M 302.6122 272.98688   L 300.74191 272.98688   L 300.74191 271.11659   L 302.6122 271.11659   L 302.6122 272.98688  z    M 298.87163 272.98688   L 297.00134 272.98688   L 297.00134 271.11659   L 298.87163 271.11659   L 298.87163 272.98688  z    M 295.13106 272.98688   L 293.26077 272.98688   L 293.26077 271.11659   L 295.13106 271.11659   L 295.13106 272.98688  z    M 291.39049 272.98688   L 289.5202 272.98688   L 289.5202 271.11659   L 291.39049 271.11659   L 291.39049 272.98688  z    M 287.64992 272.98688   L 285.77963 272.98688   L 285.77963 271.11659   L 287.64992 271.11659   L 287.64992 272.98688  z    M 283.90934 272.98688   L 282.03906 272.98688   L 282.03906 271.11659   L 283.90934 271.11659   L 283.90934 272.98688  z    M 280.16877 272.98688   L 278.29849 272.98688   L 278.29849 271.11659   L 280.16877 271.11659   L 280.16877 272.98688  z    M 276.4282 272.98688   L 274.55792 272.98688   L 274.55792 271.11659   L 276.4282 271.11659   L 276.4282 272.98688  z    M 272.68763 272.98688   L 270.81735 272.98688   L 270.81735 271.11659   L 272.68763 271.11659   L 272.68763 272.98688  z    M 268.94706 272.98688   L 267.07677 272.98688   L 267.07677 271.11659   L 268.94706 271.11659   L 268.94706 272.98688  z    M 265.20649 272.98688   L 263.3362 272.98688   L 263.3362 271.11659   L 265.20649 271.11659   L 265.20649 272.98688  z    M 261.46592 272.98688   L 259.59563 272.98688   L 259.59563 271.11659   L 261.46592 271.11659   L 261.46592 272.98688  z    M 257.72535 272.98688   L 255.85506 272.98688   L 255.85506 271.11659   L 257.72535 271.11659   L 257.72535 272.98688  z    M 253.98478 272.98688   L 252.11449 272.98688   L 252.11449 271.11659   L 253.98478 271.11659   L 253.98478 272.98688  z    M 250.2442 272.98688   L 248.37392 272.98688   L 248.37392 271.11659   L 250.2442 271.11659   L 250.2442 272.98688  z    M 246.50363 272.98688   L 244.63335 272.98688   L 244.63335 271.11659   L 246.50363 271.11659   L 246.50363 272.98688  z    M 242.76306 272.98688   L 240.89278 272.98688   L 240.89278 271.11659   L 242.76306 271.11659   L 242.76306 272.98688  z    M 239.02249 272.98688   L 237.15221 272.98688   L 237.15221 271.11659   L 239.02249 271.11659   L 239.02249 272.98688  z    M 235.28192 272.98688   L 233.41163 272.98688   L 233.41163 271.11659   L 235.28192 271.11659   L 235.28192 272.98688  z    M 231.54135 272.98688   L 229.67106 272.98688   L 229.67106 271.11659   L 231.54135 271.11659   L 231.54135 272.98688  z    M 227.80078 272.98688   L 225.93049 272.98688   L 225.93049 271.11659   L 227.80078 271.11659   L 227.80078 272.98688  z    M 224.06021 272.98688   L 222.18992 272.98688   L 222.18992 271.11659   L 224.06021 271.11659   L 224.06021 272.98688  z    M 220.31964 272.98688   L 218.44935 272.98688   L 218.44935 271.11659   L 220.31964 271.11659   L 220.31964 272.98688  z    M 216.57906 272.98688   L 214.70878 272.98688   L 214.70878 271.11659   L 216.57906 271.11659   L 216.57906 272.98688  z    M 212.83849 272.98688   L 210.96821 272.98688   L 210.96821 271.11659   L 212.83849 271.11659   L 212.83849 272.98688  z    M 209.09792 272.98688   L 207.22764 272.98688   L 207.22764 271.11659   L 209.09792 271.11659   L 209.09792 272.98688  z    M 205.35735 272.98688   L 203.48707 272.98688   L 203.48707 271.11659   L 205.35735 271.11659   L 205.35735 272.98688  z    M 201.61678 272.98688   L 199.74649 272.98688   L 199.74649 271.11659   L 201.61678 271.11659   L 201.61678 272.98688  z    M 197.87621 272.98688   L 196.00592 272.98688   L 196.00592 271.11659   L 197.87621 271.11659   L 197.87621 272.98688  z    M 194.13564 272.98688   L 192.26535 272.98688   L 192.26535 271.11659   L 194.13564 271.11659   L 194.13564 272.98688  z    M 190.39507 272.98688   L 188.52478 272.98688   L 188.52478 271.11659   L 190.39507 271.11659   L 190.39507 272.98688  z    M 186.6545 272.98688   L 184.78421 272.98688   L 184.78421 271.11659   L 186.6545 271.11659   L 186.6545 272.98688  z    M 182.91393 272.98688   L 181.04364 272.98688   L 181.04364 271.11659   L 182.91393 271.11659   L 182.91393 272.98688  z    M 179.17335 272.98688   L 177.30307 272.98688   L 177.30307 271.11659   L 179.17335 271.11659   L 179.17335 272.98688  z    M 175.43278 272.98688   L 173.5625 272.98688   L 173.5625 271.11659   L 175.43278 271.11659   L 175.43278 272.98688  z    M 171.69221 272.98688   L 169.82193 272.98688   L 169.82193 271.11659   L 171.69221 271.11659   L 171.69221 272.98688  z    M 167.95164 272.98688   L 166.08136 272.98688   L 166.08136 271.11659   L 167.95164 271.11659   L 167.95164 272.98688  z    M 164.21107 272.98688   L 162.34078 272.98688   L 162.34078 271.11659   L 164.21107 271.11659   L 164.21107 272.98688  z    M 160.4705 272.98688   L 158.60021 272.98688   L 158.60021 271.11659   L 160.4705 271.11659   L 160.4705 272.98688  z    M 156.72993 272.98688   L 154.85964 272.98688   L 154.85964 271.11659   L 156.72993 271.11659   L 156.72993 272.98688  z    M 152.98936 272.98688   L 151.41832 272.98688   L 151.41832 271.11659   L 152.98936 271.11659   L 152.98936 272.98688  z   "
       id="path3314" />
    <text
       xml:space="preserve"
       x="157.54038"
       y="255.80215"
       style="font-size:22.443426px;fill:#000000;font-style:normal;font-weight:normal;text-align:start;text-anchor:start;font-family:Arial;"
       id="text3316">tile</text>
    <text
       xml:space="preserve"
       x="186.11834"
       y="255.80215"
       style="font-size:22.443426px;fill:#000000;font-style:normal;font-weight:normal;text-align:start;text-anchor:start;font-family:Arial;"
       id="text3318">-</text>
    <text
       xml:space="preserve"
       x="193.59948"
       y="255.80215"
       style="font-size:22.443426px;fill:#000000;font-style:normal;font-weight:normal;text-align:start;text-anchor:start;font-family:Arial;"
       id="text3320">part header</text>
    <path
       style="fill:none;stroke:#000000;stroke-width:1.8702855px;stroke-linecap:butt;stroke-linejoin:miter;stroke-miterlimit:4;stroke-dasharray:none;stroke-opacity:1;"
       d="  M 151.41832 272.05173   L 314.13316 272.05173   L 314.13316 321.46468   L 151.41832 321.46468  z "
       id="path3322" />
    <text
       xml:space="preserve"
       x="208.56177"
       y="305.20881"
       style="font-size:22.443426px;fill:#000000;font-style:normal;font-weight:normal;text-align:start;text-anchor:start;font-family:Arial;"
       id="text3324">SOD</text>
    <path
       style="fill:none;stroke:#000000;stroke-width:1.8702855px;stroke-linecap:butt;stroke-linejoin:miter;stroke-miterlimit:4;stroke-dasharray:none;stroke-opacity:1;"
       d="  M 151.41832 321.6143   L 314.13316 321.6143   L 314.13316 371.02724   L 151.41832 371.02724  z "
       id="path3326" />
    <text
       xml:space="preserve"
       x="183.57475"
       y="354.77136"
       style="font-size:22.443426px;fill:#000000;font-style:normal;font-weight:normal;text-align:start;text-anchor:start;font-family:Arial;"
       id="text3328">bit stream</text>
    <path
       style="fill:none;stroke:#000000;stroke-width:1.8702855px;stroke-linecap:butt;stroke-linejoin:miter;stroke-miterlimit:4;stroke-dasharray:none;stroke-opacity:1;"
       d="  M 151.41832 470.00275   L 314.13316 470.00275   L 314.13316 519.397   L 151.41832 519.397  z "
       id="path3330" />
    <text
       xml:space="preserve"
       x="209.60913"
       y="503.14736"
       style="font-size:22.443426px;fill:#000000;font-style:normal;font-weight:normal;text-align:start;text-anchor:start;font-family:Arial;"
       id="text3332">SOT</text>
    <path
       style="fill:#000000;fill-rule:nonzero;fill-opacity:1;stroke:#000000;stroke-width:0.018702855px;stroke-linecap:butt;stroke-linejoin:round;stroke-dasharray:none;stroke-opacity:1;"
       d="  M 150.48317 568.95956   L 150.48317 567.08928   L 152.35346 567.08928   L 152.35346 568.95956   L 150.48317 568.95956  z    M 150.48317 565.21899   L 150.48317 563.34871   L 152.35346 563.34871   L 152.35346 565.21899   L 150.48317 565.21899  z    M 150.48317 561.47842   L 150.48317 559.60813   L 152.35346 559.60813   L 152.35346 561.47842   L 150.48317 561.47842  z    M 150.48317 557.73785   L 150.48317 555.86756   L 152.35346 555.86756   L 152.35346 557.73785   L 150.48317 557.73785  z    M 150.48317 553.99728   L 150.48317 552.12699   L 152.35346 552.12699   L 152.35346 553.99728   L 150.48317 553.99728  z    M 150.48317 550.25671   L 150.48317 548.38642   L 152.35346 548.38642   L 152.35346 550.25671   L 150.48317 550.25671  z    M 150.48317 546.51614   L 150.48317 544.64585   L 152.35346 544.64585   L 152.35346 546.51614   L 150.48317 546.51614  z    M 150.48317 542.77556   L 150.48317 540.90528   L 152.35346 540.90528   L 152.35346 542.77556   L 150.48317 542.77556  z    M 150.48317 539.03499   L 150.48317 537.16471   L 152.35346 537.16471   L 152.35346 539.03499   L 150.48317 539.03499  z    M 150.48317 535.29442   L 150.48317 533.42414   L 152.35346 533.42414   L 152.35346 535.29442   L 150.48317 535.29442  z    M 150.48317 531.55385   L 150.48317 529.68357   L 152.35346 529.68357   L 152.35346 531.55385   L 150.48317 531.55385  z    M 150.48317 527.81328   L 150.48317 525.94299   L 152.35346 525.94299   L 152.35346 527.81328   L 150.48317 527.81328  z    M 150.48317 524.07271   L 150.48317 522.20242   L 152.35346 522.20242   L 152.35346 524.07271   L 150.48317 524.07271  z    M 150.48317 520.33214   L 150.48317 518.63018   L 152.52179 518.63018   L 152.52179 520.50046   L 151.41832 520.50046   L 152.35346 519.56532   L 152.35346 520.33214   L 150.48317 520.33214  z    M 154.39207 518.63018   L 156.26236 518.63018   L 156.26236 520.50046   L 154.39207 520.50046   L 154.39207 518.63018  z    M 158.13264 518.63018   L 160.00293 518.63018   L 160.00293 520.50046   L 158.13264 520.50046   L 158.13264 518.63018  z    M 161.87321 518.63018   L 163.7435 518.63018   L 163.7435 520.50046   L 161.87321 520.50046   L 161.87321 518.63018  z    M 165.61378 518.63018   L 167.48407 518.63018   L 167.48407 520.50046   L 165.61378 520.50046   L 165.61378 518.63018  z    M 169.35436 518.63018   L 171.22464 518.63018   L 171.22464 520.50046   L 169.35436 520.50046   L 169.35436 518.63018  z    M 173.09493 518.63018   L 174.96521 518.63018   L 174.96521 520.50046   L 173.09493 520.50046   L 173.09493 518.63018  z    M 176.8355 518.63018   L 178.70578 518.63018   L 178.70578 520.50046   L 176.8355 520.50046   L 176.8355 518.63018  z    M 180.57607 518.63018   L 182.44635 518.63018   L 182.44635 520.50046   L 180.57607 520.50046   L 180.57607 518.63018  z    M 184.31664 518.63018   L 186.18692 518.63018   L 186.18692 520.50046   L 184.31664 520.50046   L 184.31664 518.63018  z    M 188.05721 518.63018   L 189.9275 518.63018   L 189.9275 520.50046   L 188.05721 520.50046   L 188.05721 518.63018  z    M 191.79778 518.63018   L 193.66807 518.63018   L 193.66807 520.50046   L 191.79778 520.50046   L 191.79778 518.63018  z    M 195.53835 518.63018   L 197.40864 518.63018   L 197.40864 520.50046   L 195.53835 520.50046   L 195.53835 518.63018  z    M 199.27892 518.63018   L 201.14921 518.63018   L 201.14921 520.50046   L 199.27892 520.50046   L 199.27892 518.63018  z    M 203.01949 518.63018   L 204.88978 518.63018   L 204.88978 520.50046   L 203.01949 520.50046   L 203.01949 518.63018  z    M 206.76007 518.63018   L 208.63035 518.63018   L 208.63035 520.50046   L 206.76007 520.50046   L 206.76007 518.63018  z    M 210.50064 518.63018   L 212.37092 518.63018   L 212.37092 520.50046   L 210.50064 520.50046   L 210.50064 518.63018  z    M 214.24121 518.63018   L 216.11149 518.63018   L 216.11149 520.50046   L 214.24121 520.50046   L 214.24121 518.63018  z    M 217.98178 518.63018   L 219.85206 518.63018   L 219.85206 520.50046   L 217.98178 520.50046   L 217.98178 518.63018  z    M 221.72235 518.63018   L 223.59264 518.63018   L 223.59264 520.50046   L 221.72235 520.50046   L 221.72235 518.63018  z    M 225.46292 518.63018   L 227.33321 518.63018   L 227.33321 520.50046   L 225.46292 520.50046   L 225.46292 518.63018  z    M 229.20349 518.63018   L 231.07378 518.63018   L 231.07378 520.50046   L 229.20349 520.50046   L 229.20349 518.63018  z    M 232.94406 518.63018   L 234.81435 518.63018   L 234.81435 520.50046   L 232.94406 520.50046   L 232.94406 518.63018  z    M 236.68463 518.63018   L 238.55492 518.63018   L 238.55492 520.50046   L 236.68463 520.50046   L 236.68463 518.63018  z    M 240.42521 518.63018   L 242.29549 518.63018   L 242.29549 520.50046   L 240.42521 520.50046   L 240.42521 518.63018  z    M 244.16578 518.63018   L 246.03606 518.63018   L 246.03606 520.50046   L 244.16578 520.50046   L 244.16578 518.63018  z    M 247.90635 518.63018   L 249.77663 518.63018   L 249.77663 520.50046   L 247.90635 520.50046   L 247.90635 518.63018  z    M 251.64692 518.63018   L 253.5172 518.63018   L 253.5172 520.50046   L 251.64692 520.50046   L 251.64692 518.63018  z    M 255.38749 518.63018   L 257.25778 518.63018   L 257.25778 520.50046   L 255.38749 520.50046   L 255.38749 518.63018  z    M 259.12806 518.63018   L 260.99835 518.63018   L 260.99835 520.50046   L 259.12806 520.50046   L 259.12806 518.63018  z    M 262.86863 518.63018   L 264.73892 518.63018   L 264.73892 520.50046   L 262.86863 520.50046   L 262.86863 518.63018  z    M 266.6092 518.63018   L 268.47949 518.63018   L 268.47949 520.50046   L 266.6092 520.50046   L 266.6092 518.63018  z    M 270.34977 518.63018   L 272.22006 518.63018   L 272.22006 520.50046   L 270.34977 520.50046   L 270.34977 518.63018  z    M 274.09034 518.63018   L 275.96063 518.63018   L 275.96063 520.50046   L 274.09034 520.50046   L 274.09034 518.63018  z    M 277.83092 518.63018   L 279.7012 518.63018   L 279.7012 520.50046   L 277.83092 520.50046   L 277.83092 518.63018  z    M 281.57149 518.63018   L 283.44177 518.63018   L 283.44177 520.50046   L 281.57149 520.50046   L 281.57149 518.63018  z    M 285.31206 518.63018   L 287.18234 518.63018   L 287.18234 520.50046   L 285.31206 520.50046   L 285.31206 518.63018  z    M 289.05263 518.63018   L 290.92291 518.63018   L 290.92291 520.50046   L 289.05263 520.50046   L 289.05263 518.63018  z    M 292.7932 518.63018   L 294.66349 518.63018   L 294.66349 520.50046   L 292.7932 520.50046   L 292.7932 518.63018  z    M 296.53377 518.63018   L 298.40406 518.63018   L 298.40406 520.50046   L 296.53377 520.50046   L 296.53377 518.63018  z    M 300.27434 518.63018   L 302.14463 518.63018   L 302.14463 520.50046   L 300.27434 520.50046   L 300.27434 518.63018  z    M 304.01491 518.63018   L 305.8852 518.63018   L 305.8852 520.50046   L 304.01491 520.50046   L 304.01491 518.63018  z    M 307.75548 518.63018   L 309.62577 518.63018   L 309.62577 520.50046   L 307.75548 520.50046   L 307.75548 518.63018  z    M 311.49606 518.63018   L 313.36634 518.63018   L 313.36634 520.50046   L 311.49606 520.50046   L 311.49606 518.63018  z    M 315.0683 520.65009   L 315.0683 522.52037   L 313.19802 522.52037   L 313.19802 520.65009   L 315.0683 520.65009  z    M 315.0683 524.39066   L 315.0683 526.26094   L 313.19802 526.26094   L 313.19802 524.39066   L 315.0683 524.39066  z    M 315.0683 528.13123   L 315.0683 530.00151   L 313.19802 530.00151   L 313.19802 528.13123   L 315.0683 528.13123  z    M 315.0683 531.8718   L 315.0683 533.74209   L 313.19802 533.74209   L 313.19802 531.8718   L 315.0683 531.8718  z    M 315.0683 535.61237   L 315.0683 537.48266   L 313.19802 537.48266   L 313.19802 535.61237   L 315.0683 535.61237  z    M 315.0683 539.35294   L 315.0683 541.22323   L 313.19802 541.22323   L 313.19802 539.35294   L 315.0683 539.35294  z    M 315.0683 543.09351   L 315.0683 544.9638   L 313.19802 544.9638   L 313.19802 543.09351   L 315.0683 543.09351  z    M 315.0683 546.83408   L 315.0683 548.70437   L 313.19802 548.70437   L 313.19802 546.83408   L 315.0683 546.83408  z    M 315.0683 550.57466   L 315.0683 552.44494   L 313.19802 552.44494   L 313.19802 550.57466   L 315.0683 550.57466  z    M 315.0683 554.31523   L 315.0683 556.18551   L 313.19802 556.18551   L 313.19802 554.31523   L 315.0683 554.31523  z    M 315.0683 558.0558   L 315.0683 559.92608   L 313.19802 559.92608   L 313.19802 558.0558   L 315.0683 558.0558  z    M 315.0683 561.79637   L 315.0683 563.66665   L 313.19802 563.66665   L 313.19802 561.79637   L 315.0683 561.79637  z    M 315.0683 565.53694   L 315.0683 567.40723   L 313.19802 567.40723   L 313.19802 565.53694   L 315.0683 565.53694  z    M 313.83391 569.8947   L 311.96363 569.8947   L 311.96363 568.02442   L 313.83391 568.02442   L 313.83391 569.8947  z    M 310.09334 569.8947   L 308.22306 569.8947   L 308.22306 568.02442   L 310.09334 568.02442   L 310.09334 569.8947  z    M 306.35277 569.8947   L 304.48248 569.8947   L 304.48248 568.02442   L 306.35277 568.02442   L 306.35277 569.8947  z    M 302.6122 569.8947   L 300.74191 569.8947   L 300.74191 568.02442   L 302.6122 568.02442   L 302.6122 569.8947  z    M 298.87163 569.8947   L 297.00134 569.8947   L 297.00134 568.02442   L 298.87163 568.02442   L 298.87163 569.8947  z    M 295.13106 569.8947   L 293.26077 569.8947   L 293.26077 568.02442   L 295.13106 568.02442   L 295.13106 569.8947  z    M 291.39049 569.8947   L 289.5202 569.8947   L 289.5202 568.02442   L 291.39049 568.02442   L 291.39049 569.8947  z    M 287.64992 569.8947   L 285.77963 569.8947   L 285.77963 568.02442   L 287.64992 568.02442   L 287.64992 569.8947  z    M 283.90934 569.8947   L 282.03906 569.8947   L 282.03906 568.02442   L 283.90934 568.02442   L 283.90934 569.8947  z    M 280.16877 569.8947   L 278.29849 569.8947   L 278.29849 568.02442   L 280.16877 568.02442   L 280.16877 569.8947  z    M 276.4282 569.8947   L 274.55792 569.8947   L 274.55792 568.02442   L 276.4282 568.02442   L 276.4282 569.8947  z    M 272.68763 569.8947   L 270.81735 569.8947   L 270.81735 568.02442   L 272.68763 568.02442   L 272.68763 569.8947  z    M 268.94706 569.8947   L 267.07677 569.8947   L 267.07677 568.02442   L 268.94706 568.02442   L 268.94706 569.8947  z    M 265.20649 569.8947   L 263.3362 569.8947   L 263.3362 568.02442   L 265.20649 568.02442   L 265.20649 569.8947  z    M 261.46592 569.8947   L 259.59563 569.8947   L 259.59563 568.02442   L 261.46592 568.02442   L 261.46592 569.8947  z    M 257.72535 569.8947   L 255.85506 569.8947   L 255.85506 568.02442   L 257.72535 568.02442   L 257.72535 569.8947  z    M 253.98478 569.8947   L 252.11449 569.8947   L 252.11449 568.02442   L 253.98478 568.02442   L 253.98478 569.8947  z    M 250.2442 569.8947   L 248.37392 569.8947   L 248.37392 568.02442   L 250.2442 568.02442   L 250.2442 569.8947  z    M 246.50363 569.8947   L 244.63335 569.8947   L 244.63335 568.02442   L 246.50363 568.02442   L 246.50363 569.8947  z    M 242.76306 569.8947   L 240.89278 569.8947   L 240.89278 568.02442   L 242.76306 568.02442   L 242.76306 569.8947  z    M 239.02249 569.8947   L 237.15221 569.8947   L 237.15221 568.02442   L 239.02249 568.02442   L 239.02249 569.8947  z    M 235.28192 569.8947   L 233.41163 569.8947   L 233.41163 568.02442   L 235.28192 568.02442   L 235.28192 569.8947  z    M 231.54135 569.8947   L 229.67106 569.8947   L 229.67106 568.02442   L 231.54135 568.02442   L 231.54135 569.8947  z    M 227.80078 569.8947   L 225.93049 569.8947   L 225.93049 568.02442   L 227.80078 568.02442   L 227.80078 569.8947  z    M 224.06021 569.8947   L 222.18992 569.8947   L 222.18992 568.02442   L 224.06021 568.02442   L 224.06021 569.8947  z    M 220.31964 569.8947   L 218.44935 569.8947   L 218.44935 568.02442   L 220.31964 568.02442   L 220.31964 569.8947  z    M 216.57906 569.8947   L 214.70878 569.8947   L 214.70878 568.02442   L 216.57906 568.02442   L 216.57906 569.8947  z    M 212.83849 569.8947   L 210.96821 569.8947   L 210.96821 568.02442   L 212.83849 568.02442   L 212.83849 569.8947  z    M 209.09792 569.8947   L 207.22764 569.8947   L 207.22764 568.02442   L 209.09792 568.02442   L 209.09792 569.8947  z    M 205.35735 569.8947   L 203.48707 569.8947   L 203.48707 568.02442   L 205.35735 568.02442   L 205.35735 569.8947  z    M 201.61678 569.8947   L 199.74649 569.8947   L 199.74649 568.02442   L 201.61678 568.02442   L 201.61678 569.8947  z    M 197.87621 569.8947   L 196.00592 569.8947   L 196.00592 568.02442   L 197.87621 568.02442   L 197.87621 569.8947  z    M 194.13564 569.8947   L 192.26535 569.8947   L 192.26535 568.02442   L 194.13564 568.02442   L 194.13564 569.8947  z    M 190.39507 569.8947   L 188.52478 569.8947   L 188.52478 568.02442   L 190.39507 568.02442   L 190.39507 569.8947  z    M 186.6545 569.8947   L 184.78421 569.8947   L 184.78421 568.02442   L 186.6545 568.02442   L 186.6545 569.8947  z    M 182.91393 569.8947   L 181.04364 569.8947   L 181.04364 568.02442   L 182.91393 568.02442   L 182.91393 569.8947  z    M 179.17335 569.8947   L 177.30307 569.8947   L 177.30307 568.02442   L 179.17335 568.02442   L 179.17335 569.8947  z    M 175.43278 569.8947   L 173.5625 569.8947   L 173.5625 568.02442   L 175.43278 568.02442   L 175.43278 569.8947  z    M 171.69221 569.8947   L 169.82193 569.8947   L 169.82193 568.02442   L 171.69221 568.02442   L 171.69221 569.8947  z    M 167.95164 569.8947   L 166.08136 569.8947   L 166.08136 568.02442   L 167.95164 568.02442   L 167.95164 569.8947  z    M 164.21107 569.8947   L 162.34078 569.8947   L 162.34078 568.02442   L 164.21107 568.02442   L 164.21107 569.8947  z    M 160.4705 569.8947   L 158.60021 569.8947   L 158.60021 568.02442   L 160.4705 568.02442   L 160.4705 569.8947  z    M 156.72993 569.8947   L 154.85964 569.8947   L 154.85964 568.02442   L 156.72993 568.02442   L 156.72993 569.8947  z    M 152.98936 569.8947   L 151.41832 569.8947   L 151.41832 568.02442   L 152.98936 568.02442   L 152.98936 569.8947  z   "
       id="path3334" />
    <text
       xml:space="preserve"
       x="157.54038"
       y="552.70992"
       style="font-size:22.443426px;fill:#000000;font-style:normal;font-weight:normal;text-align:start;text-anchor:start;font-family:Arial;"
       id="text3336">tile</text>
    <text
       xml:space="preserve"
       x="186.11834"
       y="552.70992"
       style="font-size:22.443426px;fill:#000000;font-style:normal;font-weight:normal;text-align:start;text-anchor:start;font-family:Arial;"
       id="text3338">-</text>
    <text
       xml:space="preserve"
       x="193.59948"
       y="552.70992"
       style="font-size:22.443426px;fill:#000000;font-style:normal;font-weight:normal;text-align:start;text-anchor:start;font-family:Arial;"
       id="text3340">part header</text>
    <path
       style="fill:none;stroke:#000000;stroke-width:1.8702855px;stroke-linecap:butt;stroke-linejoin:miter;stroke-miterlimit:4;stroke-dasharray:none;stroke-opacity:1;"
       d="  M 151.41832 568.97826   L 314.13316 568.97826   L 314.13316 618.39121   L 151.41832 618.39121  z "
       id="path3342" />
    <text
       xml:space="preserve"
       x="208.56177"
       y="602.11669"
       style="font-size:22.443426px;fill:#000000;font-style:normal;font-weight:normal;text-align:start;text-anchor:start;font-family:Arial;"
       id="text3344">SOD</text>
    <path
       style="fill:none;stroke:#000000;stroke-width:1.8702855px;stroke-linecap:butt;stroke-linejoin:miter;stroke-miterlimit:4;stroke-dasharray:none;stroke-opacity:1;"
       d="  M 151.41832 618.54083   L 314.13316 618.54083   L 314.13316 667.95378   L 151.41832 667.95378  z "
       id="path3346" />
    <text
       xml:space="preserve"
       x="183.57475"
       y="651.67922"
       style="font-size:22.443426px;fill:#000000;font-style:normal;font-weight:normal;text-align:start;text-anchor:start;font-family:Arial;"
       id="text3348">bit stream</text>
    <path
       style="fill:#000000;fill-rule:nonzero;fill-opacity:1;stroke:#000000;stroke-width:0.018702855px;stroke-linecap:butt;stroke-linejoin:round;stroke-dasharray:none;stroke-opacity:1;"
       d="  M 231.07378 378.04081   L 231.07378 381.78139   L 227.33321 381.78139   L 227.33321 378.04081   L 231.07378 378.04081  z    M 231.07378 385.52196   L 231.07378 389.26253   L 227.33321 389.26253   L 227.33321 385.52196   L 231.07378 385.52196  z    M 231.07378 393.0031   L 231.07378 396.74367   L 227.33321 396.74367   L 227.33321 393.0031   L 231.07378 393.0031  z    M 231.07378 400.48424   L 231.07378 404.22481   L 227.33321 404.22481   L 227.33321 400.48424   L 231.07378 400.48424  z    M 231.07378 407.96538   L 231.07378 411.70595   L 227.33321 411.70595   L 227.33321 407.96538   L 231.07378 407.96538  z    M 231.07378 415.44653   L 231.07378 419.1871   L 227.33321 419.1871   L 227.33321 415.44653   L 231.07378 415.44653  z    M 231.07378 422.92767   L 231.07378 426.66824   L 227.33321 426.66824   L 227.33321 422.92767   L 231.07378 422.92767  z    M 231.07378 430.40881   L 231.07378 434.14938   L 227.33321 434.14938   L 227.33321 430.40881   L 231.07378 430.40881  z    M 231.07378 437.88995   L 231.07378 441.63052   L 227.33321 441.63052   L 227.33321 437.88995   L 231.07378 437.88995  z    M 231.07378 445.37109   L 231.07378 449.11167   L 227.33321 449.11167   L 227.33321 445.37109   L 231.07378 445.37109  z    M 231.07378 452.85224   L 231.07378 456.59281   L 227.33321 456.59281   L 227.33321 452.85224   L 231.07378 452.85224  z    M 231.07378 460.33338   L 231.07378 462.98918   L 227.33321 462.98918   L 227.33321 460.33338   L 231.07378 460.33338  z   "
       id="path3350" />
    <path
       style="fill:none;stroke:#000000;stroke-width:1.8702855px;stroke-linecap:butt;stroke-linejoin:miter;stroke-miterlimit:4;stroke-dasharray:none;stroke-opacity:1;"
       d="  M 151.41832 667.95378   L 314.13316 667.95378   L 314.13316 717.36672   L 151.41832 717.36672  z "
       id="path3352" />
    <text
       xml:space="preserve"
       x="208.56177"
       y="701.08588"
       style="font-size:22.443426px;fill:#000000;font-style:normal;font-weight:normal;text-align:start;text-anchor:start;font-family:Arial;"
       id="text3354">EOC</text>
    <path
       style="fill:none;stroke:#000000;stroke-width:1.8702855px;stroke-linecap:butt;stroke-linejoin:round;stroke-dasharray:none;stroke-opacity:1;"
       d="  M 144.40475 364.01367   C 142.47835 364.01367 140.90731 357.16843 140.90731 348.69603   L 140.90731 287.44418   C 140.90731 278.99049 139.33627 272.14525 137.39118 272.14525   C 139.33627 272.14525 140.90731 265.2813 140.90731 256.82761   L 140.90731 195.57576   C 140.90731 187.12207 142.47835 180.25812 144.40475 180.25812 "
       id="path3356" />
    <path
       style="fill:none;stroke:#000000;stroke-width:1.8702855px;stroke-linecap:butt;stroke-linejoin:round;stroke-dasharray:none;stroke-opacity:1;"
       d="  M 144.42345 660.77188   C 142.47835 660.77188 140.90731 653.92663 140.90731 645.47294   L 140.90731 584.20239   C 140.90731 575.7487 139.33627 568.90345 137.39118 568.90345   C 139.33627 568.90345 140.90731 562.05821 140.90731 553.60452   L 140.90731 492.33396   C 140.90731 483.88027 142.47835 477.03503 144.42345 477.03503 "
       id="path3358" />
    <text
       xml:space="preserve"
       x="19.108133"
       y="277.2636"
       style="font-size:22.443426px;fill:#000000;font-style:normal;font-weight:normal;text-align:start;text-anchor:start;font-family:Arial;"
       id="text3360">tile part 0</text>
    <text
       xml:space="preserve"
       x="19.108133"
       y="580.56158"
       style="font-size:22.443426px;fill:#000000;font-style:normal;font-weight:normal;text-align:start;text-anchor:start;font-family:Arial;"
       id="text3362">tile part </text>
    <text
       xml:space="preserve"
       x="98.857108"
       y="580.56158"
       style="font-size:22.443426px;fill:#000000;font-style:italic;font-weight:normal;text-align:start;text-anchor:start;font-family:Arial;"
       id="text3364">n</text>
    <path
       style="fill:#000000;fill-rule:nonzero;fill-opacity:1;stroke:#000000;stroke-width:0.018702855px;stroke-linecap:butt;stroke-linejoin:round;stroke-dasharray:none;stroke-opacity:1;"
       d="  M 314.13316 200.36369   L 364.48124 200.36369   L 364.48124 202.23397   L 314.13316 202.23397   L 314.13316 200.36369  z    M 363.22815 197.55826   L 370.7093 201.29883   L 363.22815 205.0394   L 363.22815 197.55826  z   "
       id="path3366" />
    <text
       xml:space="preserve"
       x="372.59211"
       y="206.50445"
       style="font-size:22.443426px;fill:#000000;font-style:normal;font-weight:normal;text-align:start;text-anchor:start;font-family:Arial;"
       id="text3368">Psot 0</text>
    <text
       xml:space="preserve"
       x="372.59211"
       y="255.43112"
       style="font-size:17.505873px;fill:#000000;font-style:normal;font-weight:normal;text-align:start;text-anchor:start;font-family:Arial;"
       id="text3370">= length {SOT + tile</text>
    <text
       xml:space="preserve"
       x="523.26231"
       y="255.43112"
       style="font-size:17.505873px;fill:#000000;font-style:normal;font-weight:normal;text-align:start;text-anchor:start;font-family:Arial;"
       id="text3372">-</text>
    <text
       xml:space="preserve"
       x="529.0976"
       y="255.43112"
       style="font-size:17.505873px;fill:#000000;font-style:normal;font-weight:normal;text-align:start;text-anchor:start;font-family:Arial;"
       id="text3374">part </text>
    <text
       xml:space="preserve"
       x="372.59211"
       y="276.37832"
       style="font-size:17.505873px;fill:#000000;font-style:normal;font-weight:normal;text-align:start;text-anchor:start;font-family:Arial;"
       id="text3376">header + SOD + bitstream}</text>
    <path
       style="fill:#000000;fill-rule:nonzero;fill-opacity:1;stroke:#000000;stroke-width:0.018702855px;stroke-linecap:butt;stroke-linejoin:round;stroke-dasharray:none;stroke-opacity:1;"
       d="  M 314.13316 497.27152   L 364.48124 497.27152   L 364.48124 499.1418   L 314.13316 499.1418   L 314.13316 497.27152  z    M 363.22815 494.46609   L 370.7093 498.20666   L 363.22815 501.94723   L 363.22815 494.46609  z   "
       id="path3378" />
    <text
       xml:space="preserve"
       x="372.59211"
       y="504.81501"
       style="font-size:22.443426px;fill:#000000;font-style:normal;font-weight:normal;text-align:start;text-anchor:start;font-family:Arial;"
       id="text3380">Psot </text>
    <text
       xml:space="preserve"
       x="423.76312"
       y="504.81501"
       style="font-size:22.443426px;fill:#000000;font-style:italic;font-weight:normal;text-align:start;text-anchor:start;font-family:Arial;"
       id="text3382">n</text>
    <path
       style="fill:none;stroke:#000000;stroke-width:1.8702855px;stroke-linecap:butt;stroke-linejoin:miter;stroke-miterlimit:4;stroke-dasharray:none;stroke-opacity:1;"
       d="  M 342.82334 623.06692   L 654.71215 623.06692   L 654.71215 717.51634   L 342.82334 717.51634  z "
       id="path3384" />
    <text
       xml:space="preserve"
       x="351.86306"
       y="644.51289"
       style="font-size:17.505873px;fill:#000000;font-style:normal;font-weight:bold;text-align:start;text-anchor:start;font-family:Arial;"
       id="text3386">SOC</text>
    <text
       xml:space="preserve"
       x="389.71764"
       y="644.51289"
       style="font-size:17.505873px;fill:#000000;font-style:normal;font-weight:normal;text-align:start;text-anchor:start;font-family:Arial;"
       id="text3388">: start of codestream marker</text>
    <text
       xml:space="preserve"
       x="351.86306"
       y="665.46009"
       style="font-size:17.505873px;fill:#000000;font-style:normal;font-weight:bold;text-align:start;text-anchor:start;font-family:Arial;"
       id="text3390">SOT</text>
    <text
       xml:space="preserve"
       x="387.77255"
       y="665.46009"
       style="font-size:17.505873px;fill:#000000;font-style:normal;font-weight:normal;text-align:start;text-anchor:start;font-family:Arial;"
       id="text3392">: start of tile</text>
    <text
       xml:space="preserve"
       x="477.8455"
       y="665.46009"
       style="font-size:17.505873px;fill:#000000;font-style:normal;font-weight:normal;text-align:start;text-anchor:start;font-family:Arial;"
       id="text3394">-</text>
    <text
       xml:space="preserve"
       x="483.68079"
       y="665.46009"
       style="font-size:17.505873px;fill:#000000;font-style:normal;font-weight:normal;text-align:start;text-anchor:start;font-family:Arial;"
       id="text3396">part marker segment</text>
    <text
       xml:space="preserve"
       x="351.86306"
       y="686.40728"
       style="font-size:17.505873px;fill:#000000;font-style:normal;font-weight:bold;text-align:start;text-anchor:start;font-family:Arial;"
       id="text3398">SOD</text>
    <text
       xml:space="preserve"
       x="389.71764"
       y="686.40728"
       style="font-size:17.505873px;fill:#000000;font-style:normal;font-weight:normal;text-align:start;text-anchor:start;font-family:Arial;"
       id="text3400">: start of data marker</text>
    <text
       xml:space="preserve"
       x="351.86306"
       y="707.35448"
       style="font-size:17.505873px;fill:#000000;font-style:normal;font-weight:bold;text-align:start;text-anchor:start;font-family:Arial;"
       id="text3402">EOC</text>
    <text
       xml:space="preserve"
       x="389.71764"
       y="707.35448"
       style="font-size:17.505873px;fill:#000000;font-style:normal;font-weight:normal;text-align:start;text-anchor:start;font-family:Arial;"
       id="text3404">: end of codestream marker</text>
  </g>
</svg>
