<?xml version="1.0" encoding="UTF-8" standalone="no"?>
<svg
   xmlns:dc="http://purl.org/dc/elements/1.1/"
   xmlns:cc="http://creativecommons.org/ns#"
   xmlns:rdf="http://www.w3.org/1999/02/22-rdf-syntax-ns#"
   xmlns:svg="http://www.w3.org/2000/svg"
   xmlns="http://www.w3.org/2000/svg"
   xmlns:sodipodi="http://sodipodi.sourceforge.net/DTD/sodipodi-0.dtd"
   xmlns:inkscape="http://www.inkscape.org/namespaces/inkscape"
   version="1.0"
   width="189.98mm"
   height="253.55mm"
   id="svg3236"
   inkscape:version="0.92.3 (2405546, 2018-03-11)"
   sodipodi:docname="jp2FormatStructure.svg"
   inkscape:export-filename="/home/johan/jpylyzer/doc/images/jp2FormatStructure.png"
   inkscape:export-xdpi="105.65"
   inkscape:export-ydpi="105.65">
  <metadata
     id="metadata3292">
    <rdf:RDF>
      <cc:Work
         rdf:about="">
        <dc:format>image/svg+xml</dc:format>
        <dc:type
           rdf:resource="http://purl.org/dc/dcmitype/StillImage" />
        <dc:title></dc:title>
      </cc:Work>
    </rdf:RDF>
  </metadata>
  <sodipodi:namedview
     pagecolor="#ffffff"
     bordercolor="#666666"
     borderopacity="1"
     objecttolerance="10"
     gridtolerance="10"
     guidetolerance="10"
     inkscape:pageopacity="1"
     inkscape:pageshadow="2"
     inkscape:window-width="1872"
     inkscape:window-height="1029"
     id="namedview3290"
     showgrid="false"
     inkscape:zoom="1.0507504"
     inkscape:cx="156.70729"
     inkscape:cy="639.5429"
     inkscape:window-x="48"
     inkscape:window-y="0"
     inkscape:window-maximized="1"
     inkscape:current-layer="g3240" />
  <defs
     id="defs3238" />
  <g
     id="g3240">
    <path
       style="fill:none;stroke:#000000;stroke-width:1.8702855px;stroke-linecap:butt;stroke-linejoin:miter;stroke-miterlimit:4;stroke-dasharray:none;stroke-opacity:1;"
       d="  M 67.891365 95.496779   L 520.35084 95.496779   L 520.35084 675.09827   L 67.891365 675.09827  z "
       id="path3244" />
    <path
       style="fill:none;stroke:#000000;stroke-width:1.8702855px;stroke-linecap:butt;stroke-linejoin:miter;stroke-miterlimit:4;stroke-dasharray:none;stroke-opacity:1;"
       d="  M 159.8346 165.91303   L 506.305 165.91303   L 506.305 201.29883   L 159.8346 201.29883  z "
       id="path3246" />
    <text
       xml:space="preserve"
       x="206.33926"
       y="191.60767"
       style="font-style:normal;font-weight:bold;font-size:19.89983749px;line-height:0%;font-family:Tahoma;text-align:start;text-anchor:start;fill:#000000"
       id="text3248">JPEG 2000 Signature box</text>
    <path
       style="fill:none;stroke:#000000;stroke-width:1.8702855px;stroke-linecap:butt;stroke-linejoin:miter;stroke-miterlimit:4;stroke-dasharray:none;stroke-opacity:1;"
       d="  M 159.8346 321.46468   L 506.305 321.46468   L 506.305 356.85048   L 159.8346 356.85048  z "
       id="path3250" />
    <text
       xml:space="preserve"
       x="182.54924"
       y="347.15308"
       style="font-style:normal;font-weight:bold;font-size:19.89983749px;line-height:0%;font-family:Tahoma;text-align:start;text-anchor:start;fill:#000000"
       id="text3252">Contiguous Codestream box </text>
    <path
       style="fill:none;stroke:#000000;stroke-width:1.8702855px;stroke-linecap:butt;stroke-linejoin:miter;stroke-miterlimit:4;stroke-dasharray:none;stroke-opacity:1;"
       d="  M 159.8346 217.66383   L 506.305 217.66383   L 506.305 253.04963   L 159.8346 253.04963  z "
       id="path3256" />
    <text
       xml:space="preserve"
       x="266.93649"
       y="243.35222"
       style="font-style:normal;font-weight:bold;font-size:19.89983749px;line-height:0%;font-family:Tahoma;text-align:start;text-anchor:start;fill:#000000"
       id="text3258">File Type box</text>
    <path
       style="fill:none;stroke:#000000;stroke-width:1.8702855px;stroke-linecap:butt;stroke-linejoin:miter;stroke-miterlimit:4;stroke-dasharray:none;stroke-opacity:1;"
       d="  M 159.8346 269.56425   L 506.305 269.56425   L 506.305 304.95006   L 159.8346 304.95006  z "
       id="path3260" />
    <text
       xml:space="preserve"
       x="196.31764"
       y="295.25266"
       style="font-style:normal;font-weight:bold;font-size:19.89983749px;line-height:0%;font-family:Tahoma;text-align:start;text-anchor:start;fill:#000000"
       id="text3262">JP2 Header box (superbox)</text>
    <path
       style="fill:#000000;fill-rule:nonzero;fill-opacity:1;stroke:#000000;stroke-width:0.018702855px;stroke-linecap:butt;stroke-linejoin:round;stroke-dasharray:none;stroke-opacity:1;"
       d="  M 158.89946 451.91709   L 158.89946 444.43595   L 160.76974 444.43595   L 160.76974 451.91709   L 158.89946 451.91709  z    M 158.89946 438.82509   L 158.89946 431.34395   L 160.76974 431.34395   L 160.76974 438.82509   L 158.89946 438.82509  z    M 158.89946 425.7331   L 158.89946 418.25195   L 160.76974 418.25195   L 160.76974 425.7331   L 158.89946 425.7331  z    M 163.7435 415.59615   L 171.22464 415.59615   L 171.22464 417.46643   L 163.7435 417.46643   L 163.7435 415.59615  z    M 176.8355 415.59615   L 184.31664 415.59615   L 184.31664 417.46643   L 176.8355 417.46643   L 176.8355 415.59615  z    M 189.9275 415.59615   L 197.40864 415.59615   L 197.40864 417.46643   L 189.9275 417.46643   L 189.9275 415.59615  z    M 203.01949 415.59615   L 210.50064 415.59615   L 210.50064 417.46643   L 203.01949 417.46643   L 203.01949 415.59615  z    M 216.11149 415.59615   L 223.59264 415.59615   L 223.59264 417.46643   L 216.11149 417.46643   L 216.11149 415.59615  z    M 229.20349 415.59615   L 236.68463 415.59615   L 236.68463 417.46643   L 229.20349 417.46643   L 229.20349 415.59615  z    M 242.29549 415.59615   L 249.77663 415.59615   L 249.77663 417.46643   L 242.29549 417.46643   L 242.29549 415.59615  z    M 255.38749 415.59615   L 262.86863 415.59615   L 262.86863 417.46643   L 255.38749 417.46643   L 255.38749 415.59615  z    M 268.47949 415.59615   L 275.96063 415.59615   L 275.96063 417.46643   L 268.47949 417.46643   L 268.47949 415.59615  z    M 281.57149 415.59615   L 289.05263 415.59615   L 289.05263 417.46643   L 281.57149 417.46643   L 281.57149 415.59615  z    M 294.66349 415.59615   L 302.14463 415.59615   L 302.14463 417.46643   L 294.66349 417.46643   L 294.66349 415.59615  z    M 307.75548 415.59615   L 315.23663 415.59615   L 315.23663 417.46643   L 307.75548 417.46643   L 307.75548 415.59615  z    M 320.84748 415.59615   L 328.32863 415.59615   L 328.32863 417.46643   L 320.84748 417.46643   L 320.84748 415.59615  z    M 333.93948 415.59615   L 341.42062 415.59615   L 341.42062 417.46643   L 333.93948 417.46643   L 333.93948 415.59615  z    M 347.03148 415.59615   L 354.51262 415.59615   L 354.51262 417.46643   L 347.03148 417.46643   L 347.03148 415.59615  z    M 360.12348 415.59615   L 367.60462 415.59615   L 367.60462 417.46643   L 360.12348 417.46643   L 360.12348 415.59615  z    M 373.21548 415.59615   L 380.69662 415.59615   L 380.69662 417.46643   L 373.21548 417.46643   L 373.21548 415.59615  z    M 386.30748 415.59615   L 393.78862 415.59615   L 393.78862 417.46643   L 386.30748 417.46643   L 386.30748 415.59615  z    M 399.39948 415.59615   L 406.88062 415.59615   L 406.88062 417.46643   L 399.39948 417.46643   L 399.39948 415.59615  z    M 412.49147 415.59615   L 419.97262 415.59615   L 419.97262 417.46643   L 412.49147 417.46643   L 412.49147 415.59615  z    M 425.58347 415.59615   L 433.06462 415.59615   L 433.06462 417.46643   L 425.58347 417.46643   L 425.58347 415.59615  z    M 438.67547 415.59615   L 446.15661 415.59615   L 446.15661 417.46643   L 438.67547 417.46643   L 438.67547 415.59615  z    M 451.76747 415.59615   L 459.24861 415.59615   L 459.24861 417.46643   L 451.76747 417.46643   L 451.76747 415.59615  z    M 464.85947 415.59615   L 472.34061 415.59615   L 472.34061 417.46643   L 464.85947 417.46643   L 464.85947 415.59615  z    M 477.95147 415.59615   L 485.43261 415.59615   L 485.43261 417.46643   L 477.95147 417.46643   L 477.95147 415.59615  z    M 491.04347 415.59615   L 498.52461 415.59615   L 498.52461 417.46643   L 491.04347 417.46643   L 491.04347 415.59615  z    M 504.13547 415.59615   L 507.24014 415.59615   L 507.24014 421.8429   L 505.36985 421.8429   L 505.36985 416.53129   L 506.305 417.46643   L 504.13547 417.46643   L 504.13547 415.59615  z    M 507.24014 427.45376   L 507.24014 434.9349   L 505.36985 434.9349   L 505.36985 427.45376   L 507.24014 427.45376  z    M 507.24014 440.54576   L 507.24014 448.0269   L 505.36985 448.0269   L 505.36985 440.54576   L 507.24014 440.54576  z    M 504.60304 452.85224   L 497.12189 452.85224   L 497.12189 450.98195   L 504.60304 450.98195   L 504.60304 452.85224  z    M 491.51104 452.85224   L 484.0299 452.85224   L 484.0299 450.98195   L 491.51104 450.98195   L 491.51104 452.85224  z    M 478.41904 452.85224   L 470.9379 452.85224   L 470.9379 450.98195   L 478.41904 450.98195   L 478.41904 452.85224  z    M 465.32704 452.85224   L 457.8459 452.85224   L 457.8459 450.98195   L 465.32704 450.98195   L 465.32704 452.85224  z    M 452.23504 452.85224   L 444.7539 452.85224   L 444.7539 450.98195   L 452.23504 450.98195   L 452.23504 452.85224  z    M 439.14304 452.85224   L 431.6619 452.85224   L 431.6619 450.98195   L 439.14304 450.98195   L 439.14304 452.85224  z    M 426.05104 452.85224   L 418.5699 452.85224   L 418.5699 450.98195   L 426.05104 450.98195   L 426.05104 452.85224  z    M 412.95905 452.85224   L 405.4779 452.85224   L 405.4779 450.98195   L 412.95905 450.98195   L 412.95905 452.85224  z    M 399.86705 452.85224   L 392.3859 452.85224   L 392.3859 450.98195   L 399.86705 450.98195   L 399.86705 452.85224  z    M 386.77505 452.85224   L 379.29391 452.85224   L 379.29391 450.98195   L 386.77505 450.98195   L 386.77505 452.85224  z    M 373.68305 452.85224   L 366.20191 452.85224   L 366.20191 450.98195   L 373.68305 450.98195   L 373.68305 452.85224  z    M 360.59105 452.85224   L 353.10991 452.85224   L 353.10991 450.98195   L 360.59105 450.98195   L 360.59105 452.85224  z    M 347.49905 452.85224   L 340.01791 452.85224   L 340.01791 450.98195   L 347.49905 450.98195   L 347.49905 452.85224  z    M 334.40705 452.85224   L 326.92591 452.85224   L 326.92591 450.98195   L 334.40705 450.98195   L 334.40705 452.85224  z    M 321.31505 452.85224   L 313.83391 452.85224   L 313.83391 450.98195   L 321.31505 450.98195   L 321.31505 452.85224  z    M 308.22306 452.85224   L 300.74191 452.85224   L 300.74191 450.98195   L 308.22306 450.98195   L 308.22306 452.85224  z    M 295.13106 452.85224   L 287.64992 452.85224   L 287.64992 450.98195   L 295.13106 450.98195   L 295.13106 452.85224  z    M 282.03906 452.85224   L 274.55792 452.85224   L 274.55792 450.98195   L 282.03906 450.98195   L 282.03906 452.85224  z    M 268.94706 452.85224   L 261.46592 452.85224   L 261.46592 450.98195   L 268.94706 450.98195   L 268.94706 452.85224  z    M 255.85506 452.85224   L 248.37392 452.85224   L 248.37392 450.98195   L 255.85506 450.98195   L 255.85506 452.85224  z    M 242.76306 452.85224   L 235.28192 452.85224   L 235.28192 450.98195   L 242.76306 450.98195   L 242.76306 452.85224  z    M 229.67106 452.85224   L 222.18992 452.85224   L 222.18992 450.98195   L 229.67106 450.98195   L 229.67106 452.85224  z    M 216.57906 452.85224   L 209.09792 452.85224   L 209.09792 450.98195   L 216.57906 450.98195   L 216.57906 452.85224  z    M 203.48707 452.85224   L 196.00592 452.85224   L 196.00592 450.98195   L 203.48707 450.98195   L 203.48707 452.85224  z    M 190.39507 452.85224   L 182.91393 452.85224   L 182.91393 450.98195   L 190.39507 450.98195   L 190.39507 452.85224  z    M 177.30307 452.85224   L 169.82193 452.85224   L 169.82193 450.98195   L 177.30307 450.98195   L 177.30307 452.85224  z    M 164.21107 452.85224   L 159.8346 452.85224   L 159.8346 450.98195   L 164.21107 450.98195   L 164.21107 452.85224  z   "
       id="path3264" />
    <text
       xml:space="preserve"
       x="182.54924"
       y="442.22592"
       style="font-style:normal;font-weight:bold;font-size:19.89983749px;line-height:0%;font-family:Tahoma;text-align:start;text-anchor:start;fill:#000000"
       id="text3266">Contiguous Codestream box </text>
    <path
       style="fill:#000000;fill-rule:nonzero;fill-opacity:1;stroke:#000000;stroke-width:0.018702855px;stroke-linecap:butt;stroke-linejoin:round;stroke-dasharray:none;stroke-opacity:1;"
       d="  M 158.89946 500.54452   L 158.89946 493.06338   L 160.76974 493.06338   L 160.76974 500.54452   L 158.89946 500.54452  z    M 158.89946 487.45252   L 158.89946 479.97138   L 160.76974 479.97138   L 160.76974 487.45252   L 158.89946 487.45252  z    M 158.89946 474.36052   L 158.89946 466.87938   L 160.76974 466.87938   L 160.76974 474.36052   L 158.89946 474.36052  z    M 163.7435 464.22357   L 171.22464 464.22357   L 171.22464 466.09386   L 163.7435 466.09386   L 163.7435 464.22357  z    M 176.8355 464.22357   L 184.31664 464.22357   L 184.31664 466.09386   L 176.8355 466.09386   L 176.8355 464.22357  z    M 189.9275 464.22357   L 197.40864 464.22357   L 197.40864 466.09386   L 189.9275 466.09386   L 189.9275 464.22357  z    M 203.01949 464.22357   L 210.50064 464.22357   L 210.50064 466.09386   L 203.01949 466.09386   L 203.01949 464.22357  z    M 216.11149 464.22357   L 223.59264 464.22357   L 223.59264 466.09386   L 216.11149 466.09386   L 216.11149 464.22357  z    M 229.20349 464.22357   L 236.68463 464.22357   L 236.68463 466.09386   L 229.20349 466.09386   L 229.20349 464.22357  z    M 242.29549 464.22357   L 249.77663 464.22357   L 249.77663 466.09386   L 242.29549 466.09386   L 242.29549 464.22357  z    M 255.38749 464.22357   L 262.86863 464.22357   L 262.86863 466.09386   L 255.38749 466.09386   L 255.38749 464.22357  z    M 268.47949 464.22357   L 275.96063 464.22357   L 275.96063 466.09386   L 268.47949 466.09386   L 268.47949 464.22357  z    M 281.57149 464.22357   L 289.05263 464.22357   L 289.05263 466.09386   L 281.57149 466.09386   L 281.57149 464.22357  z    M 294.66349 464.22357   L 302.14463 464.22357   L 302.14463 466.09386   L 294.66349 466.09386   L 294.66349 464.22357  z    M 307.75548 464.22357   L 315.23663 464.22357   L 315.23663 466.09386   L 307.75548 466.09386   L 307.75548 464.22357  z    M 320.84748 464.22357   L 328.32863 464.22357   L 328.32863 466.09386   L 320.84748 466.09386   L 320.84748 464.22357  z    M 333.93948 464.22357   L 341.42062 464.22357   L 341.42062 466.09386   L 333.93948 466.09386   L 333.93948 464.22357  z    M 347.03148 464.22357   L 354.51262 464.22357   L 354.51262 466.09386   L 347.03148 466.09386   L 347.03148 464.22357  z    M 360.12348 464.22357   L 367.60462 464.22357   L 367.60462 466.09386   L 360.12348 466.09386   L 360.12348 464.22357  z    M 373.21548 464.22357   L 380.69662 464.22357   L 380.69662 466.09386   L 373.21548 466.09386   L 373.21548 464.22357  z    M 386.30748 464.22357   L 393.78862 464.22357   L 393.78862 466.09386   L 386.30748 466.09386   L 386.30748 464.22357  z    M 399.39948 464.22357   L 406.88062 464.22357   L 406.88062 466.09386   L 399.39948 466.09386   L 399.39948 464.22357  z    M 412.49147 464.22357   L 419.97262 464.22357   L 419.97262 466.09386   L 412.49147 466.09386   L 412.49147 464.22357  z    M 425.58347 464.22357   L 433.06462 464.22357   L 433.06462 466.09386   L 425.58347 466.09386   L 425.58347 464.22357  z    M 438.67547 464.22357   L 446.15661 464.22357   L 446.15661 466.09386   L 438.67547 466.09386   L 438.67547 464.22357  z    M 451.76747 464.22357   L 459.24861 464.22357   L 459.24861 466.09386   L 451.76747 466.09386   L 451.76747 464.22357  z    M 464.85947 464.22357   L 472.34061 464.22357   L 472.34061 466.09386   L 464.85947 466.09386   L 464.85947 464.22357  z    M 477.95147 464.22357   L 485.43261 464.22357   L 485.43261 466.09386   L 477.95147 466.09386   L 477.95147 464.22357  z    M 491.04347 464.22357   L 498.52461 464.22357   L 498.52461 466.09386   L 491.04347 466.09386   L 491.04347 464.22357  z    M 504.13547 464.22357   L 507.24014 464.22357   L 507.24014 470.47033   L 505.36985 470.47033   L 505.36985 465.15872   L 506.305 466.09386   L 504.13547 466.09386   L 504.13547 464.22357  z    M 507.24014 476.08118   L 507.24014 483.56232   L 505.36985 483.56232   L 505.36985 476.08118   L 507.24014 476.08118  z    M 507.24014 489.17318   L 507.24014 496.65432   L 505.36985 496.65432   L 505.36985 489.17318   L 507.24014 489.17318  z    M 504.60304 501.47966   L 497.12189 501.47966   L 497.12189 499.60937   L 504.60304 499.60937   L 504.60304 501.47966  z    M 491.51104 501.47966   L 484.0299 501.47966   L 484.0299 499.60937   L 491.51104 499.60937   L 491.51104 501.47966  z    M 478.41904 501.47966   L 470.9379 501.47966   L 470.9379 499.60937   L 478.41904 499.60937   L 478.41904 501.47966  z    M 465.32704 501.47966   L 457.8459 501.47966   L 457.8459 499.60937   L 465.32704 499.60937   L 465.32704 501.47966  z    M 452.23504 501.47966   L 444.7539 501.47966   L 444.7539 499.60937   L 452.23504 499.60937   L 452.23504 501.47966  z    M 439.14304 501.47966   L 431.6619 501.47966   L 431.6619 499.60937   L 439.14304 499.60937   L 439.14304 501.47966  z    M 426.05104 501.47966   L 418.5699 501.47966   L 418.5699 499.60937   L 426.05104 499.60937   L 426.05104 501.47966  z    M 412.95905 501.47966   L 405.4779 501.47966   L 405.4779 499.60937   L 412.95905 499.60937   L 412.95905 501.47966  z    M 399.86705 501.47966   L 392.3859 501.47966   L 392.3859 499.60937   L 399.86705 499.60937   L 399.86705 501.47966  z    M 386.77505 501.47966   L 379.29391 501.47966   L 379.29391 499.60937   L 386.77505 499.60937   L 386.77505 501.47966  z    M 373.68305 501.47966   L 366.20191 501.47966   L 366.20191 499.60937   L 373.68305 499.60937   L 373.68305 501.47966  z    M 360.59105 501.47966   L 353.10991 501.47966   L 353.10991 499.60937   L 360.59105 499.60937   L 360.59105 501.47966  z    M 347.49905 501.47966   L 340.01791 501.47966   L 340.01791 499.60937   L 347.49905 499.60937   L 347.49905 501.47966  z    M 334.40705 501.47966   L 326.92591 501.47966   L 326.92591 499.60937   L 334.40705 499.60937   L 334.40705 501.47966  z    M 321.31505 501.47966   L 313.83391 501.47966   L 313.83391 499.60937   L 321.31505 499.60937   L 321.31505 501.47966  z    M 308.22306 501.47966   L 300.74191 501.47966   L 300.74191 499.60937   L 308.22306 499.60937   L 308.22306 501.47966  z    M 295.13106 501.47966   L 287.64992 501.47966   L 287.64992 499.60937   L 295.13106 499.60937   L 295.13106 501.47966  z    M 282.03906 501.47966   L 274.55792 501.47966   L 274.55792 499.60937   L 282.03906 499.60937   L 282.03906 501.47966  z    M 268.94706 501.47966   L 261.46592 501.47966   L 261.46592 499.60937   L 268.94706 499.60937   L 268.94706 501.47966  z    M 255.85506 501.47966   L 248.37392 501.47966   L 248.37392 499.60937   L 255.85506 499.60937   L 255.85506 501.47966  z    M 242.76306 501.47966   L 235.28192 501.47966   L 235.28192 499.60937   L 242.76306 499.60937   L 242.76306 501.47966  z    M 229.67106 501.47966   L 222.18992 501.47966   L 222.18992 499.60937   L 229.67106 499.60937   L 229.67106 501.47966  z    M 216.57906 501.47966   L 209.09792 501.47966   L 209.09792 499.60937   L 216.57906 499.60937   L 216.57906 501.47966  z    M 203.48707 501.47966   L 196.00592 501.47966   L 196.00592 499.60937   L 203.48707 499.60937   L 203.48707 501.47966  z    M 190.39507 501.47966   L 182.91393 501.47966   L 182.91393 499.60937   L 190.39507 499.60937   L 190.39507 501.47966  z    M 177.30307 501.47966   L 169.82193 501.47966   L 169.82193 499.60937   L 177.30307 499.60937   L 177.30307 501.47966  z    M 164.21107 501.47966   L 159.8346 501.47966   L 159.8346 499.60937   L 164.21107 499.60937   L 164.21107 501.47966  z   "
       id="path3270" />
    <text
       xml:space="preserve"
       x="293.12048"
       y="490.85333"
       style="font-style:normal;font-weight:bold;font-size:19.89983749px;line-height:0%;font-family:Tahoma;text-align:start;text-anchor:start;fill:#000000"
       id="text3272">IPR box</text>
    <path
       style="fill:#000000;fill-rule:nonzero;fill-opacity:1;stroke:#000000;stroke-width:0.018702855px;stroke-linecap:butt;stroke-linejoin:round;stroke-dasharray:none;stroke-opacity:1;"
       d="  M 158.89946 549.32156   L 158.89946 541.84042   L 160.76974 541.84042   L 160.76974 549.32156   L 158.89946 549.32156  z    M 158.89946 536.22957   L 158.89946 528.74842   L 160.76974 528.74842   L 160.76974 536.22957   L 158.89946 536.22957  z    M 158.89946 523.13757   L 158.89946 515.65642   L 160.76974 515.65642   L 160.76974 523.13757   L 158.89946 523.13757  z    M 163.7435 513.01932   L 171.22464 513.01932   L 171.22464 514.88961   L 163.7435 514.88961   L 163.7435 513.01932  z    M 176.8355 513.01932   L 184.31664 513.01932   L 184.31664 514.88961   L 176.8355 514.88961   L 176.8355 513.01932  z    M 189.9275 513.01932   L 197.40864 513.01932   L 197.40864 514.88961   L 189.9275 514.88961   L 189.9275 513.01932  z    M 203.01949 513.01932   L 210.50064 513.01932   L 210.50064 514.88961   L 203.01949 514.88961   L 203.01949 513.01932  z    M 216.11149 513.01932   L 223.59264 513.01932   L 223.59264 514.88961   L 216.11149 514.88961   L 216.11149 513.01932  z    M 229.20349 513.01932   L 236.68463 513.01932   L 236.68463 514.88961   L 229.20349 514.88961   L 229.20349 513.01932  z    M 242.29549 513.01932   L 249.77663 513.01932   L 249.77663 514.88961   L 242.29549 514.88961   L 242.29549 513.01932  z    M 255.38749 513.01932   L 262.86863 513.01932   L 262.86863 514.88961   L 255.38749 514.88961   L 255.38749 513.01932  z    M 268.47949 513.01932   L 275.96063 513.01932   L 275.96063 514.88961   L 268.47949 514.88961   L 268.47949 513.01932  z    M 281.57149 513.01932   L 289.05263 513.01932   L 289.05263 514.88961   L 281.57149 514.88961   L 281.57149 513.01932  z    M 294.66349 513.01932   L 302.14463 513.01932   L 302.14463 514.88961   L 294.66349 514.88961   L 294.66349 513.01932  z    M 307.75548 513.01932   L 315.23663 513.01932   L 315.23663 514.88961   L 307.75548 514.88961   L 307.75548 513.01932  z    M 320.84748 513.01932   L 328.32863 513.01932   L 328.32863 514.88961   L 320.84748 514.88961   L 320.84748 513.01932  z    M 333.93948 513.01932   L 341.42062 513.01932   L 341.42062 514.88961   L 333.93948 514.88961   L 333.93948 513.01932  z    M 347.03148 513.01932   L 354.51262 513.01932   L 354.51262 514.88961   L 347.03148 514.88961   L 347.03148 513.01932  z    M 360.12348 513.01932   L 367.60462 513.01932   L 367.60462 514.88961   L 360.12348 514.88961   L 360.12348 513.01932  z    M 373.21548 513.01932   L 380.69662 513.01932   L 380.69662 514.88961   L 373.21548 514.88961   L 373.21548 513.01932  z    M 386.30748 513.01932   L 393.78862 513.01932   L 393.78862 514.88961   L 386.30748 514.88961   L 386.30748 513.01932  z    M 399.39948 513.01932   L 406.88062 513.01932   L 406.88062 514.88961   L 399.39948 514.88961   L 399.39948 513.01932  z    M 412.49147 513.01932   L 419.97262 513.01932   L 419.97262 514.88961   L 412.49147 514.88961   L 412.49147 513.01932  z    M 425.58347 513.01932   L 433.06462 513.01932   L 433.06462 514.88961   L 425.58347 514.88961   L 425.58347 513.01932  z    M 438.67547 513.01932   L 446.15661 513.01932   L 446.15661 514.88961   L 438.67547 514.88961   L 438.67547 513.01932  z    M 451.76747 513.01932   L 459.24861 513.01932   L 459.24861 514.88961   L 451.76747 514.88961   L 451.76747 513.01932  z    M 464.85947 513.01932   L 472.34061 513.01932   L 472.34061 514.88961   L 464.85947 514.88961   L 464.85947 513.01932  z    M 477.95147 513.01932   L 485.43261 513.01932   L 485.43261 514.88961   L 477.95147 514.88961   L 477.95147 513.01932  z    M 491.04347 513.01932   L 498.52461 513.01932   L 498.52461 514.88961   L 491.04347 514.88961   L 491.04347 513.01932  z    M 504.13547 513.01932   L 507.24014 513.01932   L 507.24014 519.24737   L 505.36985 519.24737   L 505.36985 513.95446   L 506.305 514.88961   L 504.13547 514.88961   L 504.13547 513.01932  z    M 507.24014 524.85823   L 507.24014 532.33937   L 505.36985 532.33937   L 505.36985 524.85823   L 507.24014 524.85823  z    M 507.24014 537.95023   L 507.24014 545.43137   L 505.36985 545.43137   L 505.36985 537.95023   L 507.24014 537.95023  z    M 504.60304 550.25671   L 497.12189 550.25671   L 497.12189 548.38642   L 504.60304 548.38642   L 504.60304 550.25671  z    M 491.51104 550.25671   L 484.0299 550.25671   L 484.0299 548.38642   L 491.51104 548.38642   L 491.51104 550.25671  z    M 478.41904 550.25671   L 470.9379 550.25671   L 470.9379 548.38642   L 478.41904 548.38642   L 478.41904 550.25671  z    M 465.32704 550.25671   L 457.8459 550.25671   L 457.8459 548.38642   L 465.32704 548.38642   L 465.32704 550.25671  z    M 452.23504 550.25671   L 444.7539 550.25671   L 444.7539 548.38642   L 452.23504 548.38642   L 452.23504 550.25671  z    M 439.14304 550.25671   L 431.6619 550.25671   L 431.6619 548.38642   L 439.14304 548.38642   L 439.14304 550.25671  z    M 426.05104 550.25671   L 418.5699 550.25671   L 418.5699 548.38642   L 426.05104 548.38642   L 426.05104 550.25671  z    M 412.95905 550.25671   L 405.4779 550.25671   L 405.4779 548.38642   L 412.95905 548.38642   L 412.95905 550.25671  z    M 399.86705 550.25671   L 392.3859 550.25671   L 392.3859 548.38642   L 399.86705 548.38642   L 399.86705 550.25671  z    M 386.77505 550.25671   L 379.29391 550.25671   L 379.29391 548.38642   L 386.77505 548.38642   L 386.77505 550.25671  z    M 373.68305 550.25671   L 366.20191 550.25671   L 366.20191 548.38642   L 373.68305 548.38642   L 373.68305 550.25671  z    M 360.59105 550.25671   L 353.10991 550.25671   L 353.10991 548.38642   L 360.59105 548.38642   L 360.59105 550.25671  z    M 347.49905 550.25671   L 340.01791 550.25671   L 340.01791 548.38642   L 347.49905 548.38642   L 347.49905 550.25671  z    M 334.40705 550.25671   L 326.92591 550.25671   L 326.92591 548.38642   L 334.40705 548.38642   L 334.40705 550.25671  z    M 321.31505 550.25671   L 313.83391 550.25671   L 313.83391 548.38642   L 321.31505 548.38642   L 321.31505 550.25671  z    M 308.22306 550.25671   L 300.74191 550.25671   L 300.74191 548.38642   L 308.22306 548.38642   L 308.22306 550.25671  z    M 295.13106 550.25671   L 287.64992 550.25671   L 287.64992 548.38642   L 295.13106 548.38642   L 295.13106 550.25671  z    M 282.03906 550.25671   L 274.55792 550.25671   L 274.55792 548.38642   L 282.03906 548.38642   L 282.03906 550.25671  z    M 268.94706 550.25671   L 261.46592 550.25671   L 261.46592 548.38642   L 268.94706 548.38642   L 268.94706 550.25671  z    M 255.85506 550.25671   L 248.37392 550.25671   L 248.37392 548.38642   L 255.85506 548.38642   L 255.85506 550.25671  z    M 242.76306 550.25671   L 235.28192 550.25671   L 235.28192 548.38642   L 242.76306 548.38642   L 242.76306 550.25671  z    M 229.67106 550.25671   L 222.18992 550.25671   L 222.18992 548.38642   L 229.67106 548.38642   L 229.67106 550.25671  z    M 216.57906 550.25671   L 209.09792 550.25671   L 209.09792 548.38642   L 216.57906 548.38642   L 216.57906 550.25671  z    M 203.48707 550.25671   L 196.00592 550.25671   L 196.00592 548.38642   L 203.48707 548.38642   L 203.48707 550.25671  z    M 190.39507 550.25671   L 182.91393 550.25671   L 182.91393 548.38642   L 190.39507 548.38642   L 190.39507 550.25671  z    M 177.30307 550.25671   L 169.82193 550.25671   L 169.82193 548.38642   L 177.30307 548.38642   L 177.30307 550.25671  z    M 164.21107 550.25671   L 159.8346 550.25671   L 159.8346 548.38642   L 164.21107 548.38642   L 164.21107 550.25671  z   "
       id="path3274" />
    <text
       xml:space="preserve"
       x="270.37784"
       y="539.63666"
       style="font-style:normal;font-weight:bold;font-size:19.89983749px;line-height:0%;font-family:Tahoma;text-align:start;text-anchor:start;fill:#000000"
       id="text3276">XML box(es)</text>
    <path
       style="fill:#000000;fill-rule:nonzero;fill-opacity:1;stroke:#000000;stroke-width:0.018702855px;stroke-linecap:butt;stroke-linejoin:round;stroke-dasharray:none;stroke-opacity:1;"
       d="  M 158.89946 597.94899   L 158.89946 590.46785   L 160.76974 590.46785   L 160.76974 597.94899   L 158.89946 597.94899  z    M 158.89946 584.85699   L 158.89946 577.37585   L 160.76974 577.37585   L 160.76974 584.85699   L 158.89946 584.85699  z    M 158.89946 571.76499   L 158.89946 564.28385   L 160.76974 564.28385   L 160.76974 571.76499   L 158.89946 571.76499  z    M 163.7435 561.64675   L 171.22464 561.64675   L 171.22464 563.51703   L 163.7435 563.51703   L 163.7435 561.64675  z    M 176.8355 561.64675   L 184.31664 561.64675   L 184.31664 563.51703   L 176.8355 563.51703   L 176.8355 561.64675  z    M 189.9275 561.64675   L 197.40864 561.64675   L 197.40864 563.51703   L 189.9275 563.51703   L 189.9275 561.64675  z    M 203.01949 561.64675   L 210.50064 561.64675   L 210.50064 563.51703   L 203.01949 563.51703   L 203.01949 561.64675  z    M 216.11149 561.64675   L 223.59264 561.64675   L 223.59264 563.51703   L 216.11149 563.51703   L 216.11149 561.64675  z    M 229.20349 561.64675   L 236.68463 561.64675   L 236.68463 563.51703   L 229.20349 563.51703   L 229.20349 561.64675  z    M 242.29549 561.64675   L 249.77663 561.64675   L 249.77663 563.51703   L 242.29549 563.51703   L 242.29549 561.64675  z    M 255.38749 561.64675   L 262.86863 561.64675   L 262.86863 563.51703   L 255.38749 563.51703   L 255.38749 561.64675  z    M 268.47949 561.64675   L 275.96063 561.64675   L 275.96063 563.51703   L 268.47949 563.51703   L 268.47949 561.64675  z    M 281.57149 561.64675   L 289.05263 561.64675   L 289.05263 563.51703   L 281.57149 563.51703   L 281.57149 561.64675  z    M 294.66349 561.64675   L 302.14463 561.64675   L 302.14463 563.51703   L 294.66349 563.51703   L 294.66349 561.64675  z    M 307.75548 561.64675   L 315.23663 561.64675   L 315.23663 563.51703   L 307.75548 563.51703   L 307.75548 561.64675  z    M 320.84748 561.64675   L 328.32863 561.64675   L 328.32863 563.51703   L 320.84748 563.51703   L 320.84748 561.64675  z    M 333.93948 561.64675   L 341.42062 561.64675   L 341.42062 563.51703   L 333.93948 563.51703   L 333.93948 561.64675  z    M 347.03148 561.64675   L 354.51262 561.64675   L 354.51262 563.51703   L 347.03148 563.51703   L 347.03148 561.64675  z    M 360.12348 561.64675   L 367.60462 561.64675   L 367.60462 563.51703   L 360.12348 563.51703   L 360.12348 561.64675  z    M 373.21548 561.64675   L 380.69662 561.64675   L 380.69662 563.51703   L 373.21548 563.51703   L 373.21548 561.64675  z    M 386.30748 561.64675   L 393.78862 561.64675   L 393.78862 563.51703   L 386.30748 563.51703   L 386.30748 561.64675  z    M 399.39948 561.64675   L 406.88062 561.64675   L 406.88062 563.51703   L 399.39948 563.51703   L 399.39948 561.64675  z    M 412.49147 561.64675   L 419.97262 561.64675   L 419.97262 563.51703   L 412.49147 563.51703   L 412.49147 561.64675  z    M 425.58347 561.64675   L 433.06462 561.64675   L 433.06462 563.51703   L 425.58347 563.51703   L 425.58347 561.64675  z    M 438.67547 561.64675   L 446.15661 561.64675   L 446.15661 563.51703   L 438.67547 563.51703   L 438.67547 561.64675  z    M 451.76747 561.64675   L 459.24861 561.64675   L 459.24861 563.51703   L 451.76747 563.51703   L 451.76747 561.64675  z    M 464.85947 561.64675   L 472.34061 561.64675   L 472.34061 563.51703   L 464.85947 563.51703   L 464.85947 561.64675  z    M 477.95147 561.64675   L 485.43261 561.64675   L 485.43261 563.51703   L 477.95147 563.51703   L 477.95147 561.64675  z    M 491.04347 561.64675   L 498.52461 561.64675   L 498.52461 563.51703   L 491.04347 563.51703   L 491.04347 561.64675  z    M 504.13547 561.64675   L 507.24014 561.64675   L 507.24014 567.8748   L 505.36985 567.8748   L 505.36985 562.58189   L 506.305 563.51703   L 504.13547 563.51703   L 504.13547 561.64675  z    M 507.24014 573.48565   L 507.24014 580.9668   L 505.36985 580.9668   L 505.36985 573.48565   L 507.24014 573.48565  z    M 507.24014 586.57765   L 507.24014 594.05879   L 505.36985 594.05879   L 505.36985 586.57765   L 507.24014 586.57765  z    M 504.60304 598.88413   L 497.12189 598.88413   L 497.12189 597.01385   L 504.60304 597.01385   L 504.60304 598.88413  z    M 491.51104 598.88413   L 484.0299 598.88413   L 484.0299 597.01385   L 491.51104 597.01385   L 491.51104 598.88413  z    M 478.41904 598.88413   L 470.9379 598.88413   L 470.9379 597.01385   L 478.41904 597.01385   L 478.41904 598.88413  z    M 465.32704 598.88413   L 457.8459 598.88413   L 457.8459 597.01385   L 465.32704 597.01385   L 465.32704 598.88413  z    M 452.23504 598.88413   L 444.7539 598.88413   L 444.7539 597.01385   L 452.23504 597.01385   L 452.23504 598.88413  z    M 439.14304 598.88413   L 431.6619 598.88413   L 431.6619 597.01385   L 439.14304 597.01385   L 439.14304 598.88413  z    M 426.05104 598.88413   L 418.5699 598.88413   L 418.5699 597.01385   L 426.05104 597.01385   L 426.05104 598.88413  z    M 412.95905 598.88413   L 405.4779 598.88413   L 405.4779 597.01385   L 412.95905 597.01385   L 412.95905 598.88413  z    M 399.86705 598.88413   L 392.3859 598.88413   L 392.3859 597.01385   L 399.86705 597.01385   L 399.86705 598.88413  z    M 386.77505 598.88413   L 379.29391 598.88413   L 379.29391 597.01385   L 386.77505 597.01385   L 386.77505 598.88413  z    M 373.68305 598.88413   L 366.20191 598.88413   L 366.20191 597.01385   L 373.68305 597.01385   L 373.68305 598.88413  z    M 360.59105 598.88413   L 353.10991 598.88413   L 353.10991 597.01385   L 360.59105 597.01385   L 360.59105 598.88413  z    M 347.49905 598.88413   L 340.01791 598.88413   L 340.01791 597.01385   L 347.49905 597.01385   L 347.49905 598.88413  z    M 334.40705 598.88413   L 326.92591 598.88413   L 326.92591 597.01385   L 334.40705 597.01385   L 334.40705 598.88413  z    M 321.31505 598.88413   L 313.83391 598.88413   L 313.83391 597.01385   L 321.31505 597.01385   L 321.31505 598.88413  z    M 308.22306 598.88413   L 300.74191 598.88413   L 300.74191 597.01385   L 308.22306 597.01385   L 308.22306 598.88413  z    M 295.13106 598.88413   L 287.64992 598.88413   L 287.64992 597.01385   L 295.13106 597.01385   L 295.13106 598.88413  z    M 282.03906 598.88413   L 274.55792 598.88413   L 274.55792 597.01385   L 282.03906 597.01385   L 282.03906 598.88413  z    M 268.94706 598.88413   L 261.46592 598.88413   L 261.46592 597.01385   L 268.94706 597.01385   L 268.94706 598.88413  z    M 255.85506 598.88413   L 248.37392 598.88413   L 248.37392 597.01385   L 255.85506 597.01385   L 255.85506 598.88413  z    M 242.76306 598.88413   L 235.28192 598.88413   L 235.28192 597.01385   L 242.76306 597.01385   L 242.76306 598.88413  z    M 229.67106 598.88413   L 222.18992 598.88413   L 222.18992 597.01385   L 229.67106 597.01385   L 229.67106 598.88413  z    M 216.57906 598.88413   L 209.09792 598.88413   L 209.09792 597.01385   L 216.57906 597.01385   L 216.57906 598.88413  z    M 203.48707 598.88413   L 196.00592 598.88413   L 196.00592 597.01385   L 203.48707 597.01385   L 203.48707 598.88413  z    M 190.39507 598.88413   L 182.91393 598.88413   L 182.91393 597.01385   L 190.39507 597.01385   L 190.39507 598.88413  z    M 177.30307 598.88413   L 169.82193 598.88413   L 169.82193 597.01385   L 177.30307 597.01385   L 177.30307 598.88413  z    M 164.21107 598.88413   L 159.8346 598.88413   L 159.8346 597.01385   L 164.21107 597.01385   L 164.21107 598.88413  z   "
       id="path3278" />
    <text
       xml:space="preserve"
       x="264.54251"
       y="588.26404"
       style="font-style:normal;font-weight:bold;font-size:19.89983749px;line-height:0%;font-family:Tahoma;text-align:start;text-anchor:start;fill:#000000"
       id="text3280">UUID box(es)</text>
    <path
       style="fill:#000000;fill-rule:nonzero;fill-opacity:1;stroke:#000000;stroke-width:0.037405711px;stroke-linecap:butt;stroke-linejoin:round;stroke-dasharray:none;stroke-opacity:1;"
       d="  M 158.89946 646.74474   L 158.89946 639.2636   L 160.76974 639.2636   L 160.76974 646.74474   L 158.89946 646.74474  z    M 158.89946 633.65274   L 158.89946 626.1716   L 160.76974 626.1716   L 160.76974 633.65274   L 158.89946 633.65274  z    M 158.89946 620.56074   L 158.89946 613.0796   L 160.76974 613.0796   L 160.76974 620.56074   L 158.89946 620.56074  z    M 163.7622 610.42379   L 171.24334 610.42379   L 171.24334 612.29408   L 163.7622 612.29408   L 163.7622 610.42379  z    M 176.8542 610.42379   L 184.33534 610.42379   L 184.33534 612.29408   L 176.8542 612.29408   L 176.8542 610.42379  z    M 189.9462 610.42379   L 197.42734 610.42379   L 197.42734 612.29408   L 189.9462 612.29408   L 189.9462 610.42379  z    M 203.0382 610.42379   L 210.51934 610.42379   L 210.51934 612.29408   L 203.0382 612.29408   L 203.0382 610.42379  z    M 216.1302 610.42379   L 223.61134 610.42379   L 223.61134 612.29408   L 216.1302 612.29408   L 216.1302 610.42379  z    M 229.22219 610.42379   L 236.70334 610.42379   L 236.70334 612.29408   L 229.22219 612.29408   L 229.22219 610.42379  z    M 242.31419 610.42379   L 249.79534 610.42379   L 249.79534 612.29408   L 242.31419 612.29408   L 242.31419 610.42379  z    M 255.40619 610.42379   L 262.88733 610.42379   L 262.88733 612.29408   L 255.40619 612.29408   L 255.40619 610.42379  z    M 268.49819 610.42379   L 275.97933 610.42379   L 275.97933 612.29408   L 268.49819 612.29408   L 268.49819 610.42379  z    M 281.59019 610.42379   L 289.07133 610.42379   L 289.07133 612.29408   L 281.59019 612.29408   L 281.59019 610.42379  z    M 294.68219 610.42379   L 302.16333 610.42379   L 302.16333 612.29408   L 294.68219 612.29408   L 294.68219 610.42379  z    M 307.77419 610.42379   L 315.25533 610.42379   L 315.25533 612.29408   L 307.77419 612.29408   L 307.77419 610.42379  z    M 320.86619 610.42379   L 328.34733 610.42379   L 328.34733 612.29408   L 320.86619 612.29408   L 320.86619 610.42379  z    M 333.95818 610.42379   L 341.43933 610.42379   L 341.43933 612.29408   L 333.95818 612.29408   L 333.95818 610.42379  z    M 347.05018 610.42379   L 354.53133 610.42379   L 354.53133 612.29408   L 347.05018 612.29408   L 347.05018 610.42379  z    M 360.14218 610.42379   L 367.62332 610.42379   L 367.62332 612.29408   L 360.14218 612.29408   L 360.14218 610.42379  z    M 373.23418 610.42379   L 380.71532 610.42379   L 380.71532 612.29408   L 373.23418 612.29408   L 373.23418 610.42379  z    M 386.32618 610.42379   L 393.80732 610.42379   L 393.80732 612.29408   L 386.32618 612.29408   L 386.32618 610.42379  z    M 399.41818 610.42379   L 406.89932 610.42379   L 406.89932 612.29408   L 399.41818 612.29408   L 399.41818 610.42379  z    M 412.51018 610.42379   L 419.99132 610.42379   L 419.99132 612.29408   L 412.51018 612.29408   L 412.51018 610.42379  z    M 425.60218 610.42379   L 433.08332 610.42379   L 433.08332 612.29408   L 425.60218 612.29408   L 425.60218 610.42379  z    M 438.69417 610.42379   L 446.17532 610.42379   L 446.17532 612.29408   L 438.69417 612.29408   L 438.69417 610.42379  z    M 451.78617 610.42379   L 459.26732 610.42379   L 459.26732 612.29408   L 451.78617 612.29408   L 451.78617 610.42379  z    M 464.87817 610.42379   L 472.35931 610.42379   L 472.35931 612.29408   L 464.87817 612.29408   L 464.87817 610.42379  z    M 477.97017 610.42379   L 485.45131 610.42379   L 485.45131 612.29408   L 477.97017 612.29408   L 477.97017 610.42379  z    M 491.06217 610.42379   L 498.54331 610.42379   L 498.54331 612.29408   L 491.06217 612.29408   L 491.06217 610.42379  z    M 504.15417 610.42379   L 507.25884 610.42379   L 507.25884 616.67055   L 505.38856 616.67055   L 505.38856 611.35894   L 506.3237 612.29408   L 504.15417 612.29408   L 504.15417 610.42379  z    M 507.25884 622.2814   L 507.25884 629.76254   L 505.38856 629.76254   L 505.38856 622.2814   L 507.25884 622.2814  z    M 507.25884 635.3734   L 507.25884 642.85454   L 505.38856 642.85454   L 505.38856 635.3734   L 507.25884 635.3734  z    M 504.60304 647.67988   L 497.12189 647.67988   L 497.12189 645.80959   L 504.60304 645.80959   L 504.60304 647.67988  z    M 491.51104 647.67988   L 484.0299 647.67988   L 484.0299 645.80959   L 491.51104 645.80959   L 491.51104 647.67988  z    M 478.41904 647.67988   L 470.9379 647.67988   L 470.9379 645.80959   L 478.41904 645.80959   L 478.41904 647.67988  z    M 465.32704 647.67988   L 457.8459 647.67988   L 457.8459 645.80959   L 465.32704 645.80959   L 465.32704 647.67988  z    M 452.23504 647.67988   L 444.7539 647.67988   L 444.7539 645.80959   L 452.23504 645.80959   L 452.23504 647.67988  z    M 439.14304 647.67988   L 431.6619 647.67988   L 431.6619 645.80959   L 439.14304 645.80959   L 439.14304 647.67988  z    M 426.05104 647.67988   L 418.5699 647.67988   L 418.5699 645.80959   L 426.05104 645.80959   L 426.05104 647.67988  z    M 412.95905 647.67988   L 405.4779 647.67988   L 405.4779 645.80959   L 412.95905 645.80959   L 412.95905 647.67988  z    M 399.86705 647.67988   L 392.3859 647.67988   L 392.3859 645.80959   L 399.86705 645.80959   L 399.86705 647.67988  z    M 386.77505 647.67988   L 379.29391 647.67988   L 379.29391 645.80959   L 386.77505 645.80959   L 386.77505 647.67988  z    M 373.68305 647.67988   L 366.20191 647.67988   L 366.20191 645.80959   L 373.68305 645.80959   L 373.68305 647.67988  z    M 360.59105 647.67988   L 353.10991 647.67988   L 353.10991 645.80959   L 360.59105 645.80959   L 360.59105 647.67988  z    M 347.49905 647.67988   L 340.01791 647.67988   L 340.01791 645.80959   L 347.49905 645.80959   L 347.49905 647.67988  z    M 334.40705 647.67988   L 326.92591 647.67988   L 326.92591 645.80959   L 334.40705 645.80959   L 334.40705 647.67988  z    M 321.31505 647.67988   L 313.83391 647.67988   L 313.83391 645.80959   L 321.31505 645.80959   L 321.31505 647.67988  z    M 308.22306 647.67988   L 300.74191 647.67988   L 300.74191 645.80959   L 308.22306 645.80959   L 308.22306 647.67988  z    M 295.13106 647.67988   L 287.64992 647.67988   L 287.64992 645.80959   L 295.13106 645.80959   L 295.13106 647.67988  z    M 282.03906 647.67988   L 274.55792 647.67988   L 274.55792 645.80959   L 282.03906 645.80959   L 282.03906 647.67988  z    M 268.94706 647.67988   L 261.46592 647.67988   L 261.46592 645.80959   L 268.94706 645.80959   L 268.94706 647.67988  z    M 255.85506 647.67988   L 248.37392 647.67988   L 248.37392 645.80959   L 255.85506 645.80959   L 255.85506 647.67988  z    M 242.76306 647.67988   L 235.28192 647.67988   L 235.28192 645.80959   L 242.76306 645.80959   L 242.76306 647.67988  z    M 229.67106 647.67988   L 222.18992 647.67988   L 222.18992 645.80959   L 229.67106 645.80959   L 229.67106 647.67988  z    M 216.57906 647.67988   L 209.09792 647.67988   L 209.09792 645.80959   L 216.57906 645.80959   L 216.57906 647.67988  z    M 203.48707 647.67988   L 196.00592 647.67988   L 196.00592 645.80959   L 203.48707 645.80959   L 203.48707 647.67988  z    M 190.39507 647.67988   L 182.91393 647.67988   L 182.91393 645.80959   L 190.39507 645.80959   L 190.39507 647.67988  z    M 177.30307 647.67988   L 169.82193 647.67988   L 169.82193 645.80959   L 177.30307 645.80959   L 177.30307 647.67988  z    M 164.21107 647.67988   L 159.8346 647.67988   L 159.8346 645.80959   L 164.21107 645.80959   L 164.21107 647.67988  z   "
       id="path3282" />
    <text
       xml:space="preserve"
       x="181.95074"
       y="637.0473"
       style="font-style:normal;font-weight:bold;font-size:19.89983749px;line-height:0%;font-family:Tahoma;text-align:start;text-anchor:start;fill:#000000"
       id="text3284">UUID Info box(es) (superbox)</text>
    <path
       style="fill:#000000;fill-rule:nonzero;fill-opacity:1;stroke:#000000;stroke-width:0.018702855px;stroke-linecap:butt;stroke-linejoin:round;stroke-dasharray:none;stroke-opacity:1;"
       d="  M 331.4333 378.04081   L 331.4333 378.04081   C 331.4333 379.08817 330.61037 379.9111 329.56301 379.9111   C 328.53436 379.9111 327.69273 379.08817 327.69273 378.04081   L 327.69273 378.04081   C 327.69273 377.01216 328.53436 376.17053 329.56301 376.17053   C 330.61037 376.17053 331.4333 377.01216 331.4333 378.04081   z  M 331.4333 385.52196   L 331.4333 385.54066   C 331.4333 386.56932 330.61037 387.41095 329.56301 387.41095   C 328.53436 387.41095 327.69273 386.56932 327.69273 385.54066   L 327.69273 385.52196   C 327.69273 384.4933 328.53436 383.65167 329.56301 383.65167   C 330.61037 383.65167 331.4333 384.4933 331.4333 385.52196   z  M 331.4333 393.0218   L 331.4333 393.0218   C 331.4333 394.05046 330.61037 394.89209 329.56301 394.89209   C 328.53436 394.89209 327.69273 394.05046 327.69273 393.0218   L 327.69273 393.0218   C 327.69273 391.97444 328.53436 391.15152 329.56301 391.15152   C 330.61037 391.15152 331.4333 391.97444 331.4333 393.0218   z  M 331.4333 400.50294   L 331.4333 400.50294   C 331.4333 401.5316 330.61037 402.37323 329.56301 402.37323   C 328.53436 402.37323 327.69273 401.5316 327.69273 400.50294   L 327.69273 400.50294   C 327.69273 399.45558 328.53436 398.63266 329.56301 398.63266   C 330.61037 398.63266 331.4333 399.45558 331.4333 400.50294   z"
       id="path3286" />
    <text
       xml:space="preserve"
       x="76.931084"
       y="126.7867"
       style="font-style:normal;font-weight:bold;font-size:19.89983749px;line-height:0%;font-family:Tahoma;text-align:start;text-anchor:start;fill:#000000"
       id="text3288">JP2 file</text>
  </g>
</svg>
