<?xml version="1.0" encoding="UTF-8" standalone="no"?>
<svg
   xmlns:dc="http://purl.org/dc/elements/1.1/"
   xmlns:cc="http://creativecommons.org/ns#"
   xmlns:rdf="http://www.w3.org/1999/02/22-rdf-syntax-ns#"
   xmlns:svg="http://www.w3.org/2000/svg"
   xmlns="http://www.w3.org/2000/svg"
   xmlns:sodipodi="http://sodipodi.sourceforge.net/DTD/sodipodi-0.dtd"
   xmlns:inkscape="http://www.inkscape.org/namespaces/inkscape"
   version="1.0"
   width="189.98mm"
   height="253.55mm"
   id="svg3410"
   inkscape:version="0.48.4 r9939"
   sodipodi:docname="outputFormat.emf">
  <metadata
     id="metadata3574">
    <rdf:RDF>
      <cc:Work
         rdf:about="">
        <dc:format>image/svg+xml</dc:format>
        <dc:type
           rdf:resource="http://purl.org/dc/dcmitype/StillImage" />
        <dc:title></dc:title>
      </cc:Work>
    </rdf:RDF>
  </metadata>
  <sodipodi:namedview
     pagecolor="#ffffff"
     bordercolor="#666666"
     borderopacity="1"
     objecttolerance="10"
     gridtolerance="10"
     guidetolerance="10"
     inkscape:pageopacity="0"
     inkscape:pageshadow="2"
     inkscape:window-width="1680"
     inkscape:window-height="987"
     id="namedview3572"
     showgrid="false"
     inkscape:zoom="0.74299277"
     inkscape:cx="336.57874"
     inkscape:cy="449.20276"
     inkscape:window-x="-4"
     inkscape:window-y="-4"
     inkscape:window-maximized="1"
     inkscape:current-layer="g3414" />
  <defs
     id="defs3412" />
  <g
     id="g3414">
    <path
       style="fill:none;stroke:#000000;stroke-width:1.8702855px;stroke-linecap:butt;stroke-linejoin:miter;stroke-miterlimit:4;stroke-dasharray:none;stroke-opacity:1;"
       d="  M 251.79654 109.50522   L 357.78562 109.50522   L 357.78562 144.87232   L 251.79654 144.87232  z "
       id="path3418" />
    <text
       xml:space="preserve"
       x="268.08673"
       y="135.63625"
       style="font-size:22.443426px;fill:#000000;font-style:normal;font-weight:normal;text-align:start;text-anchor:start;font-family:Arial;"
       id="text3420">toolInfo</text>
    <path
       style="fill:none;stroke:#000000;stroke-width:1.8702855px;stroke-linecap:butt;stroke-linejoin:miter;stroke-miterlimit:4;stroke-dasharray:none;stroke-opacity:1;"
       d="  M 251.81524 696.3073   L 357.78562 696.3073   L 357.78562 731.69311   L 251.81524 731.69311  z "
       id="path3422" />
    <text
       xml:space="preserve"
       x="255.21916"
       y="722.43833"
       style="font-size:22.443426px;fill:#000000;font-style:normal;font-weight:normal;text-align:start;text-anchor:start;font-family:Arial;"
       id="text3424">properties</text>
    <path
       style="fill:none;stroke:#000000;stroke-width:1.8702855px;stroke-linecap:butt;stroke-linejoin:miter;stroke-miterlimit:4;stroke-dasharray:none;stroke-opacity:1;"
       d="  M 251.79654 505.36985   L 357.78562 505.36985   L 357.78562 540.75566   L 251.79654 540.75566  z "
       id="path3426" />
    <text
       xml:space="preserve"
       x="281.10392"
       y="531.51334"
       style="font-size:22.443426px;fill:#000000;font-style:normal;font-weight:normal;text-align:start;text-anchor:start;font-family:Arial;"
       id="text3428">tests</text>
    <path
       style="fill:none;stroke:#000000;stroke-width:1.8702855px;stroke-linecap:butt;stroke-linejoin:miter;stroke-miterlimit:4;stroke-dasharray:none;stroke-opacity:1;"
       d="  M 251.79654 215.4756   L 357.78562 215.4756   L 357.78562 250.8614   L 251.79654 250.8614  z "
       id="path3430" />
    <text
       xml:space="preserve"
       x="271.8273"
       y="241.6191"
       style="font-size:22.443426px;fill:#000000;font-style:normal;font-weight:normal;text-align:start;text-anchor:start;font-family:Arial;"
       id="text3432">fileInfo</text>
    <path
       style="fill:none;stroke:#000000;stroke-width:1.8702855px;stroke-linecap:butt;stroke-linejoin:miter;stroke-miterlimit:4;stroke-dasharray:none;stroke-opacity:1;"
       d="  M 407.34819 109.50522   L 569.8947 109.50522   L 569.8947 144.87232   L 407.34819 144.87232  z "
       id="path3434" />
    <text
       xml:space="preserve"
       x="440.8232"
       y="135.63625"
       style="font-size:22.443426px;fill:#000000;font-style:normal;font-weight:normal;text-align:start;text-anchor:start;font-family:Arial;"
       id="text3436">toolName</text>
    <path
       style="fill:none;stroke:#000000;stroke-width:1.8702855px;stroke-linecap:butt;stroke-linejoin:miter;stroke-miterlimit:4;stroke-dasharray:none;stroke-opacity:1;"
       d="  M 407.34819 151.88589   L 569.8947 151.88589   L 569.8947 187.27169   L 407.34819 187.27169  z "
       id="path3438" />
    <text
       xml:space="preserve"
       x="433.34516"
       y="178.02939"
       style="font-size:22.443426px;fill:#000000;font-style:normal;font-weight:normal;text-align:start;text-anchor:start;font-family:Arial;"
       id="text3440">toolVersion</text>
    <path
       style="fill:none;stroke:#000000;stroke-width:1.8702855px;stroke-linecap:butt;stroke-linejoin:miter;stroke-miterlimit:4;stroke-dasharray:none;stroke-opacity:1;"
       d="  M 407.34819 215.4756   L 569.8947 215.4756   L 569.8947 250.8614   L 407.34819 250.8614  z "
       id="path3442" />
    <text
       xml:space="preserve"
       x="444.56377"
       y="241.61914"
       style="font-size:22.443426px;fill:#000000;font-style:normal;font-weight:normal;text-align:start;text-anchor:start;font-family:Arial;"
       id="text3444">fileName</text>
    <path
       style="fill:none;stroke:#000000;stroke-width:1.8702855px;stroke-linecap:butt;stroke-linejoin:miter;stroke-miterlimit:4;stroke-dasharray:none;stroke-opacity:1;"
       d="  M 407.34819 257.87497   L 569.8947 257.87497   L 569.8947 293.26077   L 407.34819 293.26077  z "
       id="path3446" />
    <text
       xml:space="preserve"
       x="451.29679"
       y="284.01228"
       style="font-size:22.443426px;fill:#000000;font-style:normal;font-weight:normal;text-align:start;text-anchor:start;font-family:Arial;"
       id="text3448">filePath</text>
    <path
       style="fill:none;stroke:#000000;stroke-width:1.8702855px;stroke-linecap:butt;stroke-linejoin:miter;stroke-miterlimit:4;stroke-dasharray:none;stroke-opacity:1;"
       d="  M 407.34819 300.27434   L 569.8947 300.27434   L 569.8947 335.64144   L 407.34819 335.64144  z "
       id="path3450" />
    <text
       xml:space="preserve"
       x="415.38731"
       y="326.40543"
       style="font-size:22.443426px;fill:#000000;font-style:normal;font-weight:normal;text-align:start;text-anchor:start;font-family:Arial;"
       id="text3452">fileSizeInBytes</text>
    <path
       style="fill:none;stroke:#000000;stroke-width:1.8702855px;stroke-linecap:butt;stroke-linejoin:miter;stroke-miterlimit:4;stroke-dasharray:none;stroke-opacity:1;"
       d="  M 407.34819 342.82334   L 569.8947 342.82334   L 569.8947 378.19044   L 407.34819 378.19044  z "
       id="path3454" />
    <text
       xml:space="preserve"
       x="411.04825"
       y="368.95448"
       style="font-size:22.443426px;fill:#000000;font-style:normal;font-weight:normal;text-align:start;text-anchor:start;font-family:Arial;"
       id="text3456">fileLastModified</text>
    <path
       style="fill:none;stroke:#000000;stroke-width:1.8702855px;stroke-linecap:butt;stroke-linejoin:miter;stroke-miterlimit:4;stroke-dasharray:none;stroke-opacity:1;"
       d="  M 407.34819 505.36985   L 569.8947 505.36985   L 569.8947 540.75566   L 407.34819 540.75566  z "
       id="path3458" />
    <text
       xml:space="preserve"
       x="459.97492"
       y="531.51341"
       style="font-size:22.443426px;fill:#000000;font-style:normal;font-weight:normal;text-align:start;text-anchor:start;font-family:Arial;"
       id="text3460">Box 1</text>
    <path
       style="fill:none;stroke:#000000;stroke-width:1.8702855px;stroke-linecap:butt;stroke-linejoin:miter;stroke-miterlimit:4;stroke-dasharray:none;stroke-opacity:1;"
       d="  M 407.34819 547.76923   L 569.8947 547.76923   L 569.8947 583.15503   L 407.34819 583.15503  z "
       id="path3462" />
    <text
       xml:space="preserve"
       x="459.97492"
       y="573.90654"
       style="font-size:22.443426px;fill:#000000;font-style:normal;font-weight:normal;text-align:start;text-anchor:start;font-family:Arial;"
       id="text3464">Box 2</text>
    <path
       style="fill:none;stroke:#000000;stroke-width:1.8702855px;stroke-linecap:butt;stroke-linejoin:miter;stroke-miterlimit:4;stroke-dasharray:none;stroke-opacity:1;"
       d="  M 407.34819 618.39121   L 569.91341 618.39121   L 569.91341 653.77701   L 407.34819 653.77701  z "
       id="path3466" />
    <text
       xml:space="preserve"
       x="459.97492"
       y="644.50989"
       style="font-size:22.443426px;fill:#000000;font-style:normal;font-weight:normal;text-align:start;text-anchor:start;font-family:Arial;"
       id="text3468">Box </text>
    <text
       xml:space="preserve"
       x="504.86177"
       y="644.50989"
       style="font-size:22.443426px;fill:#000000;font-style:italic;font-weight:normal;text-align:start;text-anchor:start;font-family:Arial;"
       id="text3470">n</text>
    <path
       style="fill:#000000;fill-rule:nonzero;fill-opacity:1;stroke:#000000;stroke-width:0.037405711px;stroke-linecap:butt;stroke-linejoin:round;stroke-dasharray:none;stroke-opacity:1;"
       d="  M 486.0498 585.96046   L 486.0498 585.96046   C 486.0498 586.48414 485.63834 586.8956 485.11466 586.8956   C 484.59098 586.8956 484.17952 586.48414 484.17952 585.96046   L 484.17952 585.96046   C 484.17952 585.43678 484.59098 585.02531 485.11466 585.02531   C 485.63834 585.02531 486.0498 585.43678 486.0498 585.96046   z  M 486.0498 589.70103   L 486.0498 589.70103   C 486.0498 590.22471 485.63834 590.63617 485.11466 590.63617   C 484.59098 590.63617 484.17952 590.22471 484.17952 589.70103   L 484.17952 589.70103   C 484.17952 589.17735 484.59098 588.76589 485.11466 588.76589   C 485.63834 588.76589 486.0498 589.17735 486.0498 589.70103   z  M 486.0498 593.4416   L 486.0498 593.4416   C 486.0498 593.96528 485.63834 594.37674 485.11466 594.37674   C 484.59098 594.37674 484.17952 593.96528 484.17952 593.4416   L 484.17952 593.4416   C 484.17952 592.91792 484.59098 592.50646 485.11466 592.50646   C 485.63834 592.50646 486.0498 592.91792 486.0498 593.4416   z  M 486.0498 597.18217   L 486.0498 597.18217   C 486.0498 597.70585 485.63834 598.11731 485.11466 598.11731   C 484.59098 598.11731 484.17952 597.70585 484.17952 597.18217   L 484.17952 597.18217   C 484.17952 596.65849 484.59098 596.24703 485.11466 596.24703   C 485.63834 596.24703 486.0498 596.65849 486.0498 597.18217   z  M 486.0498 600.92274   L 486.0498 600.92274   C 486.0498 601.44642 485.63834 601.85788 485.11466 601.85788   C 484.59098 601.85788 484.17952 601.44642 484.17952 600.92274   L 484.17952 600.92274   C 484.17952 600.43647 484.59098 599.9876 485.11466 599.9876   C 485.63834 599.9876 486.0498 600.43647 486.0498 600.92274   z  M 486.0498 604.66331   L 486.0498 604.66331   C 486.0498 605.18699 485.63834 605.59846 485.11466 605.59846   C 484.59098 605.59846 484.17952 605.18699 484.17952 604.66331   L 484.17952 604.66331   C 484.17952 604.17704 484.59098 603.72817 485.11466 603.72817   C 485.63834 603.72817 486.0498 604.17704 486.0498 604.66331   z  M 486.0498 608.40388   L 486.0498 608.40388   C 486.0498 608.92756 485.63834 609.33903 485.11466 609.33903   C 484.59098 609.33903 484.17952 608.92756 484.17952 608.40388   L 484.17952 608.40388   C 484.17952 607.91761 484.59098 607.46874 485.11466 607.46874   C 485.63834 607.46874 486.0498 607.91761 486.0498 608.40388   z  M 486.0498 612.14446   L 486.0498 612.18186   C 486.0498 612.66814 485.63834 613.117 485.11466 613.117   C 484.59098 613.117 484.17952 612.66814 484.17952 612.18186   L 484.17952 612.14446   C 484.17952 611.65818 484.59098 611.20931 485.11466 611.20931   C 485.63834 611.20931 486.0498 611.65818 486.0498 612.14446   z"
       id="path3472" />
    <path
       style="fill:none;stroke:#000000;stroke-width:1.8702855px;stroke-linecap:butt;stroke-linejoin:miter;stroke-miterlimit:4;stroke-dasharray:none;stroke-opacity:1;"
       d="  M 407.34819 696.3073   L 569.91341 696.3073   L 569.91341 731.69311   L 407.34819 731.69311  z "
       id="path3474" />
    <text
       xml:space="preserve"
       x="459.97492"
       y="722.43833"
       style="font-size:22.443426px;fill:#000000;font-style:normal;font-weight:normal;text-align:start;text-anchor:start;font-family:Arial;"
       id="text3476">Box 1</text>
    <path
       style="fill:none;stroke:#000000;stroke-width:1.8702855px;stroke-linecap:butt;stroke-linejoin:miter;stroke-miterlimit:4;stroke-dasharray:none;stroke-opacity:1;"
       d="  M 407.34819 738.68797   L 569.91341 738.68797   L 569.91341 774.07378   L 407.34819 774.07378  z "
       id="path3478" />
    <text
       xml:space="preserve"
       x="459.97492"
       y="764.8315"
       style="font-size:22.443426px;fill:#000000;font-style:normal;font-weight:normal;text-align:start;text-anchor:start;font-family:Arial;"
       id="text3480">Box 2</text>
    <path
       style="fill:none;stroke:#000000;stroke-width:1.8702855px;stroke-linecap:butt;stroke-linejoin:miter;stroke-miterlimit:4;stroke-dasharray:none;stroke-opacity:1;"
       d="  M 407.34819 809.30996   L 569.91341 809.30996   L 569.91341 844.69576   L 407.34819 844.69576  z "
       id="path3482" />
    <text
       xml:space="preserve"
       x="459.97492"
       y="835.43478"
       style="font-size:22.443426px;fill:#000000;font-style:normal;font-weight:normal;text-align:start;text-anchor:start;font-family:Arial;"
       id="text3484">Box </text>
    <text
       xml:space="preserve"
       x="504.86177"
       y="835.43478"
       style="font-size:22.443426px;fill:#000000;font-style:italic;font-weight:normal;text-align:start;text-anchor:start;font-family:Arial;"
       id="text3486">n</text>
    <path
       style="fill:#000000;fill-rule:nonzero;fill-opacity:1;stroke:#000000;stroke-width:0.037405711px;stroke-linecap:butt;stroke-linejoin:round;stroke-dasharray:none;stroke-opacity:1;"
       d="  M 486.0498 776.8792   L 486.0498 776.8792   C 486.0498 777.40288 485.63834 777.81435 485.11466 777.81435   C 484.59098 777.81435 484.17952 777.40288 484.17952 776.8792   L 484.17952 776.8792   C 484.17952 776.35552 484.59098 775.94406 485.11466 775.94406   C 485.63834 775.94406 486.0498 776.35552 486.0498 776.8792   z  M 486.0498 780.61978   L 486.0498 780.61978   C 486.0498 781.14346 485.63834 781.55492 485.11466 781.55492   C 484.59098 781.55492 484.17952 781.14346 484.17952 780.61978   L 484.17952 780.61978   C 484.17952 780.1335 484.59098 779.68463 485.11466 779.68463   C 485.63834 779.68463 486.0498 780.1335 486.0498 780.61978   z  M 486.0498 784.36035   L 486.0498 784.36035   C 486.0498 784.88403 485.63834 785.29549 485.11466 785.29549   C 484.59098 785.29549 484.17952 784.88403 484.17952 784.36035   L 484.17952 784.36035   C 484.17952 783.87407 484.59098 783.4252 485.11466 783.4252   C 485.63834 783.4252 486.0498 783.87407 486.0498 784.36035   z  M 486.0498 788.10092   L 486.0498 788.10092   C 486.0498 788.6246 485.63834 789.03606 485.11466 789.03606   C 484.59098 789.03606 484.17952 788.6246 484.17952 788.10092   L 484.17952 788.10092   C 484.17952 787.61464 484.59098 787.16578 485.11466 787.16578   C 485.63834 787.16578 486.0498 787.61464 486.0498 788.10092   z  M 486.0498 791.84149   L 486.0498 791.87889   C 486.0498 792.36517 485.63834 792.81404 485.11466 792.81404   C 484.59098 792.81404 484.17952 792.36517 484.17952 791.87889   L 484.17952 791.84149   C 484.17952 791.35521 484.59098 790.90635 485.11466 790.90635   C 485.63834 790.90635 486.0498 791.35521 486.0498 791.84149   z  M 486.0498 795.61947   L 486.0498 795.61947   C 486.0498 796.10574 485.63834 796.55461 485.11466 796.55461   C 484.59098 796.55461 484.17952 796.10574 484.17952 795.61947   L 484.17952 795.61947   C 484.17952 795.09579 484.59098 794.68432 485.11466 794.68432   C 485.63834 794.68432 486.0498 795.09579 486.0498 795.61947   z  M 486.0498 799.36004   L 486.0498 799.36004   C 486.0498 799.84631 485.63834 800.29518 485.11466 800.29518   C 484.59098 800.29518 484.17952 799.84631 484.17952 799.36004   L 484.17952 799.36004   C 484.17952 798.83636 484.59098 798.42489 485.11466 798.42489   C 485.63834 798.42489 486.0498 798.83636 486.0498 799.36004   z  M 486.0498 803.10061   L 486.0498 803.10061   C 486.0498 803.58688 485.63834 804.03575 485.11466 804.03575   C 484.59098 804.03575 484.17952 803.58688 484.17952 803.10061   L 484.17952 803.10061   C 484.17952 802.57693 484.59098 802.16547 485.11466 802.16547   C 485.63834 802.16547 486.0498 802.57693 486.0498 803.10061   z"
       id="path3488" />
    <path
       style="fill:none;stroke:#000000;stroke-width:1.8702855px;stroke-linecap:butt;stroke-linejoin:round;stroke-dasharray:none;stroke-opacity:1;"
       d="  M 357.78562 130.69555   L 407.34819 130.69555  "
       id="path3490" />
    <path
       style="fill:none;stroke:#000000;stroke-width:1.8702855px;stroke-linecap:butt;stroke-linejoin:round;stroke-dasharray:none;stroke-opacity:1;"
       d="  M 386.13915 130.69555   L 386.13915 173.09493  "
       id="path3492" />
    <path
       style="fill:none;stroke:#000000;stroke-width:1.8702855px;stroke-linecap:butt;stroke-linejoin:round;stroke-dasharray:none;stroke-opacity:1;"
       d="  M 386.13915 173.09493   L 407.34819 173.09493  "
       id="path3494" />
    <path
       style="fill:none;stroke:#000000;stroke-width:1.8702855px;stroke-linecap:butt;stroke-linejoin:round;stroke-dasharray:none;stroke-opacity:1;"
       d="  M 357.78562 229.67106   L 407.34819 229.67106  "
       id="path3496" />
    <path
       style="fill:none;stroke:#000000;stroke-width:1.8702855px;stroke-linecap:butt;stroke-linejoin:round;stroke-dasharray:none;stroke-opacity:1;"
       d="  M 386.13915 229.67106   L 386.13915 364.01367  "
       id="path3498" />
    <path
       style="fill:none;stroke:#000000;stroke-width:1.8702855px;stroke-linecap:butt;stroke-linejoin:round;stroke-dasharray:none;stroke-opacity:1;"
       d="  M 357.78562 519.56532   L 407.34819 519.56532  "
       id="path3500" />
    <path
       style="fill:none;stroke:#000000;stroke-width:1.8702855px;stroke-linecap:butt;stroke-linejoin:round;stroke-dasharray:none;stroke-opacity:1;"
       d="  M 386.13915 519.56532   L 386.13915 568.95956  "
       id="path3502" />
    <path
       style="fill:#000000;fill-rule:nonzero;fill-opacity:1;stroke:#000000;stroke-width:0.037405711px;stroke-linecap:butt;stroke-linejoin:round;stroke-dasharray:none;stroke-opacity:1;"
       d="  M 387.07429 568.97826   L 387.07429 570.84855   L 385.20401 570.84855   L 385.20401 568.97826   L 387.07429 568.97826  z    M 387.07429 572.71884   L 387.07429 574.58912   L 385.20401 574.58912   L 385.20401 572.71884   L 387.07429 572.71884  z    M 387.07429 576.45941   L 387.07429 578.32969   L 385.20401 578.32969   L 385.20401 576.45941   L 387.07429 576.45941  z    M 387.07429 580.19998   L 387.07429 582.07026   L 385.20401 582.07026   L 385.20401 580.19998   L 387.07429 580.19998  z    M 387.07429 583.94055   L 387.07429 585.81083   L 385.20401 585.81083   L 385.20401 583.94055   L 387.07429 583.94055  z    M 387.07429 587.68112   L 387.07429 589.55141   L 385.20401 589.55141   L 385.20401 587.68112   L 387.07429 587.68112  z    M 387.07429 591.42169   L 387.07429 593.29198   L 385.20401 593.29198   L 385.20401 591.42169   L 387.07429 591.42169  z    M 387.07429 595.16226   L 387.07429 597.03255   L 385.20401 597.03255   L 385.20401 595.16226   L 387.07429 595.16226  z    M 387.07429 598.90283   L 387.07429 600.77312   L 385.20401 600.77312   L 385.20401 598.90283   L 387.07429 598.90283  z    M 387.07429 602.6434   L 387.07429 604.51369   L 385.20401 604.51369   L 385.20401 602.6434   L 387.07429 602.6434  z    M 387.07429 606.38398   L 387.07429 608.25426   L 385.20401 608.25426   L 385.20401 606.38398   L 387.07429 606.38398  z    M 387.07429 610.12455   L 387.07429 611.99483   L 385.20401 611.99483   L 385.20401 610.12455   L 387.07429 610.12455  z    M 387.07429 613.86512   L 387.07429 615.7354   L 385.20401 615.7354   L 385.20401 613.86512   L 387.07429 613.86512  z    M 387.07429 617.60569   L 387.07429 619.47597   L 385.20401 619.47597   L 385.20401 617.60569   L 387.07429 617.60569  z    M 387.07429 621.34626   L 387.07429 623.21655   L 385.20401 623.21655   L 385.20401 621.34626   L 387.07429 621.34626  z    M 387.07429 625.08683   L 387.07429 626.95712   L 385.20401 626.95712   L 385.20401 625.08683   L 387.07429 625.08683  z    M 387.07429 628.8274   L 387.07429 630.69769   L 385.20401 630.69769   L 385.20401 628.8274   L 387.07429 628.8274  z    M 387.07429 632.56797   L 387.07429 634.43826   L 385.20401 634.43826   L 385.20401 632.56797   L 387.07429 632.56797  z    M 387.07429 636.30854   L 387.07429 638.17883   L 385.20401 638.17883   L 385.20401 636.30854   L 387.07429 636.30854  z   "
       id="path3504" />
    <path
       style="fill:none;stroke:#000000;stroke-width:1.8702855px;stroke-linecap:butt;stroke-linejoin:round;stroke-dasharray:none;stroke-opacity:1;"
       d="  M 357.78562 717.51634   L 407.34819 717.51634  "
       id="path3506" />
    <path
       style="fill:none;stroke:#000000;stroke-width:1.8702855px;stroke-linecap:butt;stroke-linejoin:round;stroke-dasharray:none;stroke-opacity:1;"
       d="  M 386.13915 717.51634   L 386.13915 766.92929  "
       id="path3508" />
    <path
       style="fill:#000000;fill-rule:nonzero;fill-opacity:1;stroke:#000000;stroke-width:0.037405711px;stroke-linecap:butt;stroke-linejoin:round;stroke-dasharray:none;stroke-opacity:1;"
       d="  M 387.07429 766.92929   L 387.07429 768.79957   L 385.20401 768.79957   L 385.20401 766.92929   L 387.07429 766.92929  z    M 387.07429 770.66986   L 387.07429 772.54014   L 385.20401 772.54014   L 385.20401 770.66986   L 387.07429 770.66986  z    M 387.07429 774.41043   L 387.07429 776.28071   L 385.20401 776.28071   L 385.20401 774.41043   L 387.07429 774.41043  z    M 387.07429 778.151   L 387.07429 780.02128   L 385.20401 780.02128   L 385.20401 778.151   L 387.07429 778.151  z    M 387.07429 781.89157   L 387.07429 783.76186   L 385.20401 783.76186   L 385.20401 781.89157   L 387.07429 781.89157  z    M 387.07429 785.63214   L 387.07429 787.50243   L 385.20401 787.50243   L 385.20401 785.63214   L 387.07429 785.63214  z    M 387.07429 789.37271   L 387.07429 791.243   L 385.20401 791.243   L 385.20401 789.37271   L 387.07429 789.37271  z    M 387.07429 793.11328   L 387.07429 794.98357   L 385.20401 794.98357   L 385.20401 793.11328   L 387.07429 793.11328  z    M 387.07429 796.85385   L 387.07429 798.72414   L 385.20401 798.72414   L 385.20401 796.85385   L 387.07429 796.85385  z    M 387.07429 800.59443   L 387.07429 802.46471   L 385.20401 802.46471   L 385.20401 800.59443   L 387.07429 800.59443  z    M 387.07429 804.335   L 387.07429 806.20528   L 385.20401 806.20528   L 385.20401 804.335   L 387.07429 804.335  z    M 387.07429 808.07557   L 387.07429 809.94585   L 385.20401 809.94585   L 385.20401 808.07557   L 387.07429 808.07557  z    M 387.07429 811.81614   L 387.07429 813.68642   L 385.20401 813.68642   L 385.20401 811.81614   L 387.07429 811.81614  z    M 387.07429 815.55671   L 387.07429 817.427   L 385.20401 817.427   L 385.20401 815.55671   L 387.07429 815.55671  z    M 387.07429 819.29728   L 387.07429 821.16757   L 385.20401 821.16757   L 385.20401 819.29728   L 387.07429 819.29728  z    M 387.07429 823.03785   L 387.07429 824.90814   L 385.20401 824.90814   L 385.20401 823.03785   L 387.07429 823.03785  z    M 387.07429 826.77842   L 387.07429 828.64871   L 385.20401 828.64871   L 385.20401 826.77842   L 387.07429 826.77842  z    M 387.07429 830.51899   L 387.07429 832.38928   L 385.20401 832.38928   L 385.20401 830.51899   L 387.07429 830.51899  z    M 387.07429 834.25957   L 387.07429 836.12985   L 385.20401 836.12985   L 385.20401 834.25957   L 387.07429 834.25957  z   "
       id="path3510" />
    <path
       style="fill:none;stroke:#000000;stroke-width:1.8702855px;stroke-linecap:butt;stroke-linejoin:round;stroke-dasharray:none;stroke-opacity:1;"
       d="  M 386.13915 279.0653   L 407.34819 279.0653  "
       id="path3512" />
    <path
       style="fill:none;stroke:#000000;stroke-width:1.8702855px;stroke-linecap:butt;stroke-linejoin:round;stroke-dasharray:none;stroke-opacity:1;"
       d="  M 386.13915 314.45111   L 407.34819 314.45111  "
       id="path3514" />
    <path
       style="fill:none;stroke:#000000;stroke-width:1.8702855px;stroke-linecap:butt;stroke-linejoin:round;stroke-dasharray:none;stroke-opacity:1;"
       d="  M 386.13915 364.01367   L 407.34819 364.01367  "
       id="path3516" />
    <path
       style="fill:none;stroke:#000000;stroke-width:1.8702855px;stroke-linecap:butt;stroke-linejoin:round;stroke-dasharray:none;stroke-opacity:1;"
       d="  M 386.13915 561.94599   L 407.34819 561.94599  "
       id="path3518" />
    <path
       style="fill:none;stroke:#000000;stroke-width:1.8702855px;stroke-linecap:butt;stroke-linejoin:round;stroke-dasharray:none;stroke-opacity:1;"
       d="  M 386.13915 639.74987   L 407.34819 639.74987  "
       id="path3520" />
    <path
       style="fill:none;stroke:#000000;stroke-width:1.8702855px;stroke-linecap:butt;stroke-linejoin:round;stroke-dasharray:none;stroke-opacity:1;"
       d="  M 386.13915 759.89701   L 407.34819 759.89701  "
       id="path3522" />
    <path
       style="fill:none;stroke:#000000;stroke-width:1.8702855px;stroke-linecap:butt;stroke-linejoin:round;stroke-dasharray:none;stroke-opacity:1;"
       d="  M 386.13915 837.66348   L 407.34819 837.66348  "
       id="path3524" />
    <path
       style="fill:none;stroke:#000000;stroke-width:1.8702855px;stroke-linecap:butt;stroke-linejoin:miter;stroke-miterlimit:4;stroke-dasharray:none;stroke-opacity:1;"
       d="  M 25.491992 371.02724   L 131.48107 371.02724   L 131.48107 406.41305   L 25.491992 406.41305  z "
       id="path3526" />
    <text
       xml:space="preserve"
       x="40.884442"
       y="397.16452"
       style="font-size:22.443426px;fill:#000000;font-style:normal;font-weight:normal;text-align:start;text-anchor:start;font-family:Arial;"
       id="text3528">jpylyzer</text>
    <path
       style="fill:none;stroke:#000000;stroke-width:1.8702855px;stroke-linecap:butt;stroke-linejoin:round;stroke-dasharray:none;stroke-opacity:1;"
       d="  M 174.04877 130.69555   L 174.04877 710.33445  "
       id="path3530" />
    <path
       style="fill:none;stroke:#000000;stroke-width:1.8702855px;stroke-linecap:butt;stroke-linejoin:miter;stroke-miterlimit:4;stroke-dasharray:none;stroke-opacity:1;"
       d="  M 251.79654 413.42662   L 378.97596 413.42662   L 378.97596 448.79372   L 251.79654 448.79372  z "
       id="path3532" />
    <text
       xml:space="preserve"
       x="260.00395"
       y="439.55765"
       style="font-size:22.443426px;fill:#000000;font-style:normal;font-weight:bold;text-align:start;text-anchor:start;font-family:Arial;"
       id="text3534">isValidJP2</text>
    <path
       style="fill:none;stroke:#000000;stroke-width:1.8702855px;stroke-linecap:butt;stroke-linejoin:round;stroke-dasharray:none;stroke-opacity:1;"
       d="  M 174.02072 130.69555   L 251.79654 130.69555  "
       id="path3536" />
    <path
       style="fill:none;stroke:#000000;stroke-width:1.8702855px;stroke-linecap:butt;stroke-linejoin:round;stroke-dasharray:none;stroke-opacity:1;"
       d="  M 251.79654 229.66171   L 174.02072 229.66171  "
       id="path3538" />
    <path
       style="fill:none;stroke:#000000;stroke-width:1.8702855px;stroke-linecap:butt;stroke-linejoin:round;stroke-dasharray:none;stroke-opacity:1;"
       d="  M 251.79654 427.60338   L 174.03007 427.60338  "
       id="path3540" />
    <path
       style="fill:none;stroke:#000000;stroke-width:1.8702855px;stroke-linecap:butt;stroke-linejoin:round;stroke-dasharray:none;stroke-opacity:1;"
       d="  M 251.79654 519.56532   L 174.03007 519.56532  "
       id="path3542" />
    <path
       style="fill:none;stroke:#000000;stroke-width:1.8702855px;stroke-linecap:butt;stroke-linejoin:round;stroke-dasharray:none;stroke-opacity:1;"
       d="  M 174.04877 710.33445   L 251.81524 710.33445  "
       id="path3544" />
    <path
       style="fill:none;stroke:#000000;stroke-width:1.8702855px;stroke-linecap:butt;stroke-linejoin:round;stroke-dasharray:none;stroke-opacity:1;"
       d="  M 131.6307 392.21758   L 174.03007 392.21758  "
       id="path3546" />
    <path
       style="fill:none;stroke:#000000;stroke-width:1.8702855px;stroke-linecap:butt;stroke-linejoin:round;stroke-dasharray:none;stroke-opacity:1;"
       d="  M 569.74508 519.56532   L 598.11731 519.56532  "
       id="path3548" />
    <path
       style="fill:#000000;fill-rule:nonzero;fill-opacity:1;stroke:#000000;stroke-width:0.037405711px;stroke-linecap:butt;stroke-linejoin:round;stroke-dasharray:none;stroke-opacity:1;"
       d="  M 598.11731 518.63018   L 599.9876 518.63018   L 599.9876 520.50046   L 598.11731 520.50046   L 598.11731 518.63018  z    M 601.85788 518.63018   L 603.72817 518.63018   L 603.72817 520.50046   L 601.85788 520.50046   L 601.85788 518.63018  z    M 605.59846 518.63018   L 607.46874 518.63018   L 607.46874 520.50046   L 605.59846 520.50046   L 605.59846 518.63018  z    M 609.33903 518.63018   L 611.20931 518.63018   L 611.20931 520.50046   L 609.33903 520.50046   L 609.33903 518.63018  z    M 613.0796 518.63018   L 614.94988 518.63018   L 614.94988 520.50046   L 613.0796 520.50046   L 613.0796 518.63018  z    M 616.82017 518.63018   L 618.69045 518.63018   L 618.69045 520.50046   L 616.82017 520.50046   L 616.82017 518.63018  z    M 620.56074 518.63018   L 622.43103 518.63018   L 622.43103 520.50046   L 620.56074 520.50046   L 620.56074 518.63018  z    M 624.30131 518.63018   L 626.1716 518.63018   L 626.1716 520.50046   L 624.30131 520.50046   L 624.30131 518.63018  z   "
       id="path3550" />
    <path
       style="fill:none;stroke:#000000;stroke-width:1.8702855px;stroke-linecap:butt;stroke-linejoin:round;stroke-dasharray:none;stroke-opacity:1;"
       d="  M 569.74508 561.94599   L 598.11731 561.94599  "
       id="path3552" />
    <path
       style="fill:#000000;fill-rule:nonzero;fill-opacity:1;stroke:#000000;stroke-width:0.037405711px;stroke-linecap:butt;stroke-linejoin:round;stroke-dasharray:none;stroke-opacity:1;"
       d="  M 598.11731 561.01085   L 599.9876 561.01085   L 599.9876 562.88113   L 598.11731 562.88113   L 598.11731 561.01085  z    M 601.85788 561.01085   L 603.72817 561.01085   L 603.72817 562.88113   L 601.85788 562.88113   L 601.85788 561.01085  z    M 605.59846 561.01085   L 607.46874 561.01085   L 607.46874 562.88113   L 605.59846 562.88113   L 605.59846 561.01085  z    M 609.33903 561.01085   L 611.20931 561.01085   L 611.20931 562.88113   L 609.33903 562.88113   L 609.33903 561.01085  z    M 613.0796 561.01085   L 614.94988 561.01085   L 614.94988 562.88113   L 613.0796 562.88113   L 613.0796 561.01085  z    M 616.82017 561.01085   L 618.69045 561.01085   L 618.69045 562.88113   L 616.82017 562.88113   L 616.82017 561.01085  z    M 620.56074 561.01085   L 622.43103 561.01085   L 622.43103 562.88113   L 620.56074 562.88113   L 620.56074 561.01085  z    M 624.30131 561.01085   L 626.1716 561.01085   L 626.1716 562.88113   L 624.30131 562.88113   L 624.30131 561.01085  z   "
       id="path3554" />
    <path
       style="fill:none;stroke:#000000;stroke-width:1.8702855px;stroke-linecap:butt;stroke-linejoin:round;stroke-dasharray:none;stroke-opacity:1;"
       d="  M 569.91341 639.74987   L 598.26694 639.74987  "
       id="path3556" />
    <path
       style="fill:#000000;fill-rule:nonzero;fill-opacity:1;stroke:#000000;stroke-width:0.037405711px;stroke-linecap:butt;stroke-linejoin:round;stroke-dasharray:none;stroke-opacity:1;"
       d="  M 598.26694 638.81473   L 600.13722 638.81473   L 600.13722 640.68501   L 598.26694 640.68501   L 598.26694 638.81473  z    M 602.00751 638.81473   L 603.87779 638.81473   L 603.87779 640.68501   L 602.00751 640.68501   L 602.00751 638.81473  z    M 605.74808 638.81473   L 607.61836 638.81473   L 607.61836 640.68501   L 605.74808 640.68501   L 605.74808 638.81473  z    M 609.48865 638.81473   L 611.35894 638.81473   L 611.35894 640.68501   L 609.48865 640.68501   L 609.48865 638.81473  z    M 613.22922 638.81473   L 615.09951 638.81473   L 615.09951 640.68501   L 613.22922 640.68501   L 613.22922 638.81473  z    M 616.96979 638.81473   L 618.84008 638.81473   L 618.84008 640.68501   L 616.96979 640.68501   L 616.96979 638.81473  z    M 620.71036 638.81473   L 622.58065 638.81473   L 622.58065 640.68501   L 620.71036 640.68501   L 620.71036 638.81473  z    M 624.45093 638.81473   L 626.32122 638.81473   L 626.32122 640.68501   L 624.45093 640.68501   L 624.45093 638.81473  z   "
       id="path3558" />
    <path
       style="fill:none;stroke:#000000;stroke-width:1.8702855px;stroke-linecap:butt;stroke-linejoin:round;stroke-dasharray:none;stroke-opacity:1;"
       d="  M 569.76378 717.51634   L 598.11731 717.51634  "
       id="path3560" />
    <path
       style="fill:#000000;fill-rule:nonzero;fill-opacity:1;stroke:#000000;stroke-width:0.037405711px;stroke-linecap:butt;stroke-linejoin:round;stroke-dasharray:none;stroke-opacity:1;"
       d="  M 598.11731 716.5812   L 599.9876 716.5812   L 599.9876 718.45148   L 598.11731 718.45148   L 598.11731 716.5812  z    M 601.85788 716.5812   L 603.72817 716.5812   L 603.72817 718.45148   L 601.85788 718.45148   L 601.85788 716.5812  z    M 605.59846 716.5812   L 607.46874 716.5812   L 607.46874 718.45148   L 605.59846 718.45148   L 605.59846 716.5812  z    M 609.33903 716.5812   L 611.20931 716.5812   L 611.20931 718.45148   L 609.33903 718.45148   L 609.33903 716.5812  z    M 613.0796 716.5812   L 614.94988 716.5812   L 614.94988 718.45148   L 613.0796 718.45148   L 613.0796 716.5812  z    M 616.82017 716.5812   L 618.69045 716.5812   L 618.69045 718.45148   L 616.82017 718.45148   L 616.82017 716.5812  z    M 620.56074 716.5812   L 622.43103 716.5812   L 622.43103 718.45148   L 620.56074 718.45148   L 620.56074 716.5812  z    M 624.30131 716.5812   L 626.1716 716.5812   L 626.1716 718.45148   L 624.30131 718.45148   L 624.30131 716.5812  z   "
       id="path3562" />
    <path
       style="fill:none;stroke:#000000;stroke-width:1.8702855px;stroke-linecap:butt;stroke-linejoin:round;stroke-dasharray:none;stroke-opacity:1;"
       d="  M 569.91341 759.89701   L 598.26694 759.89701  "
       id="path3564" />
    <path
       style="fill:#000000;fill-rule:nonzero;fill-opacity:1;stroke:#000000;stroke-width:0.037405711px;stroke-linecap:butt;stroke-linejoin:round;stroke-dasharray:none;stroke-opacity:1;"
       d="  M 598.26694 758.96187   L 600.13722 758.96187   L 600.13722 760.83215   L 598.26694 760.83215   L 598.26694 758.96187  z    M 602.00751 758.96187   L 603.87779 758.96187   L 603.87779 760.83215   L 602.00751 760.83215   L 602.00751 758.96187  z    M 605.74808 758.96187   L 607.61836 758.96187   L 607.61836 760.83215   L 605.74808 760.83215   L 605.74808 758.96187  z    M 609.48865 758.96187   L 611.35894 758.96187   L 611.35894 760.83215   L 609.48865 760.83215   L 609.48865 758.96187  z    M 613.22922 758.96187   L 615.09951 758.96187   L 615.09951 760.83215   L 613.22922 760.83215   L 613.22922 758.96187  z    M 616.96979 758.96187   L 618.84008 758.96187   L 618.84008 760.83215   L 616.96979 760.83215   L 616.96979 758.96187  z    M 620.71036 758.96187   L 622.58065 758.96187   L 622.58065 760.83215   L 620.71036 760.83215   L 620.71036 758.96187  z    M 624.45093 758.96187   L 626.32122 758.96187   L 626.32122 760.83215   L 624.45093 760.83215   L 624.45093 758.96187  z   "
       id="path3566" />
    <path
       style="fill:none;stroke:#000000;stroke-width:1.8702855px;stroke-linecap:butt;stroke-linejoin:round;stroke-dasharray:none;stroke-opacity:1;"
       d="  M 569.76378 837.66348   L 598.11731 837.66348  "
       id="path3568" />
    <path
       style="fill:#000000;fill-rule:nonzero;fill-opacity:1;stroke:#000000;stroke-width:0.037405711px;stroke-linecap:butt;stroke-linejoin:round;stroke-dasharray:none;stroke-opacity:1;"
       d="  M 598.11731 836.72834   L 599.9876 836.72834   L 599.9876 838.59863   L 598.11731 838.59863   L 598.11731 836.72834  z    M 601.85788 836.72834   L 603.72817 836.72834   L 603.72817 838.59863   L 601.85788 838.59863   L 601.85788 836.72834  z    M 605.59846 836.72834   L 607.46874 836.72834   L 607.46874 838.59863   L 605.59846 838.59863   L 605.59846 836.72834  z    M 609.33903 836.72834   L 611.20931 836.72834   L 611.20931 838.59863   L 609.33903 838.59863   L 609.33903 836.72834  z    M 613.0796 836.72834   L 614.94988 836.72834   L 614.94988 838.59863   L 613.0796 838.59863   L 613.0796 836.72834  z    M 616.82017 836.72834   L 618.69045 836.72834   L 618.69045 838.59863   L 616.82017 838.59863   L 616.82017 836.72834  z    M 620.56074 836.72834   L 622.43103 836.72834   L 622.43103 838.59863   L 620.56074 838.59863   L 620.56074 836.72834  z    M 624.30131 836.72834   L 626.1716 836.72834   L 626.1716 838.59863   L 624.30131 838.59863   L 624.30131 836.72834  z   "
       id="path3570" />
  </g>
</svg>
